<?xml version="1.0" standalone="no"?>
<!DOCTYPE svg PUBLIC "-//W3C//DTD SVG 1.1//EN" "http://www.w3.org/Graphics/SVG/1.1/DTD/svg11.dtd" >
<svg xmlns="http://www.w3.org/2000/svg" xmlns:xlink="http://www.w3.org/1999/xlink" version="1.1">
<metadata>
Created by FontForge 20190801 at Wed Sep 25 17:34:17 2019
 By root
Copyright \(c\) 2019 by Enrique Hernandez Vasquez. All rights reserved.
</metadata>
<defs>
<font id="GoldplayAlt-Bold" horiz-adv-x="0" >
  <font-face 
    font-family="Goldplay Alt Bold"
    font-weight="700"
    font-stretch="normal"
    units-per-em="1000"
    panose-1="0 0 8 0 0 0 0 0 0 0"
    ascent="800"
    descent="-200"
    x-height="505"
    cap-height="650"
    bbox="-729 -291 2207 986"
    underline-thickness="50"
    underline-position="-100"
    stemh="143"
    stemv="175"
    unicode-range="U+0020-FB02"
  />
<missing-glyph horiz-adv-x="530" 
d="M50 730h430v-730h-430v730zM115 695l150 -287l150 287h-300zM243 365l-153 292v-584zM288 365l152 -292v584zM265 322l-150 -287h300z" />
    <glyph glyph-name="fi" unicode="fi" horiz-adv-x="748" 
d="M572 538c-57 0 -103 44 -103 101c0 56 46 101 103 101c55 0 100 -45 100 -101c0 -57 -45 -101 -100 -101zM741 54c9 -28 1 -36 -17 -46c-32 -17 -61 -21 -89 -21c-101 1 -152 53 -152 156v236h-203v-372c0 -136 -94 -197 -194 -197c-41 0 -83 10 -117 31
c-19 12 -32 23 -18 52l22 49c12 25 21 36 38 28c13 -7 27 -13 43 -13c29 0 53 18 53 66v356h-41c-29 0 -46 17 -46 46v34c0 30 17 46 46 46h41v11c0 144 102 208 213 208c38 0 76 -8 102 -19c23 -9 36 -21 24 -52l-17 -44c-11 -26 -22 -33 -50 -25c-11 5 -24 8 -36 8
c-39 0 -63 -25 -63 -76v-11h331c29 0 45 -16 45 -46v-301c0 -11 1 -19 12 -19c4 0 13 2 20 4c16 4 27 -2 35 -28z" />
    <glyph glyph-name="fl" unicode="fl" horiz-adv-x="712" 
d="M714 54c8 -28 0 -36 -17 -46c-32 -17 -61 -21 -89 -21c-100 0 -153 53 -153 156v408c-29 39 -87 41 -101 41c-40 0 -74 -27 -74 -76v-11h66c29 0 45 -16 45 -46v-34c0 -29 -16 -46 -45 -46h-66v-372c0 -136 -94 -197 -194 -197c-41 0 -83 11 -105 24
c-31 18 -41 35 -27 66l16 36c12 28 27 41 52 31c17 -7 31 -10 43 -7c27 5 42 27 42 66v353h-41c-29 0 -46 17 -46 46v34c0 30 17 46 46 46h41v11c0 141 108 208 223 208c37 0 96 -8 142 -36c7 5 17 9 29 11l81 15c31 6 47 -16 47 -46v-510c0 -11 1 -19 12 -19c4 0 13 2 20 4
c16 5 27 -2 35 -28z" />
    <glyph glyph-name=".notdef" horiz-adv-x="530" 
d="M50 730h430v-730h-430v730zM115 695l150 -287l150 287h-300zM243 365l-153 292v-584zM288 365l152 -292v584zM265 322l-150 -287h300z" />
    <glyph glyph-name="space" unicode=" " horiz-adv-x="210" 
 />
    <glyph glyph-name="A" unicode="A" horiz-adv-x="706" 
d="M691 47c14 -30 -2 -47 -33 -47h-107c-31 0 -37 16 -49 47l-24 60h-256l-25 -60c-12 -31 -17 -47 -48 -47h-101c-31 0 -47 17 -33 47l268 564c14 29 35 45 65 45h11c30 0 50 -16 64 -45zM270 225h162l-79 200z" />
    <glyph glyph-name="Aacute" unicode="&#xc1;" horiz-adv-x="706" 
d="M223 740l-12 21c-17 26 -10 43 16 58l164 101c39 24 50 17 65 -10l29 -49c19 -34 11 -45 -27 -60l-175 -74c-32 -14 -46 -8 -60 13zM691 47c14 -30 -2 -47 -33 -47h-107c-31 0 -37 16 -49 47l-24 60h-256l-25 -60c-12 -31 -17 -47 -48 -47h-101c-31 0 -47 17 -33 47
l268 564c14 29 35 45 65 45h11c30 0 50 -16 64 -45zM270 225h162l-79 200z" />
    <glyph glyph-name="Abreve" unicode="&#x102;" horiz-adv-x="706" 
d="M352 719c-103 0 -180 74 -180 169c0 21 15 33 36 33h37c22 0 40 -10 40 -33c0 -44 29 -67 68 -67c40 0 69 23 69 67c0 23 18 33 39 33h36c21 0 36 -12 36 -33c0 -95 -77 -169 -181 -169zM691 47c14 -30 -2 -47 -33 -47h-107c-31 0 -37 16 -49 47l-24 60h-256l-25 -60
c-12 -31 -17 -47 -48 -47h-101c-31 0 -47 17 -33 47l268 564c14 29 35 45 65 45h11c30 0 50 -16 64 -45zM270 225h162l-79 200z" />
    <glyph glyph-name="Acircumflex" unicode="&#xc2;" horiz-adv-x="706" 
d="M178 740l-11 20c-15 25 -10 42 18 59l144 83c19 10 29 10 48 0l144 -83c28 -17 34 -34 19 -59l-12 -20c-15 -24 -31 -28 -66 -11l-109 52l-109 -52c-35 -17 -51 -13 -66 11zM691 47c14 -30 -2 -47 -33 -47h-107c-31 0 -37 16 -49 47l-24 60h-256l-25 -60
c-12 -31 -17 -47 -48 -47h-101c-31 0 -47 17 -33 47l268 564c14 29 35 45 65 45h11c30 0 50 -16 64 -45zM270 225h162l-79 200z" />
    <glyph glyph-name="Adieresis" unicode="&#xc4;" horiz-adv-x="706" 
d="M228 723c-54 0 -99 45 -99 98c0 54 45 100 99 100s99 -46 99 -100s-45 -98 -99 -98zM475 723c-53 0 -99 45 -99 98c0 54 46 100 99 100c54 0 99 -46 99 -100s-45 -98 -99 -98zM691 47c14 -30 -2 -47 -33 -47h-107c-31 0 -37 16 -49 47l-24 60h-256l-25 -60
c-12 -31 -17 -47 -48 -47h-101c-31 0 -47 17 -33 47l268 564c14 29 35 45 65 45h11c30 0 50 -16 64 -45zM270 225h162l-79 200z" />
    <glyph glyph-name="Agrave" unicode="&#xc0;" horiz-adv-x="706" 
d="M270 801c-38 15 -46 26 -27 60l28 49c16 27 26 34 66 10l164 -101c26 -15 32 -32 16 -58l-13 -21c-13 -21 -28 -27 -60 -13zM691 47c14 -30 -2 -47 -33 -47h-107c-31 0 -37 16 -49 47l-24 60h-256l-25 -60c-12 -31 -17 -47 -48 -47h-101c-31 0 -47 17 -33 47l268 564
c14 29 35 45 65 45h11c30 0 50 -16 64 -45zM270 225h162l-79 200z" />
    <glyph glyph-name="Amacron" unicode="&#x100;" horiz-adv-x="706" 
d="M221 765c-31 0 -47 17 -47 47v25c0 30 16 46 47 46h263c30 0 46 -16 46 -46v-25c0 -30 -16 -47 -46 -47h-263zM691 47c14 -30 -2 -47 -33 -47h-107c-31 0 -37 16 -49 47l-24 60h-256l-25 -60c-12 -31 -17 -47 -48 -47h-101c-31 0 -47 17 -33 47l268 564
c14 29 35 45 65 45h11c30 0 50 -16 64 -45zM270 225h162l-79 200z" />
    <glyph glyph-name="Aogonek" unicode="&#x104;" horiz-adv-x="706" 
d="M734 -171c11 -26 -1 -42 -27 -55c-98 -48 -214 0 -214 109c0 41 21 79 66 117h-8c-31 0 -37 16 -49 47l-24 60h-256l-25 -60c-12 -31 -17 -47 -48 -47h-101c-31 0 -47 17 -33 47l268 564c14 29 35 45 65 45h11c30 0 50 -16 64 -45l268 -564c12 -27 1 -43 -23 -46
c-35 -26 -58 -65 -58 -98c0 -44 27 -55 67 -43c22 6 39 9 52 -20zM270 225h162l-79 200z" />
    <glyph glyph-name="Aring" unicode="&#xc5;" horiz-adv-x="706" 
d="M353 719c-71 0 -130 57 -130 128s59 128 130 128s130 -57 130 -128s-59 -128 -130 -128zM353 887c-21 0 -39 -18 -39 -40s18 -40 39 -40s39 18 39 40s-18 40 -39 40zM691 47c14 -30 -2 -47 -33 -47h-107c-31 0 -37 16 -49 47l-24 60h-256l-25 -60
c-12 -31 -17 -47 -48 -47h-101c-31 0 -47 17 -33 47l268 564c14 29 35 45 65 45h11c30 0 50 -16 64 -45zM270 225h162l-79 200z" />
    <glyph glyph-name="Atilde" unicode="&#xc3;" horiz-adv-x="706" 
d="M188 719c-29 0 -42 12 -42 36c0 100 57 154 122 154c83 0 120 -63 165 -63c14 0 24 11 24 28c0 24 13 35 42 35h28c29 0 42 -11 42 -35c0 -100 -57 -154 -122 -154c-86 0 -121 63 -161 63c-16 0 -26 -10 -28 -28c-4 -25 -13 -36 -42 -36h-28zM691 47
c14 -30 -2 -47 -33 -47h-107c-31 0 -37 16 -49 47l-24 60h-256l-25 -60c-12 -31 -17 -47 -48 -47h-101c-31 0 -47 17 -33 47l268 564c14 29 35 45 65 45h11c30 0 50 -16 64 -45zM270 225h162l-79 200z" />
    <glyph glyph-name="AE" unicode="&#xc6;" horiz-adv-x="999" 
d="M917 143c30 0 47 -17 47 -47v-49c0 -31 -17 -47 -47 -47h-393c-30 0 -47 17 -47 47v60h-257l-39 -60c-19 -30 -33 -47 -64 -47h-86c-31 0 -52 17 -33 47l377 557c20 29 53 46 84 46h455c30 0 47 -16 47 -47v-49c0 -30 -17 -47 -47 -47h-261v-114h190c30 0 47 -17 47 -47
v-41c0 -30 -17 -47 -47 -47h-190v-115h264zM295 225h182v283z" />
    <glyph glyph-name="AEacute" unicode="&#x1fc;" horiz-adv-x="999" 
d="M584 740l-12 21c-17 26 -10 43 16 58l164 101c39 24 50 17 65 -10l29 -49c19 -34 11 -45 -27 -60l-175 -74c-32 -14 -46 -8 -60 13zM917 143c30 0 47 -17 47 -47v-49c0 -31 -17 -47 -47 -47h-393c-30 0 -47 17 -47 47v60h-257l-39 -60c-19 -30 -33 -47 -64 -47h-86
c-31 0 -52 17 -33 47l377 557c20 29 53 46 84 46h455c30 0 47 -16 47 -47v-49c0 -30 -17 -47 -47 -47h-261v-114h190c30 0 47 -17 47 -47v-41c0 -30 -17 -47 -47 -47h-190v-115h264zM295 225h182v283z" />
    <glyph glyph-name="B" unicode="B" horiz-adv-x="642" 
d="M488 347c62 -23 122 -75 122 -165c0 -112 -95 -182 -238 -182h-257c-30 0 -47 17 -47 47v556c0 30 17 47 47 47h237c133 0 218 -68 218 -171c0 -60 -32 -106 -82 -132zM325 523h-79l-1 -137h80c48 0 78 26 78 68c0 43 -30 69 -78 69zM344 127c58 0 93 29 93 75
c0 45 -36 75 -90 75h-102l-1 -150h100z" />
    <glyph glyph-name="C" unicode="C" horiz-adv-x="672" 
d="M388 -12c-200 0 -355 144 -355 337s155 337 357 337c97 0 184 -36 245 -97c22 -21 22 -47 0 -66l-51 -43c-22 -19 -43 -18 -66 1c-35 29 -79 47 -128 47c-100 0 -178 -75 -178 -179s78 -179 178 -179c49 0 94 18 128 47c23 19 44 20 66 1l51 -43c22 -19 22 -45 0 -66
c-61 -61 -148 -97 -247 -97z" />
    <glyph glyph-name="Cacute" unicode="&#x106;" horiz-adv-x="672" 
d="M266 740l-12 21c-17 26 -10 43 16 58l164 101c39 24 50 17 65 -10l29 -49c19 -34 11 -45 -27 -60l-175 -74c-32 -14 -46 -8 -60 13zM388 -12c-200 0 -355 144 -355 337s155 337 357 337c97 0 184 -36 245 -97c22 -21 22 -47 0 -66l-51 -43c-22 -19 -43 -18 -66 1
c-35 29 -79 47 -128 47c-100 0 -178 -75 -178 -179s78 -179 178 -179c49 0 94 18 128 47c23 19 44 20 66 1l51 -43c22 -19 22 -45 0 -66c-61 -61 -148 -97 -247 -97z" />
    <glyph glyph-name="Ccaron" unicode="&#x10c;" horiz-adv-x="672" 
d="M222 810c-29 16 -34 34 -19 59l12 20c14 24 31 27 66 11l109 -52l108 52c35 16 51 13 66 -11l12 -20c15 -25 9 -43 -19 -59l-143 -83c-19 -10 -30 -11 -49 0zM635 151c22 -19 22 -45 0 -66c-61 -61 -148 -97 -247 -97c-200 0 -355 144 -355 337s155 337 357 337
c97 0 184 -36 245 -97c22 -21 22 -47 0 -66l-51 -43c-22 -19 -43 -18 -66 1c-35 29 -79 47 -128 47c-100 0 -178 -75 -178 -179s78 -179 178 -179c49 0 94 18 128 47c23 19 44 20 66 1z" />
    <glyph glyph-name="Ccedilla" unicode="&#xc7;" horiz-adv-x="672" 
d="M635 151c22 -19 22 -45 0 -66c-52 -52 -124 -86 -206 -95l-7 -28c80 3 137 -41 137 -109c0 -79 -65 -133 -158 -133c-44 0 -94 13 -132 33c-26 13 -31 35 -17 58l5 7c17 28 33 22 55 12c20 -10 48 -18 72 -18c36 0 60 15 60 43c0 37 -41 55 -111 42c-13 -3 -26 -2 -21 14
l24 80c-174 23 -303 158 -303 334c0 193 155 337 357 337c97 0 184 -36 245 -97c22 -21 22 -47 0 -66l-51 -43c-22 -19 -43 -18 -66 1c-35 29 -79 47 -128 47c-100 0 -178 -75 -178 -179s78 -179 178 -179c49 0 94 18 128 47c23 19 44 20 66 1z" />
    <glyph glyph-name="Cdotaccent" unicode="&#x10a;" horiz-adv-x="672" 
d="M389 723c-55 0 -103 48 -103 103c0 57 48 104 103 104c56 0 104 -47 104 -104c0 -56 -49 -103 -104 -103zM388 -12c-200 0 -355 144 -355 337s155 337 357 337c97 0 184 -36 245 -97c22 -21 22 -47 0 -66l-51 -43c-22 -19 -43 -18 -66 1c-35 29 -79 47 -128 47
c-100 0 -178 -75 -178 -179s78 -179 178 -179c49 0 94 18 128 47c23 19 44 20 66 1l51 -43c22 -19 22 -45 0 -66c-61 -61 -148 -97 -247 -97z" />
    <glyph glyph-name="D" unicode="D" horiz-adv-x="740" 
d="M115 0c-30 0 -47 17 -47 47v556c0 30 17 47 47 47h247c211 0 342 -130 342 -324c0 -196 -131 -326 -342 -326h-247zM244 143h111c100 0 171 67 171 182s-71 182 -171 182h-111v-364z" />
    <glyph glyph-name="Eth" unicode="&#xd0;" horiz-adv-x="754" 
d="M376 650c212 0 343 -130 343 -324c0 -196 -131 -326 -343 -326h-246c-30 0 -47 17 -47 47v224h-23c-30 0 -46 16 -46 46v17c0 30 16 47 46 47h23v222c0 30 17 47 47 47h246zM370 143c100 0 170 67 170 182s-70 182 -170 182h-111v-126h102c31 0 47 -17 47 -47v-17
c0 -30 -16 -46 -47 -46h-102v-128h111z" />
    <glyph glyph-name="Dcaron" unicode="&#x10e;" horiz-adv-x="740" 
d="M154 810c-29 16 -34 34 -19 59l12 20c14 24 31 27 66 11l109 -52l108 52c35 16 51 13 66 -11l12 -20c15 -25 9 -43 -19 -59l-143 -83c-19 -10 -30 -11 -49 0zM362 650c211 0 342 -130 342 -324c0 -196 -131 -326 -342 -326h-247c-30 0 -47 17 -47 47v556
c0 30 17 47 47 47h247zM355 143c100 0 171 67 171 182s-71 182 -171 182h-111v-364h111z" />
    <glyph glyph-name="Dcroat" unicode="&#x110;" horiz-adv-x="754" 
d="M376 650c212 0 343 -130 343 -324c0 -196 -131 -326 -343 -326h-246c-30 0 -47 17 -47 47v224h-23c-30 0 -46 16 -46 46v17c0 30 16 47 46 47h23v222c0 30 17 47 47 47h246zM370 143c100 0 170 67 170 182s-70 182 -170 182h-111v-126h102c31 0 47 -17 47 -47v-17
c0 -30 -16 -46 -47 -46h-102v-128h111z" />
    <glyph glyph-name="E" unicode="E" horiz-adv-x="590" 
d="M115 0c-30 0 -47 17 -47 47v556c0 30 17 47 47 47h390c30 0 47 -16 47 -47v-49c0 -30 -17 -47 -47 -47h-261v-114h190c30 0 47 -17 47 -47v-41c0 -30 -17 -47 -47 -47h-190v-115h264c30 0 47 -17 47 -47v-49c0 -31 -17 -47 -47 -47h-393z" />
    <glyph glyph-name="Eacute" unicode="&#xc9;" horiz-adv-x="590" 
d="M187 740l-12 21c-17 26 -10 43 16 58l164 101c39 24 50 17 65 -10l29 -49c19 -34 11 -45 -27 -60l-175 -74c-32 -14 -46 -8 -60 13zM115 0c-30 0 -47 17 -47 47v556c0 30 17 47 47 47h390c30 0 47 -16 47 -47v-49c0 -30 -17 -47 -47 -47h-261v-114h190
c30 0 47 -17 47 -47v-41c0 -30 -17 -47 -47 -47h-190v-115h264c30 0 47 -17 47 -47v-49c0 -31 -17 -47 -47 -47h-393z" />
    <glyph glyph-name="Ecaron" unicode="&#x11a;" horiz-adv-x="590" 
d="M143 810c-29 16 -34 34 -19 59l12 20c14 24 31 27 66 11l109 -52l108 52c35 16 51 13 66 -11l12 -20c15 -25 9 -43 -19 -59l-143 -83c-19 -10 -30 -11 -49 0zM508 143c30 0 47 -17 47 -47v-49c0 -31 -17 -47 -47 -47h-393c-30 0 -47 17 -47 47v556c0 30 17 47 47 47h390
c30 0 47 -16 47 -47v-49c0 -30 -17 -47 -47 -47h-261v-114h190c30 0 47 -17 47 -47v-41c0 -30 -17 -47 -47 -47h-190v-115h264z" />
    <glyph glyph-name="Ecircumflex" unicode="&#xca;" horiz-adv-x="590" 
d="M136 740l-11 20c-15 25 -10 42 18 59l144 83c19 10 29 10 48 0l144 -83c28 -17 34 -34 19 -59l-12 -20c-15 -24 -31 -28 -66 -11l-109 52l-109 -52c-35 -17 -51 -13 -66 11zM508 143c30 0 47 -17 47 -47v-49c0 -31 -17 -47 -47 -47h-393c-30 0 -47 17 -47 47v556
c0 30 17 47 47 47h390c30 0 47 -16 47 -47v-49c0 -30 -17 -47 -47 -47h-261v-114h190c30 0 47 -17 47 -47v-41c0 -30 -17 -47 -47 -47h-190v-115h264z" />
    <glyph glyph-name="Edieresis" unicode="&#xcb;" horiz-adv-x="590" 
d="M186 723c-54 0 -99 45 -99 98c0 54 45 100 99 100s99 -46 99 -100s-45 -98 -99 -98zM433 723c-53 0 -99 45 -99 98c0 54 46 100 99 100c54 0 99 -46 99 -100s-45 -98 -99 -98zM115 0c-30 0 -47 17 -47 47v556c0 30 17 47 47 47h390c30 0 47 -16 47 -47v-49
c0 -30 -17 -47 -47 -47h-261v-114h190c30 0 47 -17 47 -47v-41c0 -30 -17 -47 -47 -47h-190v-115h264c30 0 47 -17 47 -47v-49c0 -31 -17 -47 -47 -47h-393z" />
    <glyph glyph-name="Edotaccent" unicode="&#x116;" horiz-adv-x="590" 
d="M310 723c-55 0 -103 48 -103 103c0 57 48 104 103 104c56 0 104 -47 104 -104c0 -56 -49 -103 -104 -103zM115 0c-30 0 -47 17 -47 47v556c0 30 17 47 47 47h390c30 0 47 -16 47 -47v-49c0 -30 -17 -47 -47 -47h-261v-114h190c30 0 47 -17 47 -47v-41
c0 -30 -17 -47 -47 -47h-190v-115h264c30 0 47 -17 47 -47v-49c0 -31 -17 -47 -47 -47h-393z" />
    <glyph glyph-name="Egrave" unicode="&#xc8;" horiz-adv-x="590" 
d="M436 740c-13 -21 -28 -27 -60 -13l-174 74c-38 15 -46 26 -27 60l29 49c15 27 25 34 65 10l164 -101c26 -15 32 -32 16 -58zM115 0c-30 0 -47 17 -47 47v556c0 30 17 47 47 47h390c30 0 47 -16 47 -47v-49c0 -30 -17 -47 -47 -47h-261v-114h190c30 0 47 -17 47 -47v-41
c0 -30 -17 -47 -47 -47h-190v-115h264c30 0 47 -17 47 -47v-49c0 -31 -17 -47 -47 -47h-393z" />
    <glyph glyph-name="Emacron" unicode="&#x112;" horiz-adv-x="590" 
d="M180 765c-31 0 -47 17 -47 47v25c0 30 16 46 47 46h263c30 0 46 -16 46 -46v-25c0 -30 -16 -47 -46 -47h-263zM115 0c-30 0 -47 17 -47 47v556c0 30 17 47 47 47h390c30 0 47 -16 47 -47v-49c0 -30 -17 -47 -47 -47h-261v-114h190c30 0 47 -17 47 -47v-41
c0 -30 -17 -47 -47 -47h-190v-115h264c30 0 47 -17 47 -47v-49c0 -31 -17 -47 -47 -47h-393z" />
    <glyph glyph-name="Eogonek" unicode="&#x118;" horiz-adv-x="590" 
d="M482 0c-35 -25 -57 -65 -57 -97c0 -44 27 -55 67 -43c22 6 39 9 52 -20l5 -11c11 -26 -1 -42 -27 -55c-98 -48 -214 0 -214 109c0 41 21 79 66 117h-259c-30 0 -47 17 -47 47v556c0 30 17 47 47 47h390c30 0 47 -16 47 -47v-49c0 -30 -17 -47 -47 -47h-261v-114h190
c30 0 47 -17 47 -47v-41c0 -30 -17 -47 -47 -47h-190v-115h264c30 0 47 -17 47 -47v-49c0 -31 -17 -47 -47 -47h-26z" />
    <glyph glyph-name="F" unicode="F" horiz-adv-x="560" 
d="M115 0c-30 0 -47 17 -47 47v556c0 30 17 47 47 47h381c31 0 47 -16 47 -47v-49c0 -30 -16 -47 -47 -47h-252v-126h178c30 0 47 -17 47 -47v-42c0 -30 -17 -46 -47 -46h-178v-199c0 -30 -17 -47 -47 -47h-82z" />
    <glyph glyph-name="G" unicode="G" horiz-adv-x="749" 
d="M378 -12c-196 0 -345 143 -345 337s151 337 345 337c100 0 184 -37 245 -96c22 -21 22 -47 -1 -67l-48 -44c-23 -20 -43 -17 -66 1c-33 28 -75 48 -124 48c-95 0 -172 -75 -172 -180c0 -103 75 -178 176 -178c41 0 80 13 109 38c22 18 38 42 45 70h-111
c-30 0 -46 16 -46 46v35c0 29 16 45 46 45h245c29 0 46 -16 46 -46v-17c0 -92 -37 -174 -99 -233c-61 -60 -147 -96 -245 -96z" />
    <glyph glyph-name="Gbreve" unicode="&#x11e;" horiz-adv-x="749" 
d="M377 719c-103 0 -180 74 -180 169c0 21 15 33 36 33h37c22 0 40 -10 40 -33c0 -44 29 -67 68 -67c40 0 69 23 69 67c0 23 18 33 39 33h36c21 0 36 -12 36 -33c0 -95 -77 -169 -181 -169zM378 -12c-196 0 -345 143 -345 337s151 337 345 337c100 0 184 -37 245 -96
c22 -21 22 -47 -1 -67l-48 -44c-23 -20 -43 -17 -66 1c-33 28 -75 48 -124 48c-95 0 -172 -75 -172 -180c0 -103 75 -178 176 -178c41 0 80 13 109 38c22 18 38 42 45 70h-111c-30 0 -46 16 -46 46v35c0 29 16 45 46 45h245c29 0 46 -16 46 -46v-17c0 -92 -37 -174 -99 -233
c-61 -60 -147 -96 -245 -96z" />
    <glyph glyph-name="uni0122" unicode="&#x122;" horiz-adv-x="749" 
d="M378 -12c-196 0 -345 143 -345 337s151 337 345 337c100 0 184 -37 245 -96c22 -21 22 -47 -1 -67l-48 -44c-23 -20 -43 -17 -66 1c-33 28 -75 48 -124 48c-95 0 -172 -75 -172 -180c0 -103 75 -178 176 -178c41 0 80 13 109 38c22 18 38 42 45 70h-111
c-30 0 -46 16 -46 46v35c0 29 16 45 46 45h245c29 0 46 -16 46 -46v-17c0 -92 -37 -174 -99 -233c-61 -60 -147 -96 -245 -96zM312 -268c-25 0 -34 16 -30 42l19 134c4 34 18 38 44 38h62c32 0 40 -17 31 -42l-49 -135c-11 -30 -26 -37 -45 -37h-32z" />
    <glyph glyph-name="Gdotaccent" unicode="&#x120;" horiz-adv-x="749" 
d="M376 723c-55 0 -103 48 -103 103c0 57 48 104 103 104c56 0 104 -47 104 -104c0 -56 -49 -103 -104 -103zM378 -12c-196 0 -345 143 -345 337s151 337 345 337c100 0 184 -37 245 -96c22 -21 22 -47 -1 -67l-48 -44c-23 -20 -43 -17 -66 1c-33 28 -75 48 -124 48
c-95 0 -172 -75 -172 -180c0 -103 75 -178 176 -178c41 0 80 13 109 38c22 18 38 42 45 70h-111c-30 0 -46 16 -46 46v35c0 29 16 45 46 45h245c29 0 46 -16 46 -46v-17c0 -92 -37 -174 -99 -233c-61 -60 -147 -96 -245 -96z" />
    <glyph glyph-name="H" unicode="H" horiz-adv-x="734" 
d="M115 0c-30 0 -47 17 -47 47v556c0 30 17 47 47 47h82c30 0 47 -17 47 -47v-207h247v207c0 30 16 47 46 47h83c30 0 46 -17 46 -47v-556c0 -30 -16 -47 -46 -47h-83c-30 0 -46 17 -46 47v206h-247v-206c0 -30 -17 -47 -47 -47h-82z" />
    <glyph glyph-name="Hbar" unicode="&#x126;" horiz-adv-x="734" 
d="M683 558c25 0 38 -13 38 -38v-16c0 -25 -13 -38 -38 -38h-17v-419c0 -30 -16 -47 -46 -47h-83c-30 0 -46 17 -46 47v206h-247v-206c0 -30 -17 -47 -47 -47h-82c-30 0 -47 17 -47 47v419h-16c-25 0 -38 13 -38 38v16c0 25 13 38 38 38h16v45c0 30 17 47 47 47h82
c30 0 47 -17 47 -47v-45h247v45c0 30 16 47 46 47h83c30 0 46 -17 46 -47v-45h17zM491 396v70h-247v-70h247z" />
    <glyph glyph-name="I" unicode="I" horiz-adv-x="466" 
d="M86 0c-30 0 -47 16 -47 47v45c0 30 17 46 47 46h59v372h-59c-30 0 -47 16 -47 47v46c0 31 17 47 47 47h294c30 0 47 -16 47 -47v-46c0 -31 -17 -47 -47 -47h-59v-372h59c30 0 47 -16 47 -46v-45c0 -31 -17 -47 -47 -47h-294z" />
    <glyph glyph-name="IJ" unicode="&#x132;" horiz-adv-x="986" 
d="M86 0c-30 0 -47 16 -47 47v45c0 30 17 46 47 46h59v372h-59c-30 0 -47 16 -47 47v46c0 31 17 47 47 47h294c30 0 47 -16 47 -47v-46c0 -31 -17 -47 -47 -47h-59v-372h59c30 0 47 -16 47 -46v-45c0 -31 -17 -47 -47 -47h-294zM670 -13c-69 0 -145 24 -195 75
c-21 21 -21 43 -2 64l46 47c22 24 41 22 64 2c17 -16 41 -31 74 -31c56 0 90 35 90 102v264h-128c-30 0 -46 16 -46 46v47c0 31 16 47 46 47h257c30 0 47 -17 47 -47v-325c0 -203 -83 -291 -253 -291z" />
    <glyph glyph-name="Iacute" unicode="&#xcd;" horiz-adv-x="466" 
d="M110 740l-12 21c-17 26 -10 43 16 58l164 101c39 24 50 17 65 -10l29 -49c19 -34 11 -45 -27 -60l-175 -74c-32 -14 -46 -8 -60 13zM86 0c-30 0 -47 16 -47 47v45c0 30 17 46 47 46h59v372h-59c-30 0 -47 16 -47 47v46c0 31 17 47 47 47h294c30 0 47 -16 47 -47v-46
c0 -31 -17 -47 -47 -47h-59v-372h59c30 0 47 -16 47 -46v-45c0 -31 -17 -47 -47 -47h-294z" />
    <glyph glyph-name="Icircumflex" unicode="&#xce;" horiz-adv-x="466" 
d="M59 740l-11 20c-15 25 -10 42 18 59l144 83c19 10 29 10 48 0l144 -83c28 -17 34 -34 19 -59l-12 -20c-15 -24 -31 -28 -66 -11l-109 52l-109 -52c-35 -17 -51 -13 -66 11zM380 650c30 0 47 -16 47 -47v-46c0 -31 -17 -47 -47 -47h-59v-372h59c30 0 47 -16 47 -46v-45
c0 -31 -17 -47 -47 -47h-294c-30 0 -47 16 -47 47v45c0 30 17 46 47 46h59v372h-59c-30 0 -47 16 -47 47v46c0 31 17 47 47 47h294z" />
    <glyph glyph-name="Idieresis" unicode="&#xcf;" horiz-adv-x="466" 
d="M110 723c-54 0 -99 45 -99 98c0 54 45 100 99 100s99 -46 99 -100s-45 -98 -99 -98zM357 723c-53 0 -99 45 -99 98c0 54 46 100 99 100c54 0 99 -46 99 -100s-45 -98 -99 -98zM86 0c-30 0 -47 16 -47 47v45c0 30 17 46 47 46h59v372h-59c-30 0 -47 16 -47 47v46
c0 31 17 47 47 47h294c30 0 47 -16 47 -47v-46c0 -31 -17 -47 -47 -47h-59v-372h59c30 0 47 -16 47 -46v-45c0 -31 -17 -47 -47 -47h-294z" />
    <glyph glyph-name="Idotaccent" unicode="&#x130;" horiz-adv-x="466" 
d="M233 723c-55 0 -103 48 -103 103c0 57 48 104 103 104c56 0 104 -47 104 -104c0 -56 -49 -103 -104 -103zM86 0c-30 0 -47 16 -47 47v45c0 30 17 46 47 46h59v372h-59c-30 0 -47 16 -47 47v46c0 31 17 47 47 47h294c30 0 47 -16 47 -47v-46c0 -31 -17 -47 -47 -47h-59
v-372h59c30 0 47 -16 47 -46v-45c0 -31 -17 -47 -47 -47h-294z" />
    <glyph glyph-name="Igrave" unicode="&#xcc;" horiz-adv-x="466" 
d="M359 740c-13 -21 -28 -27 -60 -13l-174 74c-38 15 -46 26 -27 60l29 49c15 27 25 34 65 10l164 -101c26 -15 32 -32 16 -58zM86 0c-30 0 -47 16 -47 47v45c0 30 17 46 47 46h59v372h-59c-30 0 -47 16 -47 47v46c0 31 17 47 47 47h294c30 0 47 -16 47 -47v-46
c0 -31 -17 -47 -47 -47h-59v-372h59c30 0 47 -16 47 -46v-45c0 -31 -17 -47 -47 -47h-294z" />
    <glyph glyph-name="Imacron" unicode="&#x12a;" horiz-adv-x="466" 
d="M104 765c-30 0 -46 17 -46 47v25c0 30 16 46 46 46h260c30 0 46 -16 46 -46v-25c0 -30 -16 -47 -46 -47h-260zM86 0c-30 0 -47 16 -47 47v45c0 30 17 46 47 46h59v372h-59c-30 0 -47 16 -47 47v46c0 31 17 47 47 47h294c30 0 47 -16 47 -47v-46c0 -31 -17 -47 -47 -47
h-59v-372h59c30 0 47 -16 47 -46v-45c0 -31 -17 -47 -47 -47h-294z" />
    <glyph glyph-name="Iogonek" unicode="&#x12e;" horiz-adv-x="466" 
d="M380 510h-59v-372h59c30 0 47 -16 47 -46v-45c0 -31 -17 -47 -47 -47h-30c-35 -25 -57 -65 -57 -97c0 -44 27 -55 67 -43c22 6 39 9 52 -20l5 -11c11 -26 -1 -42 -27 -55c-98 -48 -214 0 -214 109c0 41 21 79 66 117h-156c-30 0 -47 16 -47 47v45c0 30 17 46 47 46h59
v372h-59c-30 0 -47 16 -47 47v46c0 31 17 47 47 47h294c30 0 47 -16 47 -47v-46c0 -31 -17 -47 -47 -47z" />
    <glyph glyph-name="Itilde" unicode="&#x128;" horiz-adv-x="466" 
d="M78 719c-28 0 -40 12 -40 36c0 100 54 154 116 154c79 0 113 -63 156 -63c13 0 23 11 23 28c0 24 12 35 40 35h26c27 0 39 -11 39 -35c0 -100 -53 -154 -115 -154c-81 0 -115 63 -152 63c-16 0 -25 -10 -27 -28c-4 -25 -13 -36 -40 -36h-26zM86 0c-30 0 -47 16 -47 47v45
c0 30 17 46 47 46h59v372h-59c-30 0 -47 16 -47 47v46c0 31 17 47 47 47h294c30 0 47 -16 47 -47v-46c0 -31 -17 -47 -47 -47h-59v-372h59c30 0 47 -16 47 -46v-45c0 -31 -17 -47 -47 -47h-294z" />
    <glyph glyph-name="J" unicode="J" horiz-adv-x="527" 
d="M211 -12c-69 0 -144 24 -194 75c-22 21 -22 42 -2 63l45 48c22 23 41 21 64 2c18 -17 41 -32 75 -32c57 0 90 35 90 98v268h-139c-30 0 -46 16 -46 46v47c0 31 16 47 46 47h267c31 0 47 -17 47 -47v-359c0 -169 -91 -256 -253 -256z" />
    <glyph glyph-name="uni00A40301" horiz-adv-x="527" 
d="M164 740l-12 21c-17 26 -10 43 16 58l164 101c39 24 50 17 65 -10l29 -49c19 -34 11 -45 -27 -60l-175 -74c-32 -14 -46 -8 -60 13zM211 -12c-69 0 -144 24 -194 75c-22 21 -22 42 -2 63l45 48c22 23 41 21 64 2c18 -17 41 -32 75 -32c57 0 90 35 90 98v268h-139
c-30 0 -46 16 -46 46v47c0 31 16 47 46 47h267c31 0 47 -17 47 -47v-359c0 -169 -91 -256 -253 -256z" />
    <glyph glyph-name="K" unicode="K" horiz-adv-x="661" 
d="M652 54c9 -30 -4 -41 -20 -50c-31 -15 -49 -16 -73 -16c-44 0 -83 13 -110 38c-30 28 -67 83 -93 120l-74 103l-38 -43v-159c0 -30 -17 -47 -47 -47h-82c-30 0 -47 17 -47 47v556c0 30 17 47 47 47h82c30 0 47 -17 47 -47v-204l173 205c22 28 37 46 68 46h113
c31 0 47 -20 24 -47l-213 -251l108 -152c31 -43 43 -53 53 -55c6 -1 14 -1 26 2c22 6 32 -2 39 -28z" />
    <glyph glyph-name="uni0136" unicode="&#x136;" horiz-adv-x="661" 
d="M652 54c9 -30 -4 -41 -20 -50c-31 -15 -49 -16 -73 -16c-44 0 -83 13 -110 38c-30 28 -67 83 -93 120l-74 103l-38 -43v-159c0 -30 -17 -47 -47 -47h-82c-30 0 -47 17 -47 47v556c0 30 17 47 47 47h82c30 0 47 -17 47 -47v-204l173 205c22 28 37 46 68 46h113
c31 0 47 -20 24 -47l-213 -251l108 -152c31 -43 43 -53 53 -55c6 -1 14 -1 26 2c22 6 32 -2 39 -28zM384 -54c32 0 40 -17 31 -42l-49 -135c-11 -30 -26 -37 -45 -37h-32c-25 0 -34 16 -30 42l19 134c4 34 18 38 44 38h62z" />
    <glyph glyph-name="L" unicode="L" horiz-adv-x="516" 
d="M115 0c-30 0 -47 16 -47 47v556c0 30 17 47 47 47h82c30 0 47 -17 47 -47v-460h214c31 0 47 -17 47 -47v-49c0 -31 -16 -47 -47 -47h-343z" />
    <glyph glyph-name="Lacute" unicode="&#x139;" horiz-adv-x="516" 
d="M17 740l-12 21c-17 26 -10 43 16 58l164 101c39 24 50 17 65 -10l29 -49c19 -34 11 -45 -27 -60l-175 -74c-32 -14 -46 -8 -60 13zM115 0c-30 0 -47 16 -47 47v556c0 30 17 47 47 47h82c30 0 47 -17 47 -47v-460h214c31 0 47 -17 47 -47v-49c0 -31 -16 -47 -47 -47h-343z
" />
    <glyph glyph-name="Lcaron" unicode="&#x13d;" horiz-adv-x="516" 
d="M115 0c-30 0 -47 16 -47 47v556c0 30 17 47 47 47h82c30 0 47 -17 47 -47v-460h214c31 0 47 -17 47 -47v-49c0 -31 -16 -47 -47 -47h-343zM350 427c-25 0 -34 16 -31 42l22 143c4 34 19 38 44 38h62c32 0 40 -18 31 -42l-52 -144c-10 -30 -25 -37 -44 -37h-32z" />
    <glyph glyph-name="uni013B" unicode="&#x13b;" horiz-adv-x="516" 
d="M115 0c-30 0 -47 16 -47 47v556c0 30 17 47 47 47h82c30 0 47 -17 47 -47v-460h214c31 0 47 -17 47 -47v-49c0 -31 -16 -47 -47 -47h-343zM221 -268c-25 0 -34 16 -30 42l19 134c4 34 18 38 44 38h62c32 0 40 -17 31 -42l-49 -135c-11 -30 -26 -37 -45 -37h-32z" />
    <glyph glyph-name="Ldot" unicode="&#x13f;" horiz-adv-x="516" 
d="M115 0c-30 0 -47 16 -47 47v556c0 30 17 47 47 47h82c30 0 47 -17 47 -47v-460h214c31 0 47 -17 47 -47v-49c0 -31 -16 -47 -47 -47h-343zM404 270c-50 0 -90 40 -90 89s40 89 90 89c49 0 89 -40 89 -89c0 -47 -41 -89 -89 -89z" />
    <glyph glyph-name="Lslash" unicode="&#x141;" horiz-adv-x="557" 
d="M499 143c30 0 47 -17 47 -47v-49c0 -31 -17 -47 -47 -47h-343c-30 0 -47 16 -47 47v139l-24 -11c-35 -16 -59 -1 -59 34v44c0 41 16 54 53 71l30 14v265c0 30 17 47 47 47h82c30 0 47 -17 47 -47v-185l82 37c35 16 59 1 59 -34v-44c0 -40 -16 -54 -52 -71l-89 -40v-123
h214z" />
    <glyph glyph-name="M" unicode="M" horiz-adv-x="852" 
d="M815 45c5 -30 -11 -45 -42 -45h-72c-30 0 -43 15 -47 45l-34 285l-119 -289c-13 -30 -34 -46 -64 -46h-10c-30 0 -51 16 -64 46l-119 290l-34 -286c-3 -30 -16 -45 -46 -45h-84c-31 0 -47 15 -43 45l89 565c4 29 23 45 53 45h10c30 0 47 -16 60 -45l183 -393l173 393
c13 29 31 45 60 45h11c29 0 48 -16 53 -45z" />
    <glyph glyph-name="N" unicode="N" horiz-adv-x="733" 
d="M618 650c30 0 46 -17 46 -47v-551c0 -41 -28 -57 -62 -57h-10c-32 0 -54 16 -79 46l-269 316v-310c0 -30 -17 -47 -47 -47h-82c-30 0 -47 17 -47 47v551c0 41 29 57 63 57h10c32 0 54 -16 79 -46l269 -316v310c0 30 17 47 47 47h82z" />
    <glyph glyph-name="Nacute" unicode="&#x143;" horiz-adv-x="733" 
d="M250 740l-12 21c-17 26 -10 43 16 58l164 101c39 24 50 17 65 -10l29 -49c19 -34 11 -45 -27 -60l-175 -74c-32 -14 -46 -8 -60 13zM618 650c30 0 46 -17 46 -47v-551c0 -41 -28 -57 -62 -57h-10c-32 0 -54 16 -79 46l-269 316v-310c0 -30 -17 -47 -47 -47h-82
c-30 0 -47 17 -47 47v551c0 41 29 57 63 57h10c32 0 54 -16 79 -46l269 -316v310c0 30 17 47 47 47h82z" />
    <glyph glyph-name="Ncaron" unicode="&#x147;" horiz-adv-x="733" 
d="M206 810c-29 16 -34 34 -19 59l12 20c14 24 31 27 66 11l109 -52l108 52c35 16 51 13 66 -11l12 -20c15 -25 9 -43 -19 -59l-143 -83c-19 -10 -30 -11 -49 0zM618 650c30 0 46 -17 46 -47v-551c0 -41 -28 -57 -62 -57h-10c-32 0 -54 16 -79 46l-269 316v-310
c0 -30 -17 -47 -47 -47h-82c-30 0 -47 17 -47 47v551c0 41 29 57 63 57h10c32 0 54 -16 79 -46l269 -316v310c0 30 17 47 47 47h82z" />
    <glyph glyph-name="uni0145" unicode="&#x145;" horiz-adv-x="733" 
d="M618 650c30 0 46 -17 46 -47v-551c0 -41 -28 -57 -62 -57h-10c-32 0 -54 16 -79 46l-269 316v-310c0 -30 -17 -47 -47 -47h-82c-30 0 -47 17 -47 47v551c0 41 29 57 63 57h10c32 0 54 -16 79 -46l269 -316v310c0 30 17 47 47 47h82zM399 -54c32 0 40 -17 31 -42l-49 -135
c-11 -30 -26 -37 -45 -37h-32c-25 0 -34 16 -30 42l19 134c4 34 18 38 44 38h62z" />
    <glyph glyph-name="Eng" unicode="&#x14a;" horiz-adv-x="734" 
d="M429 -246c-58 0 -144 19 -189 80c-19 25 -22 44 -2 64l45 47c22 24 46 18 65 -5c20 -25 45 -43 78 -43c51 0 82 39 82 87v63l-264 311v-311c0 -30 -17 -47 -47 -47h-82c-30 0 -47 17 -47 47v551c0 41 29 57 63 57h10c32 0 54 -16 79 -46l269 -317v311c0 30 17 47 47 47
h82c30 0 46 -17 46 -47v-621c0 -136 -105 -228 -235 -228z" />
    <glyph glyph-name="Ntilde" unicode="&#xd1;" horiz-adv-x="733" 
d="M207 719c-29 0 -42 12 -42 36c0 100 57 154 123 154c84 0 121 -63 166 -63c15 0 25 11 25 28c0 24 13 35 42 35h28c29 0 42 -11 42 -35c0 -100 -57 -154 -123 -154c-86 0 -122 63 -162 63c-16 0 -26 -10 -28 -28c-4 -25 -14 -36 -43 -36h-28zM618 650c30 0 46 -17 46 -47
v-551c0 -41 -28 -57 -62 -57h-10c-32 0 -54 16 -79 46l-269 316v-310c0 -30 -17 -47 -47 -47h-82c-30 0 -47 17 -47 47v551c0 41 29 57 63 57h10c32 0 54 -16 79 -46l269 -316v310c0 30 17 47 47 47h82z" />
    <glyph glyph-name="O" unicode="O" horiz-adv-x="785" 
d="M392 -12c-204 0 -359 144 -359 337s155 337 359 337c205 0 360 -144 360 -337c0 -192 -155 -337 -360 -337zM392 146c101 0 181 74 181 179s-80 179 -181 179c-100 0 -180 -74 -180 -179s80 -179 180 -179z" />
    <glyph glyph-name="Oacute" unicode="&#xd3;" horiz-adv-x="785" 
d="M268 740l-12 21c-17 26 -10 43 16 58l164 101c39 24 50 17 65 -10l29 -49c19 -34 11 -45 -27 -60l-175 -74c-32 -14 -46 -8 -60 13zM392 -12c-204 0 -359 144 -359 337s155 337 359 337c205 0 360 -144 360 -337c0 -192 -155 -337 -360 -337zM392 146
c101 0 181 74 181 179s-80 179 -181 179c-100 0 -180 -74 -180 -179s80 -179 180 -179z" />
    <glyph glyph-name="Ocircumflex" unicode="&#xd4;" horiz-adv-x="785" 
d="M218 740l-11 20c-15 25 -10 42 18 59l144 83c19 10 29 10 48 0l144 -83c28 -17 34 -34 19 -59l-12 -20c-15 -24 -31 -28 -66 -11l-109 52l-109 -52c-35 -17 -51 -13 -66 11zM392 662c205 0 360 -144 360 -337c0 -192 -155 -337 -360 -337c-204 0 -359 144 -359 337
s155 337 359 337zM392 146c101 0 181 74 181 179s-80 179 -181 179c-100 0 -180 -74 -180 -179s80 -179 180 -179z" />
    <glyph glyph-name="Odieresis" unicode="&#xd6;" horiz-adv-x="785" 
d="M268 723c-54 0 -99 45 -99 98c0 54 45 100 99 100s99 -46 99 -100s-45 -98 -99 -98zM515 723c-53 0 -99 45 -99 98c0 54 46 100 99 100c54 0 99 -46 99 -100s-45 -98 -99 -98zM392 -12c-204 0 -359 144 -359 337s155 337 359 337c205 0 360 -144 360 -337
c0 -192 -155 -337 -360 -337zM392 146c101 0 181 74 181 179s-80 179 -181 179c-100 0 -180 -74 -180 -179s80 -179 180 -179z" />
    <glyph glyph-name="Ograve" unicode="&#xd2;" horiz-adv-x="785" 
d="M518 740c-13 -21 -28 -27 -60 -13l-174 74c-38 15 -46 26 -27 60l28 49c16 27 26 34 66 10l164 -101c26 -15 32 -32 16 -58zM392 -12c-204 0 -359 144 -359 337s155 337 359 337c205 0 360 -144 360 -337c0 -192 -155 -337 -360 -337zM392 146c101 0 181 74 181 179
s-80 179 -181 179c-100 0 -180 -74 -180 -179s80 -179 180 -179z" />
    <glyph glyph-name="Ohungarumlaut" unicode="&#x150;" horiz-adv-x="785" 
d="M258 719c-33 0 -37 13 -22 43l58 112c18 35 34 41 58 41h80c24 0 26 -12 14 -29l-99 -137c-14 -20 -28 -30 -55 -30h-34zM457 719c-33 0 -37 13 -21 43l57 112c18 35 34 41 59 41h79c24 0 26 -12 14 -29l-98 -137c-15 -20 -28 -30 -55 -30h-35zM392 -12
c-204 0 -359 144 -359 337s155 337 359 337c205 0 360 -144 360 -337c0 -192 -155 -337 -360 -337zM392 146c101 0 181 74 181 179s-80 179 -181 179c-100 0 -180 -74 -180 -179s80 -179 180 -179z" />
    <glyph glyph-name="Omacron" unicode="&#x14c;" horiz-adv-x="785" 
d="M261 765c-31 0 -47 17 -47 47v25c0 30 16 46 47 46h263c30 0 46 -16 46 -46v-25c0 -30 -16 -47 -46 -47h-263zM392 -12c-204 0 -359 144 -359 337s155 337 359 337c205 0 360 -144 360 -337c0 -192 -155 -337 -360 -337zM392 146c101 0 181 74 181 179s-80 179 -181 179
c-100 0 -180 -74 -180 -179s80 -179 180 -179z" />
    <glyph glyph-name="uni01EA" unicode="&#x1ea;" horiz-adv-x="785" 
d="M525 10c-28 -25 -46 -59 -46 -88c0 -44 27 -55 67 -43c22 6 39 9 52 -20l5 -11c11 -26 -1 -42 -27 -55c-98 -48 -214 0 -214 109c0 30 11 58 35 86h-5c-204 0 -359 144 -359 337s155 337 359 337c205 0 360 -144 360 -337c0 -148 -92 -267 -227 -315zM212 325
c0 -105 80 -179 180 -179c101 0 181 74 181 179s-80 179 -181 179c-100 0 -180 -74 -180 -179z" />
    <glyph glyph-name="Oslash" unicode="&#xd8;" horiz-adv-x="785" 
d="M643 571c68 -60 109 -147 109 -246c0 -192 -155 -337 -360 -337c-44 0 -85 7 -123 19l-12 -18c-21 -31 -48 -46 -79 -46h-67c-30 0 -46 24 -28 52l57 86c-67 60 -107 146 -107 244c0 193 155 337 359 337c43 0 84 -6 121 -18l23 34c21 32 48 46 79 46h67
c30 0 46 -23 28 -52zM212 325c0 -36 10 -69 26 -96l181 273c-9 1 -18 2 -27 2c-100 0 -180 -74 -180 -179zM392 146c101 0 181 74 181 179c0 37 -10 71 -28 99l-182 -276c9 -1 19 -2 29 -2z" />
    <glyph glyph-name="Oslashacute" unicode="&#x1fe;" horiz-adv-x="785" 
d="M272 740l-12 21c-17 26 -10 43 16 58l164 101c39 24 50 17 65 -10l29 -49c19 -34 11 -45 -27 -60l-175 -74c-32 -14 -46 -8 -60 13zM643 571c68 -60 109 -147 109 -246c0 -192 -155 -337 -360 -337c-44 0 -85 7 -123 19l-12 -18c-21 -31 -48 -46 -79 -46h-67
c-30 0 -46 24 -28 52l57 86c-67 60 -107 146 -107 244c0 193 155 337 359 337c43 0 84 -6 121 -18l23 34c21 32 48 46 79 46h67c30 0 46 -23 28 -52zM212 325c0 -36 10 -69 26 -96l181 273c-9 1 -18 2 -27 2c-100 0 -180 -74 -180 -179zM392 146c101 0 181 74 181 179
c0 37 -10 71 -28 99l-182 -276c9 -1 19 -2 29 -2z" />
    <glyph glyph-name="Otilde" unicode="&#xd5;" horiz-adv-x="785" 
d="M226 719c-29 0 -42 12 -42 36c0 100 57 154 123 154c84 0 121 -63 166 -63c15 0 25 11 25 28c0 24 13 35 42 35h28c29 0 42 -11 42 -35c0 -100 -57 -154 -123 -154c-86 0 -122 63 -162 63c-16 0 -26 -10 -28 -28c-4 -25 -14 -36 -43 -36h-28zM392 -12
c-204 0 -359 144 -359 337s155 337 359 337c205 0 360 -144 360 -337c0 -192 -155 -337 -360 -337zM392 146c101 0 181 74 181 179s-80 179 -181 179c-100 0 -180 -74 -180 -179s80 -179 180 -179z" />
    <glyph glyph-name="OE" unicode="&#x152;" horiz-adv-x="1095" 
d="M385 -12c-197 0 -351 144 -351 337s154 337 351 337c87 0 160 -33 213 -83v26c0 30 17 45 47 45h365c31 0 47 -16 47 -47v-49c0 -30 -16 -47 -47 -47h-261v-114h190c30 0 47 -17 47 -47v-41c0 -30 -17 -47 -47 -47h-190v-115h264c30 0 47 -17 47 -47v-49
c0 -31 -17 -47 -47 -47h-368c-30 0 -47 15 -47 45v25c-53 -50 -126 -82 -213 -82zM393 146c101 0 181 74 181 179s-80 179 -181 179c-100 0 -180 -74 -180 -179s80 -179 180 -179z" />
    <glyph glyph-name="P" unicode="P" horiz-adv-x="643" 
d="M115 0c-30 0 -47 17 -47 47v556c0 30 17 47 47 47h248c167 0 257 -85 257 -217s-88 -216 -257 -216h-119v-170c0 -30 -17 -47 -47 -47h-82zM244 351h117c46 0 80 27 80 77c0 52 -34 79 -80 79h-117v-156z" />
    <glyph glyph-name="Thorn" unicode="&#xde;" horiz-adv-x="650" 
d="M115 0c-30 0 -47 17 -47 47v556c0 30 17 47 47 47h82c30 0 47 -17 47 -47v-56h119c167 0 257 -85 257 -217s-88 -219 -257 -217h-119v-66c0 -30 -17 -47 -47 -47h-82zM244 247h118c46 0 79 27 79 78s-38 78 -79 78h-118v-156z" />
    <glyph glyph-name="Q" unicode="Q" horiz-adv-x="786" 
d="M788 -57c15 -31 2 -46 -18 -61c-23 -18 -65 -30 -100 -30c-71 0 -126 38 -170 71c-40 31 -66 65 -108 65c-204 0 -359 144 -359 337s155 337 359 337c205 0 360 -144 360 -337c0 -120 -61 -222 -157 -281c25 -22 47 -41 81 -41c16 0 34 7 46 14c20 12 33 1 44 -24z
M212 325c0 -105 80 -179 180 -179c101 0 181 74 181 179s-80 179 -181 179c-100 0 -180 -74 -180 -179z" />
    <glyph glyph-name="R" unicode="R" horiz-adv-x="664" 
d="M641 56c11 -30 -4 -40 -21 -48c-30 -16 -56 -20 -80 -20c-67 0 -104 29 -144 101l-43 82c-18 35 -26 65 -78 65h-31v-189c0 -30 -17 -47 -47 -47h-82c-30 0 -47 17 -47 47v556c0 30 17 47 47 47h242c167 0 257 -81 257 -212c0 -92 -55 -154 -138 -183c9 -6 17 -17 25 -33
l27 -51c7 -13 15 -28 27 -31c6 -2 15 -1 27 3c22 8 31 -1 39 -27zM244 354h110c45 0 81 27 81 75c0 49 -36 78 -81 78h-110v-153z" />
    <glyph glyph-name="Racute" unicode="&#x154;" horiz-adv-x="664" 
d="M190 740l-12 21c-17 26 -10 43 16 58l164 101c39 24 50 17 65 -10l29 -49c19 -34 11 -45 -27 -60l-175 -74c-32 -14 -46 -8 -60 13zM641 56c11 -30 -4 -40 -21 -48c-30 -16 -56 -20 -80 -20c-67 0 -104 29 -144 101l-43 82c-18 35 -26 65 -78 65h-31v-189
c0 -30 -17 -47 -47 -47h-82c-30 0 -47 17 -47 47v556c0 30 17 47 47 47h242c167 0 257 -81 257 -212c0 -92 -55 -154 -138 -183c9 -6 17 -17 25 -33l27 -51c7 -13 15 -28 27 -31c6 -2 15 -1 27 3c22 8 31 -1 39 -27zM244 354h110c45 0 81 27 81 75c0 49 -36 78 -81 78h-110
v-153z" />
    <glyph glyph-name="Rcaron" unicode="&#x158;" horiz-adv-x="664" 
d="M146 810c-29 16 -34 34 -19 59l12 20c14 24 31 27 66 11l109 -52l108 52c35 16 51 13 66 -11l12 -20c15 -25 9 -43 -19 -59l-143 -83c-19 -10 -30 -11 -49 0zM641 56c11 -30 -4 -40 -21 -48c-30 -16 -56 -20 -80 -20c-67 0 -104 29 -144 101l-43 82c-18 35 -26 65 -78 65
h-31v-189c0 -30 -17 -47 -47 -47h-82c-30 0 -47 17 -47 47v556c0 30 17 47 47 47h242c167 0 257 -81 257 -212c0 -92 -55 -154 -138 -183c9 -6 17 -17 25 -33l27 -51c7 -13 15 -28 27 -31c6 -2 15 -1 27 3c22 8 31 -1 39 -27zM244 354h110c45 0 81 27 81 75
c0 49 -36 78 -81 78h-110v-153z" />
    <glyph glyph-name="uni0156" unicode="&#x156;" horiz-adv-x="664" 
d="M641 56c11 -30 -4 -40 -21 -48c-30 -16 -56 -20 -80 -20c-67 0 -104 29 -144 101l-43 82c-18 35 -26 65 -78 65h-31v-189c0 -30 -17 -47 -47 -47h-82c-30 0 -47 17 -47 47v556c0 30 17 47 47 47h242c167 0 257 -81 257 -212c0 -92 -55 -154 -138 -183c9 -6 17 -17 25 -33
l27 -51c7 -13 15 -28 27 -31c6 -2 15 -1 27 3c22 8 31 -1 39 -27zM244 354h110c45 0 81 27 81 75c0 49 -36 78 -81 78h-110v-153zM377 -54c32 0 40 -17 31 -42l-49 -135c-11 -30 -26 -37 -45 -37h-32c-25 0 -34 16 -30 42l19 134c4 34 18 38 44 38h62z" />
    <glyph glyph-name="S" unicode="S" horiz-adv-x="604" 
d="M307 -12c-106 0 -201 36 -261 93c-23 21 -29 44 -8 67l35 42c20 23 43 28 66 8c40 -34 106 -63 158 -63c57 0 93 21 93 53c0 46 -55 51 -128 73c-94 28 -208 80 -208 205c0 116 104 196 253 196c90 0 167 -30 220 -72c24 -20 32 -42 11 -66l-34 -42
c-19 -23 -41 -27 -66 -8c-32 25 -76 49 -128 49c-46 0 -76 -19 -76 -49c0 -37 47 -54 96 -69c111 -34 240 -70 240 -216c0 -131 -120 -201 -263 -201z" />
    <glyph glyph-name="Sacute" unicode="&#x15a;" horiz-adv-x="604" 
d="M183 740l-12 21c-17 26 -10 43 16 58l164 101c39 24 50 17 65 -10l29 -49c19 -34 11 -45 -27 -60l-175 -74c-32 -14 -46 -8 -60 13zM307 -12c-106 0 -201 36 -261 93c-23 21 -29 44 -8 67l35 42c20 23 43 28 66 8c40 -34 106 -63 158 -63c57 0 93 21 93 53
c0 46 -55 51 -128 73c-94 28 -208 80 -208 205c0 116 104 196 253 196c90 0 167 -30 220 -72c24 -20 32 -42 11 -66l-34 -42c-19 -23 -41 -27 -66 -8c-32 25 -76 49 -128 49c-46 0 -76 -19 -76 -49c0 -37 47 -54 96 -69c111 -34 240 -70 240 -216
c0 -131 -120 -201 -263 -201z" />
    <glyph glyph-name="Scaron" unicode="&#x160;" horiz-adv-x="604" 
d="M139 810c-29 16 -34 34 -19 59l12 20c14 24 31 27 66 11l109 -52l108 52c35 16 51 13 66 -11l12 -20c15 -25 9 -43 -19 -59l-143 -83c-19 -10 -30 -11 -49 0zM330 405c111 -34 240 -70 240 -216c0 -131 -120 -201 -263 -201c-106 0 -201 36 -261 93c-23 21 -29 44 -8 67
l35 42c20 23 43 28 66 8c40 -34 106 -63 158 -63c57 0 93 21 93 53c0 46 -55 51 -128 73c-94 28 -208 80 -208 205c0 116 104 196 253 196c90 0 167 -30 220 -72c24 -20 32 -42 11 -66l-34 -42c-19 -23 -41 -27 -66 -8c-32 25 -76 49 -128 49c-46 0 -76 -19 -76 -49
c0 -37 47 -54 96 -69z" />
    <glyph glyph-name="Scedilla" unicode="&#x15e;" horiz-adv-x="604" 
d="M570 189c0 -118 -97 -187 -221 -199l-7 -28c80 3 137 -41 137 -109c0 -79 -65 -133 -158 -133c-44 0 -94 13 -132 33c-26 13 -31 35 -17 58l5 7c17 28 33 22 55 12c20 -10 48 -18 72 -18c36 0 60 15 60 43c0 37 -41 55 -111 42c-13 -3 -26 -2 -21 14l24 80
c-85 9 -160 42 -210 90c-23 21 -29 44 -8 67l35 42c20 23 43 28 66 8c40 -34 106 -63 158 -63c57 0 93 21 93 53c0 46 -55 51 -128 73c-94 28 -208 80 -208 205c0 116 104 196 253 196c90 0 167 -30 220 -72c24 -20 32 -42 11 -66l-34 -42c-19 -23 -41 -27 -66 -8
c-32 25 -76 49 -128 49c-46 0 -76 -19 -76 -49c0 -37 47 -54 96 -69c111 -34 240 -70 240 -216z" />
    <glyph glyph-name="uni0218" unicode="&#x218;" horiz-adv-x="604" 
d="M307 -12c-106 0 -201 36 -261 93c-23 21 -29 44 -8 67l35 42c20 23 43 28 66 8c40 -34 106 -63 158 -63c57 0 93 21 93 53c0 46 -55 51 -128 73c-94 28 -208 80 -208 205c0 116 104 196 253 196c90 0 167 -30 220 -72c24 -20 32 -42 11 -66l-34 -42
c-19 -23 -41 -27 -66 -8c-32 25 -76 49 -128 49c-46 0 -76 -19 -76 -49c0 -37 47 -54 96 -69c111 -34 240 -70 240 -216c0 -131 -120 -201 -263 -201zM242 -268c-25 0 -34 16 -30 42l19 134c4 34 18 38 44 38h62c32 0 40 -17 31 -42l-49 -135c-11 -30 -26 -37 -45 -37h-32z
" />
    <glyph glyph-name="uni1E9E" unicode="&#x1e9e;" horiz-adv-x="688" 
d="M424 -12c-38 0 -80 6 -118 22c-28 14 -36 34 -24 61l20 47c12 26 32 33 56 25c12 -4 26 -7 36 -7c54 0 87 34 87 79c0 44 -35 77 -91 77h-28c-28 0 -44 12 -44 40v28c0 21 9 42 23 59l60 71c-18 20 -46 27 -70 27c-58 0 -94 -41 -94 -97v-373c0 -30 -16 -47 -46 -47h-83
c-30 0 -46 17 -46 47v352c0 155 114 263 277 263c86 0 175 -39 229 -99c19 -20 19 -41 1 -64l-87 -111l7 -1c109 -19 169 -99 169 -197c0 -110 -87 -202 -234 -202z" />
    <glyph glyph-name="T" unicode="T" horiz-adv-x="600" 
d="M259 0c-30 0 -47 17 -47 47v460h-154c-30 0 -47 17 -47 47v49c0 31 17 47 47 47h484c30 0 47 -16 47 -47v-49c0 -30 -17 -47 -47 -47h-154v-460c0 -30 -17 -47 -47 -47h-82z" />
    <glyph glyph-name="Tbar" unicode="&#x166;" horiz-adv-x="600" 
d="M542 650c30 0 47 -16 47 -47v-49c0 -30 -17 -47 -47 -47h-154v-171h60c30 0 47 -17 47 -47v-17c0 -30 -17 -46 -47 -46h-60v-179c0 -30 -17 -47 -47 -47h-82c-30 0 -47 17 -47 47v179h-61c-30 0 -47 16 -47 46v17c0 30 17 47 47 47h61v171h-154c-30 0 -47 17 -47 47v49
c0 31 17 47 47 47h484z" />
    <glyph glyph-name="Tcaron" unicode="&#x164;" horiz-adv-x="600" 
d="M132 810c-29 16 -34 34 -19 59l12 20c14 24 31 27 66 11l109 -52l108 52c35 16 51 13 66 -11l12 -20c15 -25 9 -43 -19 -59l-143 -83c-19 -10 -30 -11 -49 0zM542 650c30 0 47 -16 47 -47v-49c0 -30 -17 -47 -47 -47h-154v-460c0 -30 -17 -47 -47 -47h-82
c-30 0 -47 17 -47 47v460h-154c-30 0 -47 17 -47 47v49c0 31 17 47 47 47h484z" />
    <glyph glyph-name="uni0162" unicode="&#x162;" horiz-adv-x="600" 
d="M542 650c30 0 47 -16 47 -47v-49c0 -30 -17 -47 -47 -47h-154v-460c0 -29 -16 -46 -45 -47l-9 -38c80 3 137 -41 137 -109c0 -79 -65 -133 -158 -133c-44 0 -94 13 -132 33c-26 13 -31 35 -17 58l5 7c17 28 33 22 55 12c20 -10 48 -18 72 -18c36 0 60 15 60 43
c0 37 -41 55 -111 42c-13 -3 -26 -2 -21 14l27 89c-25 3 -39 20 -39 47v460h-154c-30 0 -47 17 -47 47v49c0 31 17 47 47 47h484z" />
    <glyph glyph-name="uni021A" unicode="&#x21a;" horiz-adv-x="600" 
d="M259 0c-30 0 -47 17 -47 47v460h-154c-30 0 -47 17 -47 47v49c0 31 17 47 47 47h484c30 0 47 -16 47 -47v-49c0 -30 -17 -47 -47 -47h-154v-460c0 -30 -17 -47 -47 -47h-82zM234 -268c-25 0 -34 16 -30 42l19 134c4 34 18 38 44 38h62c32 0 40 -17 31 -42l-49 -135
c-11 -30 -26 -37 -45 -37h-32z" />
    <glyph glyph-name="U" unicode="U" horiz-adv-x="734" 
d="M369 -12c-185 0 -309 123 -309 309v306c0 30 16 47 47 47h82c30 0 47 -17 47 -47v-316c0 -85 53 -143 133 -143s133 58 133 143v316c0 30 17 47 47 47h80c30 0 46 -17 46 -47v-306c0 -186 -123 -309 -306 -309z" />
    <glyph glyph-name="Uacute" unicode="&#xda;" horiz-adv-x="734" 
d="M243 740l-12 21c-17 26 -10 43 16 58l164 101c39 24 50 17 65 -10l29 -49c19 -34 11 -45 -27 -60l-175 -74c-32 -14 -46 -8 -60 13zM369 -12c-185 0 -309 123 -309 309v306c0 30 16 47 47 47h82c30 0 47 -17 47 -47v-316c0 -85 53 -143 133 -143s133 58 133 143v316
c0 30 17 47 47 47h80c30 0 46 -17 46 -47v-306c0 -186 -123 -309 -306 -309z" />
    <glyph glyph-name="Ucircumflex" unicode="&#xdb;" horiz-adv-x="734" 
d="M192 740l-11 20c-15 25 -10 42 18 59l144 83c19 10 29 10 48 0l144 -83c28 -17 34 -34 19 -59l-12 -20c-15 -24 -31 -28 -66 -11l-109 52l-109 -52c-35 -17 -51 -13 -66 11zM629 650c30 0 46 -17 46 -47v-306c0 -186 -123 -309 -306 -309c-185 0 -309 123 -309 309v306
c0 30 16 47 47 47h82c30 0 47 -17 47 -47v-316c0 -85 53 -143 133 -143s133 58 133 143v316c0 30 17 47 47 47h80z" />
    <glyph glyph-name="Udieresis" unicode="&#xdc;" horiz-adv-x="734" 
d="M243 723c-54 0 -99 45 -99 98c0 54 45 100 99 100s99 -46 99 -100s-45 -98 -99 -98zM490 723c-53 0 -99 45 -99 98c0 54 46 100 99 100c54 0 99 -46 99 -100s-45 -98 -99 -98zM369 -12c-185 0 -309 123 -309 309v306c0 30 16 47 47 47h82c30 0 47 -17 47 -47v-316
c0 -85 53 -143 133 -143s133 58 133 143v316c0 30 17 47 47 47h80c30 0 46 -17 46 -47v-306c0 -186 -123 -309 -306 -309z" />
    <glyph glyph-name="Ugrave" unicode="&#xd9;" horiz-adv-x="734" 
d="M493 740c-13 -21 -28 -27 -60 -13l-174 74c-38 15 -46 26 -27 60l28 49c16 27 26 34 66 10l164 -101c26 -15 32 -32 16 -58zM369 -12c-185 0 -309 123 -309 309v306c0 30 16 47 47 47h82c30 0 47 -17 47 -47v-316c0 -85 53 -143 133 -143s133 58 133 143v316
c0 30 17 47 47 47h80c30 0 46 -17 46 -47v-306c0 -186 -123 -309 -306 -309z" />
    <glyph glyph-name="Uhungarumlaut" unicode="&#x170;" horiz-adv-x="734" 
d="M233 719c-33 0 -37 13 -22 43l58 112c18 35 34 41 58 41h80c24 0 26 -12 14 -29l-99 -137c-14 -20 -28 -30 -55 -30h-34zM432 719c-33 0 -37 13 -21 43l57 112c18 35 34 41 59 41h79c24 0 26 -12 14 -29l-98 -137c-15 -20 -28 -30 -55 -30h-35zM369 -12
c-185 0 -309 123 -309 309v306c0 30 16 47 47 47h82c30 0 47 -17 47 -47v-316c0 -85 53 -143 133 -143s133 58 133 143v316c0 30 17 47 47 47h80c30 0 46 -17 46 -47v-306c0 -186 -123 -309 -306 -309z" />
    <glyph glyph-name="Umacron" unicode="&#x16a;" horiz-adv-x="734" 
d="M236 765c-31 0 -47 17 -47 47v25c0 30 16 46 47 46h263c30 0 46 -16 46 -46v-25c0 -30 -16 -47 -46 -47h-263zM369 -12c-185 0 -309 123 -309 309v306c0 30 16 47 47 47h82c30 0 47 -17 47 -47v-316c0 -85 53 -143 133 -143s133 58 133 143v316c0 30 17 47 47 47h80
c30 0 46 -17 46 -47v-306c0 -186 -123 -309 -306 -309z" />
    <glyph glyph-name="Uogonek" unicode="&#x172;" horiz-adv-x="734" 
d="M521 22c-27 -25 -44 -58 -44 -86c0 -44 27 -55 67 -43c22 6 39 9 52 -20l5 -11c11 -26 -1 -42 -27 -55c-98 -48 -214 0 -214 109c0 25 8 49 24 72h-15c-185 0 -309 123 -309 309v306c0 30 16 47 47 47h82c30 0 47 -17 47 -47v-316c0 -85 53 -143 133 -143s133 58 133 143
v316c0 30 17 47 47 47h80c30 0 46 -17 46 -47v-306c0 -128 -58 -226 -154 -275z" />
    <glyph glyph-name="Uring" unicode="&#x16e;" horiz-adv-x="734" 
d="M368 719c-71 0 -130 57 -130 128s59 128 130 128s130 -57 130 -128s-59 -128 -130 -128zM368 807c21 0 39 18 39 40s-18 40 -39 40s-39 -18 -39 -40s18 -40 39 -40zM369 -12c-185 0 -309 123 -309 309v306c0 30 16 47 47 47h82c30 0 47 -17 47 -47v-316
c0 -85 53 -143 133 -143s133 58 133 143v316c0 30 17 47 47 47h80c30 0 46 -17 46 -47v-306c0 -186 -123 -309 -306 -309z" />
    <glyph glyph-name="Utilde" unicode="&#x168;" horiz-adv-x="734" 
d="M201 719c-29 0 -42 12 -42 36c0 100 57 154 123 154c84 0 121 -63 166 -63c15 0 25 11 25 28c0 24 13 35 42 35h28c29 0 42 -11 42 -35c0 -100 -57 -154 -123 -154c-86 0 -122 63 -162 63c-16 0 -26 -10 -28 -28c-4 -25 -14 -36 -43 -36h-28zM369 -12
c-185 0 -309 123 -309 309v306c0 30 16 47 47 47h82c30 0 47 -17 47 -47v-316c0 -85 53 -143 133 -143s133 58 133 143v316c0 30 17 47 47 47h80c30 0 46 -17 46 -47v-306c0 -186 -123 -309 -306 -309z" />
    <glyph glyph-name="V" unicode="V" horiz-adv-x="698" 
d="M644 650c31 0 55 -15 40 -47l-268 -562c-16 -32 -32 -46 -61 -46h-11c-30 0 -46 14 -61 46l-269 562c-15 32 9 47 40 47h86c31 0 52 -14 65 -47l144 -354l150 354c14 32 34 47 65 47h80z" />
    <glyph glyph-name="W" unicode="W" horiz-adv-x="980" 
d="M926 650c31 0 52 -14 40 -47l-214 -562c-13 -33 -31 -46 -61 -46h-10c-30 0 -49 13 -61 46l-130 344l-130 -344c-12 -33 -31 -46 -61 -46h-10c-30 0 -48 13 -61 46l-214 562c-13 33 9 47 40 47h74c31 0 55 -12 66 -47l111 -340l116 346c10 31 33 46 63 46h11
c30 0 53 -15 63 -46l118 -350l112 344c11 35 35 47 66 47h72z" />
    <glyph glyph-name="Wacute" unicode="&#x1e82;" horiz-adv-x="980" 
d="M366 740l-12 21c-17 26 -10 43 16 58l164 101c39 24 50 17 65 -10l29 -49c19 -34 11 -45 -27 -60l-175 -74c-32 -14 -46 -8 -60 13zM926 650c31 0 52 -14 40 -47l-214 -562c-13 -33 -31 -46 -61 -46h-10c-30 0 -49 13 -61 46l-130 344l-130 -344c-12 -33 -31 -46 -61 -46
h-10c-30 0 -48 13 -61 46l-214 562c-13 33 9 47 40 47h74c31 0 55 -12 66 -47l111 -340l116 346c10 31 33 46 63 46h11c30 0 53 -15 63 -46l118 -350l112 344c11 35 35 47 66 47h72z" />
    <glyph glyph-name="Wcircumflex" unicode="&#x174;" horiz-adv-x="980" 
d="M315 740l-11 20c-15 25 -10 42 18 59l144 83c19 10 29 10 48 0l144 -83c28 -17 34 -34 19 -59l-12 -20c-15 -24 -31 -28 -66 -11l-109 52l-109 -52c-35 -17 -51 -13 -66 11zM926 650c31 0 52 -14 40 -47l-214 -562c-13 -33 -31 -46 -61 -46h-10c-30 0 -49 13 -61 46
l-130 344l-130 -344c-12 -33 -31 -46 -61 -46h-10c-30 0 -48 13 -61 46l-214 562c-13 33 9 47 40 47h74c31 0 55 -12 66 -47l111 -340l116 346c10 31 33 46 63 46h11c30 0 53 -15 63 -46l118 -350l112 344c11 35 35 47 66 47h72z" />
    <glyph glyph-name="Wdieresis" unicode="&#x1e84;" horiz-adv-x="980" 
d="M365 723c-54 0 -99 45 -99 98c0 54 45 100 99 100s99 -46 99 -100s-45 -98 -99 -98zM612 723c-53 0 -99 45 -99 98c0 54 46 100 99 100c54 0 99 -46 99 -100s-45 -98 -99 -98zM926 650c31 0 52 -14 40 -47l-214 -562c-13 -33 -31 -46 -61 -46h-10c-30 0 -49 13 -61 46
l-130 344l-130 -344c-12 -33 -31 -46 -61 -46h-10c-30 0 -48 13 -61 46l-214 562c-13 33 9 47 40 47h74c31 0 55 -12 66 -47l111 -340l116 346c10 31 33 46 63 46h11c30 0 53 -15 63 -46l118 -350l112 344c11 35 35 47 66 47h72z" />
    <glyph glyph-name="Wgrave" unicode="&#x1e80;" horiz-adv-x="980" 
d="M381 801c-38 15 -46 26 -27 60l28 49c16 27 26 34 66 10l164 -101c26 -15 32 -32 16 -58l-13 -21c-13 -21 -28 -27 -60 -13zM926 650c31 0 52 -14 40 -47l-214 -562c-13 -33 -31 -46 -61 -46h-10c-30 0 -49 13 -61 46l-130 344l-130 -344c-12 -33 -31 -46 -61 -46h-10
c-30 0 -48 13 -61 46l-214 562c-13 33 9 47 40 47h74c31 0 55 -12 66 -47l111 -340l116 346c10 31 33 46 63 46h11c30 0 53 -15 63 -46l118 -350l112 344c11 35 35 47 66 47h72z" />
    <glyph glyph-name="X" unicode="X" horiz-adv-x="662" 
d="M640 42c19 -27 4 -42 -27 -42h-123c-30 0 -41 15 -61 47l-99 156l-104 -156c-21 -31 -32 -47 -62 -47h-116c-30 0 -46 16 -26 42l205 285l-194 281c-18 27 -4 42 27 42h123c30 0 41 -15 61 -47l90 -140l93 140c21 33 32 47 62 47h115c31 0 46 -16 27 -42l-195 -272z" />
    <glyph glyph-name="Y" unicode="Y" horiz-adv-x="662" 
d="M601 650c30 0 52 -13 35 -42l-216 -369v-192c0 -30 -16 -47 -47 -47h-82c-30 0 -46 17 -46 47v190l-223 371c-17 28 4 42 34 42h85c30 0 52 -14 70 -47l123 -214l118 214c17 34 39 47 69 47h80z" />
    <glyph glyph-name="Yacute" unicode="&#xdd;" horiz-adv-x="662" 
d="M208 740l-12 21c-17 26 -10 43 16 58l164 101c39 24 50 17 65 -10l29 -49c19 -34 11 -45 -27 -60l-175 -74c-32 -14 -46 -8 -60 13zM601 650c30 0 52 -13 35 -42l-216 -369v-192c0 -30 -16 -47 -47 -47h-82c-30 0 -46 17 -46 47v190l-223 371c-17 28 4 42 34 42h85
c30 0 52 -14 70 -47l123 -214l118 214c17 34 39 47 69 47h80z" />
    <glyph glyph-name="Ycircumflex" unicode="&#x176;" horiz-adv-x="662" 
d="M158 740l-11 20c-15 25 -10 42 18 59l144 83c19 10 29 10 48 0l144 -83c28 -17 34 -34 19 -59l-12 -20c-15 -24 -31 -28 -66 -11l-109 52l-109 -52c-35 -17 -51 -13 -66 11zM601 650c30 0 52 -13 35 -42l-216 -369v-192c0 -30 -16 -47 -47 -47h-82c-30 0 -46 17 -46 47
v190l-223 371c-17 28 4 42 34 42h85c30 0 52 -14 70 -47l123 -214l118 214c17 34 39 47 69 47h80z" />
    <glyph glyph-name="Ydieresis" unicode="&#x178;" horiz-adv-x="662" 
d="M208 723c-54 0 -99 45 -99 98c0 54 45 100 99 100s99 -46 99 -100s-45 -98 -99 -98zM455 723c-53 0 -99 45 -99 98c0 54 46 100 99 100c54 0 99 -46 99 -100s-45 -98 -99 -98zM601 650c30 0 52 -13 35 -42l-216 -369v-192c0 -30 -16 -47 -47 -47h-82c-30 0 -46 17 -46 47
v190l-223 371c-17 28 4 42 34 42h85c30 0 52 -14 70 -47l123 -214l118 214c17 34 39 47 69 47h80z" />
    <glyph glyph-name="Ygrave" unicode="&#x1ef2;" horiz-adv-x="662" 
d="M224 801c-38 15 -46 26 -27 60l28 49c16 27 26 34 66 10l164 -101c26 -15 32 -32 16 -58l-13 -21c-13 -21 -28 -27 -60 -13zM601 650c30 0 52 -13 35 -42l-216 -369v-192c0 -30 -16 -47 -47 -47h-82c-30 0 -46 17 -46 47v190l-223 371c-17 28 4 42 34 42h85
c30 0 52 -14 70 -47l123 -214l118 214c17 34 39 47 69 47h80z" />
    <glyph glyph-name="uni1EF8" unicode="&#x1ef8;" horiz-adv-x="662" 
d="M166 719c-29 0 -42 12 -42 36c0 100 57 154 123 154c84 0 121 -63 166 -63c15 0 25 11 25 28c0 24 13 35 42 35h28c29 0 42 -11 42 -35c0 -100 -57 -154 -123 -154c-86 0 -122 63 -162 63c-16 0 -26 -10 -28 -28c-4 -25 -14 -36 -43 -36h-28zM601 650c30 0 52 -13 35 -42
l-216 -369v-192c0 -30 -16 -47 -47 -47h-82c-30 0 -46 17 -46 47v190l-223 371c-17 28 4 42 34 42h85c30 0 52 -14 70 -47l123 -214l118 214c17 34 39 47 69 47h80z" />
    <glyph glyph-name="Z" unicode="Z" horiz-adv-x="611" 
d="M538 140c30 0 47 -16 47 -46v-47c0 -31 -17 -47 -47 -47h-461c-30 0 -46 16 -46 45v53c0 27 18 45 32 62l287 350h-260c-31 0 -47 16 -47 47v46c0 31 16 47 47 47h433c30 0 47 -16 47 -45v-53c0 -27 -19 -44 -33 -62l-282 -350h283z" />
    <glyph glyph-name="Zacute" unicode="&#x179;" horiz-adv-x="611" 
d="M187 740l-12 21c-17 26 -10 43 16 58l164 101c39 24 50 17 65 -10l29 -49c19 -34 11 -45 -27 -60l-175 -74c-32 -14 -46 -8 -60 13zM538 140c30 0 47 -16 47 -46v-47c0 -31 -17 -47 -47 -47h-461c-30 0 -46 16 -46 45v53c0 27 18 45 32 62l287 350h-260
c-31 0 -47 16 -47 47v46c0 31 16 47 47 47h433c30 0 47 -16 47 -45v-53c0 -27 -19 -44 -33 -62l-282 -350h283z" />
    <glyph glyph-name="Zcaron" unicode="&#x17d;" horiz-adv-x="611" 
d="M144 810c-29 16 -34 34 -19 59l12 20c14 24 31 27 66 11l109 -52l108 52c35 16 51 13 66 -11l12 -20c15 -25 9 -43 -19 -59l-143 -83c-19 -10 -30 -11 -49 0zM538 140c30 0 47 -16 47 -46v-47c0 -31 -17 -47 -47 -47h-461c-30 0 -46 16 -46 45v53c0 27 18 45 32 62
l287 350h-260c-31 0 -47 16 -47 47v46c0 31 16 47 47 47h433c30 0 47 -16 47 -45v-53c0 -27 -19 -44 -33 -62l-282 -350h283z" />
    <glyph glyph-name="Zdotaccent" unicode="&#x17b;" horiz-adv-x="611" 
d="M311 723c-55 0 -103 48 -103 103c0 57 48 104 103 104c56 0 104 -47 104 -104c0 -56 -49 -103 -104 -103zM538 140c30 0 47 -16 47 -46v-47c0 -31 -17 -47 -47 -47h-461c-30 0 -46 16 -46 45v53c0 27 18 45 32 62l287 350h-260c-31 0 -47 16 -47 47v46c0 31 16 47 47 47
h433c30 0 47 -16 47 -45v-53c0 -27 -19 -44 -33 -62l-282 -350h283z" />
    <glyph glyph-name="G.ss01" horiz-adv-x="692" 
d="M379 -12c-197 0 -346 145 -346 337s151 337 346 337c90 0 165 -30 225 -78c24 -19 23 -46 0 -67l-47 -43c-22 -20 -42 -16 -67 0c-31 19 -66 32 -105 32c-98 0 -176 -78 -176 -182c0 -111 79 -186 180 -186c45 0 74 11 105 24v85h-78c-29 0 -46 17 -46 46v35
c0 29 17 46 46 46h186c29 0 46 -17 46 -47v-219c0 -30 -18 -47 -45 -61c-44 -25 -113 -59 -224 -59z" />
    <glyph glyph-name="Gbreve.ss01" horiz-adv-x="692" 
d="M367 719c-103 0 -180 74 -180 169c0 21 15 33 36 33h37c22 0 40 -10 40 -33c0 -44 29 -67 68 -67c40 0 69 23 69 67c0 23 18 33 39 33h36c21 0 36 -12 36 -33c0 -95 -77 -169 -181 -169zM379 -12c-197 0 -346 145 -346 337s151 337 346 337c90 0 165 -30 225 -78
c24 -19 23 -46 0 -67l-47 -43c-22 -20 -42 -16 -67 0c-31 19 -66 32 -105 32c-98 0 -176 -78 -176 -182c0 -111 79 -186 180 -186c45 0 74 11 105 24v85h-78c-29 0 -46 17 -46 46v35c0 29 17 46 46 46h186c29 0 46 -17 46 -47v-219c0 -30 -18 -47 -45 -61
c-44 -25 -113 -59 -224 -59z" />
    <glyph glyph-name="uni0122.ss01" horiz-adv-x="692" 
d="M379 -12c-197 0 -346 145 -346 337s151 337 346 337c90 0 165 -30 225 -78c24 -19 23 -46 0 -67l-47 -43c-22 -20 -42 -16 -67 0c-31 19 -66 32 -105 32c-98 0 -176 -78 -176 -182c0 -111 79 -186 180 -186c45 0 74 11 105 24v85h-78c-29 0 -46 17 -46 46v35
c0 29 17 46 46 46h186c29 0 46 -17 46 -47v-219c0 -30 -18 -47 -45 -61c-44 -25 -113 -59 -224 -59zM314 -268c-25 0 -34 16 -30 42l19 134c4 34 18 38 44 38h62c32 0 40 -17 31 -42l-49 -135c-11 -30 -26 -37 -45 -37h-32z" />
    <glyph glyph-name="Gdotaccent.ss01" horiz-adv-x="692" 
d="M366 723c-55 0 -103 48 -103 103c0 57 48 104 103 104c56 0 104 -47 104 -104c0 -56 -49 -103 -104 -103zM379 -12c-197 0 -346 145 -346 337s151 337 346 337c90 0 165 -30 225 -78c24 -19 23 -46 0 -67l-47 -43c-22 -20 -42 -16 -67 0c-31 19 -66 32 -105 32
c-98 0 -176 -78 -176 -182c0 -111 79 -186 180 -186c45 0 74 11 105 24v85h-78c-29 0 -46 17 -46 46v35c0 29 17 46 46 46h186c29 0 46 -17 46 -47v-219c0 -30 -18 -47 -45 -61c-44 -25 -113 -59 -224 -59z" />
    <glyph glyph-name="I.ss01" horiz-adv-x="312" 
d="M115 0c-30 0 -47 17 -47 47v556c0 30 17 47 47 47h82c30 0 47 -17 47 -47v-556c0 -30 -17 -47 -47 -47h-82z" />
    <glyph glyph-name="IJ.ss01" horiz-adv-x="804" 
d="M115 0c-30 0 -47 17 -47 47v556c0 30 17 47 47 47h82c30 0 47 -17 47 -47v-556c0 -30 -17 -47 -47 -47h-82zM489 -12c-69 0 -145 24 -195 75c-21 21 -21 43 -2 63l47 48c22 24 40 22 63 2c17 -16 41 -32 75 -32c57 0 90 35 90 98v361c0 30 16 47 46 47h83
c30 0 46 -17 46 -47v-359c0 -169 -91 -256 -253 -256z" />
    <glyph glyph-name="Iacute.ss01" horiz-adv-x="312" 
d="M25 740l-12 21c-17 26 -10 43 16 58l164 101c39 24 50 17 65 -10l29 -49c19 -34 11 -45 -27 -60l-175 -74c-32 -14 -46 -8 -60 13zM115 0c-30 0 -47 17 -47 47v556c0 30 17 47 47 47h82c30 0 47 -17 47 -47v-556c0 -30 -17 -47 -47 -47h-82z" />
    <glyph glyph-name="Icircumflex.ss01" horiz-adv-x="312" 
d="M324 819c28 -17 34 -34 19 -59l-12 -20c-15 -24 -31 -28 -66 -11l-109 52l-109 -52c-35 -17 -51 -13 -66 11l-11 20c-15 25 -10 42 18 59l144 83c19 10 29 10 48 0zM197 650c30 0 47 -17 47 -47v-556c0 -30 -17 -47 -47 -47h-82c-30 0 -47 17 -47 47v556
c0 30 17 47 47 47h82z" />
    <glyph glyph-name="Idieresis.ss01" horiz-adv-x="312" 
d="M32 723c-54 0 -99 45 -99 98c0 54 45 100 99 100s99 -46 99 -100s-45 -98 -99 -98zM279 723c-53 0 -99 45 -99 98c0 54 46 100 99 100c54 0 99 -46 99 -100s-45 -98 -99 -98zM115 0c-30 0 -47 17 -47 47v556c0 30 17 47 47 47h82c30 0 47 -17 47 -47v-556
c0 -30 -17 -47 -47 -47h-82z" />
    <glyph glyph-name="Idotaccent.ss01" horiz-adv-x="312" 
d="M155 723c-55 0 -103 48 -103 103c0 57 48 104 103 104c56 0 104 -47 104 -104c0 -56 -49 -103 -104 -103zM115 0c-30 0 -47 17 -47 47v556c0 30 17 47 47 47h82c30 0 47 -17 47 -47v-556c0 -30 -17 -47 -47 -47h-82z" />
    <glyph glyph-name="Igrave.ss01" horiz-adv-x="312" 
d="M287 741c-13 -21 -28 -27 -60 -13l-174 74c-38 15 -46 26 -27 60l29 49c15 27 25 34 65 10l164 -101c26 -15 32 -32 16 -58zM115 0c-30 0 -47 17 -47 47v556c0 30 17 47 47 47h82c30 0 47 -17 47 -47v-556c0 -30 -17 -47 -47 -47h-82z" />
    <glyph glyph-name="Imacron.ss01" horiz-adv-x="312" 
d="M25 765c-31 0 -47 17 -47 47v25c0 30 16 46 47 46h263c30 0 46 -16 46 -46v-25c0 -30 -16 -47 -46 -47h-263zM115 0c-30 0 -47 17 -47 47v556c0 30 17 47 47 47h82c30 0 47 -17 47 -47v-556c0 -30 -17 -47 -47 -47h-82z" />
    <glyph glyph-name="Iogonek.ss01" horiz-adv-x="312" 
d="M266 -171c11 -26 -1 -42 -27 -55c-98 -48 -214 0 -214 109c0 42 22 81 70 120c-17 6 -27 21 -27 44v556c0 30 17 47 47 47h82c30 0 47 -17 47 -47v-556c0 -29 -16 -46 -45 -47c-35 -25 -57 -65 -57 -97c0 -44 27 -55 67 -43c22 6 39 9 52 -20z" />
    <glyph glyph-name="Itilde.ss01" horiz-adv-x="312" 
d="M0 719c-28 0 -40 12 -40 36c0 100 54 154 116 154c79 0 113 -63 156 -63c13 0 23 11 23 28c0 24 12 35 40 35h26c27 0 39 -11 39 -35c0 -100 -53 -154 -115 -154c-81 0 -115 63 -152 63c-16 0 -25 -10 -27 -28c-4 -25 -13 -36 -40 -36h-26zM115 0c-30 0 -47 17 -47 47
v556c0 30 17 47 47 47h82c30 0 47 -17 47 -47v-556c0 -30 -17 -47 -47 -47h-82z" />
    <glyph glyph-name="J.ss01" horiz-adv-x="529" 
d="M213 -12c-69 0 -145 24 -195 75c-22 21 -22 43 -2 63l46 48c22 24 40 22 63 2c18 -16 41 -32 75 -32c57 0 90 35 90 98v361c0 30 17 47 47 47h82c30 0 47 -17 47 -47v-359c0 -169 -92 -256 -253 -256z" />
    <glyph glyph-name="uni00A40301.ss01" horiz-adv-x="529" 
d="M237 740l-12 21c-17 26 -10 43 16 58l164 101c39 24 50 17 65 -10l29 -49c19 -34 11 -45 -27 -60l-175 -74c-32 -14 -46 -8 -60 13zM213 -12c-69 0 -145 24 -195 75c-22 21 -22 43 -2 63l46 48c22 24 40 22 63 2c18 -16 41 -32 75 -32c57 0 90 35 90 98v361
c0 30 17 47 47 47h82c30 0 47 -17 47 -47v-359c0 -169 -92 -256 -253 -256z" />
    <glyph glyph-name="K.ss01" horiz-adv-x="657" 
d="M628 47c19 -30 7 -47 -24 -47h-111c-31 0 -47 16 -66 46l-139 210l-44 -50v-159c0 -30 -17 -47 -47 -47h-82c-30 0 -47 17 -47 47v556c0 30 17 47 47 47h82c30 0 47 -17 47 -47v-204l173 205c22 28 37 46 68 46h113c31 0 47 -20 24 -47l-206 -243z" />
    <glyph glyph-name="uni0136.ss01" horiz-adv-x="657" 
d="M628 47c19 -30 7 -47 -24 -47h-111c-31 0 -47 16 -66 46l-139 210l-44 -50v-159c0 -30 -17 -47 -47 -47h-82c-30 0 -47 17 -47 47v556c0 30 17 47 47 47h82c30 0 47 -17 47 -47v-204l173 205c22 28 37 46 68 46h113c31 0 47 -20 24 -47l-206 -243zM380 -54
c32 0 40 -17 31 -42l-49 -135c-11 -30 -26 -37 -45 -37h-32c-25 0 -34 16 -30 42l19 134c4 34 18 38 44 38h62z" />
    <glyph glyph-name="Q.ss01" horiz-adv-x="785" 
d="M606 51l96 -135c21 -30 6 -44 -24 -44h-119c-20 0 -38 7 -52 26l-68 93c-15 -2 -31 -3 -47 -3c-204 0 -359 144 -359 337s155 337 359 337c205 0 360 -144 360 -337c0 -116 -56 -214 -146 -274zM212 325c0 -105 80 -179 180 -179c101 0 181 74 181 179s-80 179 -181 179
c-100 0 -180 -74 -180 -179z" />
    <glyph glyph-name="R.ss01" horiz-adv-x="653" 
d="M488 260l118 -213c17 -31 -1 -47 -31 -47h-102c-31 0 -39 15 -56 46l-105 190h-68v-189c0 -30 -17 -47 -47 -47h-82c-30 0 -47 17 -47 47v556c0 30 17 47 47 47h242c167 0 257 -81 257 -212c0 -87 -50 -148 -126 -178zM244 507v-153h110c45 0 81 27 81 75
c0 49 -36 78 -81 78h-110z" />
    <glyph glyph-name="Racute.ss01" horiz-adv-x="653" 
d="M190 740l-12 21c-17 26 -10 43 16 58l164 101c39 24 50 17 65 -10l29 -49c19 -34 11 -45 -27 -60l-175 -74c-32 -14 -46 -8 -60 13zM488 260l118 -213c17 -31 -1 -47 -31 -47h-102c-31 0 -39 15 -56 46l-105 190h-68v-189c0 -30 -17 -47 -47 -47h-82c-30 0 -47 17 -47 47
v556c0 30 17 47 47 47h242c167 0 257 -81 257 -212c0 -87 -50 -148 -126 -178zM244 507v-153h110c45 0 81 27 81 75c0 49 -36 78 -81 78h-110z" />
    <glyph glyph-name="Rcaron.ss01" horiz-adv-x="653" 
d="M146 810c-29 16 -34 34 -19 59l12 20c14 24 31 27 66 11l109 -52l108 52c35 16 51 13 66 -11l12 -20c15 -25 9 -43 -19 -59l-143 -83c-19 -10 -30 -11 -49 0zM488 260l118 -213c17 -31 -1 -47 -31 -47h-102c-31 0 -39 15 -56 46l-105 190h-68v-189c0 -30 -17 -47 -47 -47
h-82c-30 0 -47 17 -47 47v556c0 30 17 47 47 47h242c167 0 257 -81 257 -212c0 -87 -50 -148 -126 -178zM244 507v-153h110c45 0 81 27 81 75c0 49 -36 78 -81 78h-110z" />
    <glyph glyph-name="uni0156.ss01" horiz-adv-x="653" 
d="M488 260l118 -213c17 -31 -1 -47 -31 -47h-102c-31 0 -39 15 -56 46l-105 190h-68v-189c0 -30 -17 -47 -47 -47h-82c-30 0 -47 17 -47 47v556c0 30 17 47 47 47h242c167 0 257 -81 257 -212c0 -87 -50 -148 -126 -178zM244 507v-153h110c45 0 81 27 81 75
c0 49 -36 78 -81 78h-110zM371 -54c32 0 40 -17 31 -42l-49 -135c-11 -30 -26 -37 -45 -37h-32c-25 0 -34 16 -30 42l19 134c4 34 18 38 44 38h62z" />
    <glyph glyph-name="a" unicode="a" horiz-adv-x="636" 
d="M533 510c29 0 46 -17 46 -46v-418c0 -29 -17 -46 -46 -46h-49c-29 0 -45 17 -45 46v9c-39 -41 -93 -68 -160 -68c-144 0 -250 115 -250 263s105 263 250 263c63 0 117 -23 160 -60v11c0 29 16 46 45 46h49zM307 135c59 0 107 46 107 115c0 70 -46 115 -107 115
c-63 0 -107 -50 -107 -115s44 -115 107 -115z" />
    <glyph glyph-name="aacute" unicode="&#xe1;" horiz-adv-x="636" 
d="M185 591l-19 35c-12 20 -6 36 17 49l175 102c21 13 35 7 44 -9l35 -65c11 -22 2 -37 -15 -44l-191 -76c-21 -8 -38 -6 -46 8zM533 510c29 0 46 -17 46 -46v-418c0 -29 -17 -46 -46 -46h-49c-29 0 -45 17 -45 46v9c-39 -41 -93 -68 -160 -68c-144 0 -250 115 -250 263
s105 263 250 263c63 0 117 -23 160 -60v11c0 29 16 46 45 46h49zM307 135c59 0 107 46 107 115c0 70 -46 115 -107 115c-63 0 -107 -50 -107 -115s44 -115 107 -115z" />
    <glyph glyph-name="abreve" unicode="&#x103;" horiz-adv-x="636" 
d="M312 578c-127 0 -178 100 -182 160c-1 22 9 40 39 40h31c32 0 39 -22 43 -40c7 -29 21 -66 69 -66s61 37 68 66c4 18 11 40 43 40h31c30 0 40 -18 39 -40c-4 -60 -55 -160 -181 -160zM533 510c29 0 46 -17 46 -46v-418c0 -29 -17 -46 -46 -46h-49c-29 0 -45 17 -45 46v9
c-39 -41 -93 -68 -160 -68c-144 0 -250 115 -250 263s105 263 250 263c63 0 117 -23 160 -60v11c0 29 16 46 45 46h49zM307 135c59 0 107 46 107 115c0 70 -46 115 -107 115c-63 0 -107 -50 -107 -115s44 -115 107 -115z" />
    <glyph glyph-name="acircumflex" unicode="&#xe2;" horiz-adv-x="636" 
d="M141 600l-14 22c-16 25 -14 42 15 59l142 81c19 11 29 10 48 0l142 -81c29 -17 31 -34 15 -59l-14 -22c-17 -25 -28 -28 -60 -12l-107 54l-107 -54c-32 -16 -44 -13 -60 12zM533 510c29 0 46 -17 46 -46v-418c0 -29 -17 -46 -46 -46h-49c-29 0 -45 17 -45 46v9
c-39 -41 -93 -68 -160 -68c-144 0 -250 115 -250 263s105 263 250 263c63 0 117 -23 160 -60v11c0 29 16 46 45 46h49zM307 135c59 0 107 46 107 115c0 70 -46 115 -107 115c-63 0 -107 -50 -107 -115s44 -115 107 -115z" />
    <glyph glyph-name="adieresis" unicode="&#xe4;" horiz-adv-x="636" 
d="M190 582c-56 0 -102 46 -102 102s46 101 102 101s100 -45 100 -101s-44 -102 -100 -102zM432 582c-56 0 -101 46 -101 102s45 101 101 101s101 -45 101 -101s-45 -102 -101 -102zM533 510c29 0 46 -17 46 -46v-418c0 -29 -17 -46 -46 -46h-49c-29 0 -45 17 -45 46v9
c-39 -41 -93 -68 -160 -68c-144 0 -250 115 -250 263s105 263 250 263c63 0 117 -23 160 -60v11c0 29 16 46 45 46h49zM307 135c59 0 107 46 107 115c0 70 -46 115 -107 115c-63 0 -107 -50 -107 -115s44 -115 107 -115z" />
    <glyph glyph-name="agrave" unicode="&#xe0;" horiz-adv-x="636" 
d="M192 659c-17 7 -26 22 -15 44l35 65c9 16 23 22 44 9l175 -102c23 -13 29 -29 18 -49l-19 -35c-9 -14 -26 -16 -47 -8zM533 510c29 0 46 -17 46 -46v-418c0 -29 -17 -46 -46 -46h-49c-29 0 -45 17 -45 46v9c-39 -41 -93 -68 -160 -68c-144 0 -250 115 -250 263
s105 263 250 263c63 0 117 -23 160 -60v11c0 29 16 46 45 46h49zM307 135c59 0 107 46 107 115c0 70 -46 115 -107 115c-63 0 -107 -50 -107 -115s44 -115 107 -115z" />
    <glyph glyph-name="amacron" unicode="&#x101;" horiz-adv-x="636" 
d="M185 618c-30 0 -47 16 -47 47v16c0 30 17 46 47 46h251c30 0 46 -16 46 -46v-16c0 -31 -16 -47 -46 -47h-251zM533 510c29 0 46 -17 46 -46v-418c0 -29 -17 -46 -46 -46h-49c-29 0 -45 17 -45 46v9c-39 -41 -93 -68 -160 -68c-144 0 -250 115 -250 263s105 263 250 263
c63 0 117 -23 160 -60v11c0 29 16 46 45 46h49zM307 135c59 0 107 46 107 115c0 70 -46 115 -107 115c-63 0 -107 -50 -107 -115s44 -115 107 -115z" />
    <glyph glyph-name="aogonek" unicode="&#x105;" horiz-adv-x="636" 
d="M602 -171c11 -26 -1 -42 -27 -55c-98 -48 -214 0 -214 109c0 47 27 89 87 133c-6 7 -9 18 -9 30v9c-39 -41 -93 -68 -160 -68c-144 0 -250 115 -250 263s105 263 250 263c63 0 117 -23 160 -60v11c0 29 16 46 45 46h49c29 0 46 -17 46 -46v-418c0 -28 -16 -45 -44 -46
c-35 -25 -57 -65 -57 -97c0 -44 27 -55 67 -43c22 6 39 9 52 -20zM307 135c59 0 107 46 107 115c0 70 -46 115 -107 115c-63 0 -107 -50 -107 -115s44 -115 107 -115z" />
    <glyph glyph-name="aring" unicode="&#xe5;" horiz-adv-x="636" 
d="M310 578c-75 0 -133 58 -133 129s58 129 133 129s134 -58 134 -129s-60 -129 -134 -129zM310 745c-22 0 -38 -17 -38 -38s16 -38 38 -38c23 0 39 17 39 38s-16 38 -39 38zM533 510c29 0 46 -17 46 -46v-418c0 -29 -17 -46 -46 -46h-49c-29 0 -45 17 -45 46v9
c-39 -41 -93 -68 -160 -68c-144 0 -250 115 -250 263s105 263 250 263c63 0 117 -23 160 -60v11c0 29 16 46 45 46h49zM307 135c59 0 107 46 107 115c0 70 -46 115 -107 115c-63 0 -107 -50 -107 -115s44 -115 107 -115z" />
    <glyph glyph-name="atilde" unicode="&#xe3;" horiz-adv-x="636" 
d="M145 578c-27 0 -40 8 -40 28c0 92 50 143 112 143c72 0 119 -55 168 -55c21 0 27 10 27 27c0 20 11 28 39 28h27c27 0 39 -8 39 -28c0 -93 -48 -143 -110 -143c-73 0 -122 55 -169 55c-22 0 -26 -11 -26 -27c0 -20 -13 -28 -41 -28h-26zM533 510c29 0 46 -17 46 -46v-418
c0 -29 -17 -46 -46 -46h-49c-29 0 -45 17 -45 46v9c-39 -41 -93 -68 -160 -68c-144 0 -250 115 -250 263s105 263 250 263c63 0 117 -23 160 -60v11c0 29 16 46 45 46h49zM307 135c59 0 107 46 107 115c0 70 -46 115 -107 115c-63 0 -107 -50 -107 -115s44 -115 107 -115z
" />
    <glyph glyph-name="ae" unicode="&#xe6;" horiz-adv-x="912" 
d="M223 -13c-119 0 -197 64 -197 159c0 103 85 171 215 171c40 0 79 -9 115 -22v19c-1 50 -34 75 -92 75c-49 0 -87 -15 -111 -29c-23 -12 -45 -10 -59 18l-11 23c-16 32 -9 51 14 65c48 30 119 47 177 47c68 0 133 -17 177 -59c45 37 105 59 173 59c80 0 146 -28 189 -71
c46 -46 73 -112 73 -181c0 -35 -9 -48 -46 -48h-318c8 -66 64 -103 130 -103c36 0 71 11 107 36c18 14 33 21 52 1l34 -35c22 -21 14 -38 2 -51c-45 -48 -137 -74 -215 -74c-83 0 -155 30 -204 81c-50 -52 -126 -81 -205 -81zM523 308h195c-4 24 -14 44 -28 58
c-18 18 -41 28 -70 28c-53 0 -89 -34 -97 -86zM267 94c54 0 92 42 92 80v22c-20 10 -55 22 -90 22c-49 0 -81 -26 -81 -63s31 -61 79 -61z" />
    <glyph glyph-name="aeacute" unicode="&#x1fd;" horiz-adv-x="912" 
d="M324 591l-19 35c-12 20 -6 36 17 49l175 102c21 13 35 7 44 -9l35 -65c11 -22 2 -37 -15 -44l-191 -76c-21 -8 -38 -6 -46 8zM223 -13c-119 0 -197 64 -197 159c0 103 85 171 215 171c40 0 79 -9 115 -22v19c-1 50 -34 75 -92 75c-49 0 -87 -15 -111 -29
c-23 -12 -45 -10 -59 18l-11 23c-16 32 -9 51 14 65c48 30 119 47 177 47c68 0 133 -17 177 -59c45 37 105 59 173 59c80 0 146 -28 189 -71c46 -46 73 -112 73 -181c0 -35 -9 -48 -46 -48h-318c8 -66 64 -103 130 -103c36 0 71 11 107 36c18 14 33 21 52 1l34 -35
c22 -21 14 -38 2 -51c-45 -48 -137 -74 -215 -74c-83 0 -155 30 -204 81c-50 -52 -126 -81 -205 -81zM523 308h195c-4 24 -14 44 -28 58c-18 18 -41 28 -70 28c-53 0 -89 -34 -97 -86zM267 94c54 0 92 42 92 80v22c-20 10 -55 22 -90 22c-49 0 -81 -26 -81 -63
s31 -61 79 -61z" />
    <glyph glyph-name="b" unicode="b" horiz-adv-x="638" 
d="M359 513c145 0 249 -115 249 -263s-105 -263 -249 -263c-70 0 -125 29 -165 73v-14c0 -29 -16 -46 -45 -46h-45c-29 0 -45 17 -45 46v606c0 29 16 41 45 46l82 15c30 6 46 -16 46 -46v-189c36 22 79 35 127 35zM330 135c64 0 108 50 108 115s-44 115 -108 115
c-60 0 -107 -45 -107 -115c1 -70 47 -115 107 -115z" />
    <glyph glyph-name="c" unicode="c" horiz-adv-x="531" 
d="M302 -13c-157 0 -273 111 -273 263s116 263 273 263c85 0 150 -31 198 -78c13 -14 21 -30 -1 -52l-53 -53c-14 -13 -29 -19 -52 2c-25 23 -55 33 -85 33c-64 0 -109 -49 -109 -115s44 -116 109 -116c30 0 60 11 85 34c23 21 38 15 52 2l53 -53c22 -22 14 -38 1 -52
c-48 -47 -113 -78 -198 -78z" />
    <glyph glyph-name="cacute" unicode="&#x107;" horiz-adv-x="531" 
d="M175 591l-19 35c-12 20 -6 36 17 49l175 102c21 13 35 7 44 -9l35 -65c11 -22 2 -37 -15 -44l-191 -76c-21 -8 -38 -6 -46 8zM302 -13c-157 0 -273 111 -273 263s116 263 273 263c85 0 150 -31 198 -78c13 -14 21 -30 -1 -52l-53 -53c-14 -13 -29 -19 -52 2
c-25 23 -55 33 -85 33c-64 0 -109 -49 -109 -115s44 -116 109 -116c30 0 60 11 85 34c23 21 38 15 52 2l53 -53c22 -22 14 -38 1 -52c-48 -47 -113 -78 -198 -78z" />
    <glyph glyph-name="ccaron" unicode="&#x10d;" horiz-adv-x="531" 
d="M134 668c-29 16 -38 30 -17 59l16 21c17 24 28 29 60 13l107 -54l107 54c32 16 42 11 60 -13l16 -21c20 -29 12 -43 -17 -59l-142 -82c-19 -12 -29 -11 -48 0zM446 170l53 -53c22 -22 14 -38 1 -52c-48 -47 -113 -78 -198 -78c-157 0 -273 111 -273 263s116 263 273 263
c85 0 150 -31 198 -78c13 -14 21 -30 -1 -52l-53 -53c-14 -13 -29 -19 -52 2c-25 23 -55 33 -85 33c-64 0 -109 -49 -109 -115s44 -116 109 -116c30 0 60 11 85 34c23 21 38 15 52 2z" />
    <glyph glyph-name="ccedilla" unicode="&#xe7;" horiz-adv-x="531" 
d="M446 170l53 -53c22 -22 14 -38 1 -52c-42 -41 -97 -70 -168 -77l-9 -37c80 3 137 -41 137 -109c0 -79 -65 -133 -158 -133c-44 0 -94 13 -132 33c-26 13 -31 35 -17 58l5 7c17 28 33 22 55 12c20 -10 48 -18 72 -18c36 0 60 15 60 43c0 37 -41 55 -111 42
c-13 -3 -26 -2 -21 14c10 31 19 62 28 93c-125 25 -212 125 -212 257c0 152 116 263 273 263c85 0 150 -31 198 -78c13 -14 21 -30 -1 -52l-53 -53c-14 -13 -29 -19 -52 2c-25 23 -55 33 -85 33c-64 0 -109 -49 -109 -115s44 -116 109 -116c30 0 60 11 85 34
c23 21 38 15 52 2z" />
    <glyph glyph-name="cdotaccent" unicode="&#x10b;" horiz-adv-x="531" 
d="M300 582c-57 0 -104 47 -104 104c0 58 47 104 104 104c58 0 104 -46 104 -104c0 -57 -46 -104 -104 -104zM302 -13c-157 0 -273 111 -273 263s116 263 273 263c85 0 150 -31 198 -78c13 -14 21 -30 -1 -52l-53 -53c-14 -13 -29 -19 -52 2c-25 23 -55 33 -85 33
c-64 0 -109 -49 -109 -115s44 -116 109 -116c30 0 60 11 85 34c23 21 38 15 52 2l53 -53c22 -22 14 -38 1 -52c-48 -47 -113 -78 -198 -78z" />
    <glyph glyph-name="d" unicode="d" horiz-adv-x="669" 
d="M661 54c10 -29 -1 -38 -17 -47c-30 -15 -63 -20 -86 -20c-54 0 -95 26 -113 75c-40 -45 -95 -75 -166 -75c-144 0 -250 115 -250 263s105 263 250 263c47 0 90 -13 126 -35v174c0 29 16 41 46 46l81 15c31 4 47 -16 47 -46v-516c0 -10 1 -19 11 -19c7 0 15 5 24 5
c16 2 25 -8 31 -28zM307 135c59 0 107 46 107 115c0 70 -46 115 -107 115c-63 0 -107 -50 -107 -115s44 -115 107 -115z" />
    <glyph glyph-name="eth" unicode="&#xf0;" horiz-adv-x="557" 
d="M386 554c90 -112 141 -214 141 -321c-3 -144 -106 -246 -251 -246c-144 0 -247 95 -247 231c0 137 102 229 223 229c13 0 27 -1 41 -3c-14 20 -30 39 -48 59l-80 -29c-24 -8 -41 1 -50 24l-4 10c-8 22 0 41 24 49l41 15l-36 32c-15 12 -24 30 0 50l60 52
c23 20 37 11 50 -2c26 -27 51 -53 74 -78l73 27c24 8 41 -1 50 -23l3 -11c9 -22 0 -41 -23 -50zM278 118c54 0 93 42 93 100c0 56 -39 98 -93 98s-93 -42 -93 -99s39 -99 93 -99z" />
    <glyph glyph-name="dcaron" unicode="&#x10f;" horiz-adv-x="710" 
d="M645 109l16 -55c10 -29 -1 -38 -17 -47c-30 -15 -63 -20 -86 -20c-53 0 -95 26 -115 73c-39 -44 -94 -73 -164 -73c-144 0 -250 115 -250 263s105 263 250 263c47 0 90 -13 126 -35v174c0 29 16 41 46 46l81 15c31 4 47 -16 47 -46v-516c0 -10 1 -19 11 -19
c7 0 15 5 24 5c16 1 25 -8 31 -28zM747 714c32 0 40 -18 31 -42l-52 -144c-11 -30 -25 -37 -44 -37h-32c-25 0 -34 16 -31 42l22 144c4 33 19 37 44 37h62zM307 135c59 0 107 46 107 115c0 70 -46 115 -107 115c-63 0 -107 -50 -107 -115s44 -115 107 -115z" />
    <glyph glyph-name="dcroat" unicode="&#x111;" horiz-adv-x="669" 
d="M661 54c10 -29 -1 -38 -17 -47c-30 -15 -63 -20 -86 -20c-53 0 -95 26 -115 73c-39 -44 -94 -73 -164 -73c-144 0 -250 115 -250 263s105 263 250 263c47 0 90 -13 126 -35v76h-101c-29 0 -45 10 -45 35v5c0 27 16 37 45 37h101v21c0 29 16 41 46 46l81 15
c31 4 47 -16 47 -46v-36h39c29 0 44 -10 44 -37v-5c0 -25 -15 -35 -44 -35h-39v-403c0 -10 1 -19 11 -19c7 0 15 5 24 5c16 2 25 -8 31 -28zM307 135c59 0 107 46 107 115c0 70 -46 115 -107 115c-63 0 -107 -50 -107 -115s44 -115 107 -115z" />
    <glyph glyph-name="e" unicode="e" horiz-adv-x="587" 
d="M197 213c8 -67 64 -103 130 -103c36 0 71 11 107 36c18 14 33 21 52 1l34 -35c22 -21 14 -38 2 -51c-45 -48 -136 -74 -215 -74c-160 0 -277 108 -277 264c0 151 112 262 269 262c80 0 146 -28 189 -71c46 -46 73 -112 73 -181c0 -35 -9 -48 -46 -48h-318zM295 394
c-53 0 -90 -33 -97 -86h195c-4 24 -14 44 -28 58c-18 18 -41 28 -70 28z" />
    <glyph glyph-name="eacute" unicode="&#xe9;" horiz-adv-x="587" 
d="M175 591l-19 35c-12 20 -6 36 17 49l175 102c21 13 35 7 44 -9l35 -65c11 -22 2 -37 -15 -44l-191 -76c-21 -8 -38 -6 -46 8zM197 213c8 -67 64 -103 130 -103c36 0 71 11 107 36c18 14 33 21 52 1l34 -35c22 -21 14 -38 2 -51c-45 -48 -136 -74 -215 -74
c-160 0 -277 108 -277 264c0 151 112 262 269 262c80 0 146 -28 189 -71c46 -46 73 -112 73 -181c0 -35 -9 -48 -46 -48h-318zM295 394c-53 0 -90 -33 -97 -86h195c-4 24 -14 44 -28 58c-18 18 -41 28 -70 28z" />
    <glyph glyph-name="ecaron" unicode="&#x11b;" horiz-adv-x="587" 
d="M135 668c-29 16 -38 30 -17 59l16 21c17 24 28 29 60 13l107 -54l107 54c32 16 42 11 60 -13l16 -21c20 -29 12 -43 -17 -59l-142 -82c-19 -12 -29 -11 -48 0zM197 213c8 -67 64 -103 130 -103c36 0 71 11 107 36c18 14 33 21 52 1l34 -35c22 -21 14 -38 2 -51
c-45 -48 -136 -74 -215 -74c-160 0 -277 108 -277 264c0 151 112 262 269 262c80 0 146 -28 189 -71c46 -46 73 -112 73 -181c0 -35 -9 -48 -46 -48h-318zM295 394c-53 0 -90 -33 -97 -86h195c-4 24 -14 44 -28 58c-18 18 -41 28 -70 28z" />
    <glyph glyph-name="ecircumflex" unicode="&#xea;" horiz-adv-x="587" 
d="M131 600l-14 22c-16 25 -14 42 15 59l142 81c19 11 29 10 48 0l142 -81c29 -17 31 -34 15 -59l-14 -22c-17 -25 -28 -28 -60 -12l-107 54l-107 -54c-32 -16 -44 -13 -60 12zM197 213c8 -67 64 -103 130 -103c36 0 71 11 107 36c18 14 33 21 52 1l34 -35
c22 -21 14 -38 2 -51c-45 -48 -136 -74 -215 -74c-160 0 -277 108 -277 264c0 151 112 262 269 262c80 0 146 -28 189 -71c46 -46 73 -112 73 -181c0 -35 -9 -48 -46 -48h-318zM295 394c-53 0 -90 -33 -97 -86h195c-4 24 -14 44 -28 58c-18 18 -41 28 -70 28z" />
    <glyph glyph-name="edieresis" unicode="&#xeb;" horiz-adv-x="587" 
d="M180 582c-56 0 -102 46 -102 102s46 101 102 101s100 -45 100 -101s-44 -102 -100 -102zM422 582c-56 0 -101 46 -101 102s45 101 101 101s101 -45 101 -101s-45 -102 -101 -102zM197 213c8 -67 64 -103 130 -103c36 0 71 11 107 36c18 14 33 21 52 1l34 -35
c22 -21 14 -38 2 -51c-45 -48 -136 -74 -215 -74c-160 0 -277 108 -277 264c0 151 112 262 269 262c80 0 146 -28 189 -71c46 -46 73 -112 73 -181c0 -35 -9 -48 -46 -48h-318zM295 394c-53 0 -90 -33 -97 -86h195c-4 24 -14 44 -28 58c-18 18 -41 28 -70 28z" />
    <glyph glyph-name="edotaccent" unicode="&#x117;" horiz-adv-x="587" 
d="M301 582c-57 0 -104 47 -104 104c0 58 47 104 104 104c58 0 104 -46 104 -104c0 -57 -46 -104 -104 -104zM197 213c8 -67 64 -103 130 -103c36 0 71 11 107 36c18 14 33 21 52 1l34 -35c22 -21 14 -38 2 -51c-45 -48 -136 -74 -215 -74c-160 0 -277 108 -277 264
c0 151 112 262 269 262c80 0 146 -28 189 -71c46 -46 73 -112 73 -181c0 -35 -9 -48 -46 -48h-318zM295 394c-53 0 -90 -33 -97 -86h195c-4 24 -14 44 -28 58c-18 18 -41 28 -70 28z" />
    <glyph glyph-name="egrave" unicode="&#xe8;" horiz-adv-x="587" 
d="M182 659c-17 7 -26 22 -15 44l35 65c9 16 23 22 44 9l175 -102c23 -13 29 -29 18 -49l-19 -35c-9 -14 -26 -16 -47 -8zM197 213c8 -67 64 -103 130 -103c36 0 71 11 107 36c18 14 33 21 52 1l34 -35c22 -21 14 -38 2 -51c-45 -48 -136 -74 -215 -74
c-160 0 -277 108 -277 264c0 151 112 262 269 262c80 0 146 -28 189 -71c46 -46 73 -112 73 -181c0 -35 -9 -48 -46 -48h-318zM295 394c-53 0 -90 -33 -97 -86h195c-4 24 -14 44 -28 58c-18 18 -41 28 -70 28z" />
    <glyph glyph-name="emacron" unicode="&#x113;" horiz-adv-x="587" 
d="M176 618c-30 0 -47 16 -47 47v16c0 30 17 46 47 46h251c30 0 46 -16 46 -46v-16c0 -31 -16 -47 -46 -47h-251zM197 213c8 -67 64 -103 130 -103c36 0 71 11 107 36c18 14 33 21 52 1l34 -35c22 -21 14 -38 2 -51c-45 -48 -136 -74 -215 -74c-160 0 -277 108 -277 264
c0 151 112 262 269 262c80 0 146 -28 189 -71c46 -46 73 -112 73 -181c0 -35 -9 -48 -46 -48h-318zM295 394c-53 0 -90 -33 -97 -86h195c-4 24 -14 44 -28 58c-18 18 -41 28 -70 28z" />
    <glyph glyph-name="eogonek" unicode="&#x119;" horiz-adv-x="587" 
d="M197 213c8 -67 64 -103 130 -103c36 0 71 11 107 36c18 14 33 21 52 1l34 -35c22 -21 14 -38 2 -51c-23 -24 -58 -43 -97 -56c-32 -25 -52 -62 -52 -93c0 -44 27 -55 67 -43c22 6 39 9 52 -20l5 -11c11 -26 -1 -42 -27 -55c-98 -48 -214 0 -214 109c0 33 13 64 43 95
c-156 4 -269 111 -269 264c0 151 112 262 269 262c80 0 146 -28 189 -71c46 -46 73 -112 73 -181c0 -35 -9 -48 -46 -48h-318zM295 394c-53 0 -90 -33 -97 -86h195c-4 24 -14 44 -28 58c-18 18 -41 28 -70 28z" />
    <glyph glyph-name="f" unicode="f" horiz-adv-x="420" 
d="M433 706c23 -10 36 -21 24 -53l-17 -44c-10 -25 -22 -32 -50 -24c-11 4 -24 7 -36 7c-39 0 -73 -25 -73 -76v-11h90c29 0 46 -16 46 -46v-34c0 -29 -17 -46 -46 -46h-90v-333c0 -29 -16 -46 -45 -46h-83c-29 0 -45 17 -45 46v333h-41c-29 0 -46 17 -46 46v34
c0 30 17 46 46 46h41v11c0 144 112 208 223 208c37 0 77 -8 102 -18z" />
    <glyph glyph-name="g" unicode="g" horiz-adv-x="648" 
d="M621 496c21 -11 26 -24 20 -50l-15 -66c-6 -25 -18 -29 -26 -28c-10 1 -23 9 -33 9c-6 0 -10 -5 -10 -14v-287c0 -170 -123 -253 -282 -253c-106 0 -184 39 -231 85c-17 16 -23 37 -2 61l32 39c15 17 35 23 60 2c27 -25 80 -56 143 -56c62 0 122 29 122 96v48
c-37 -25 -83 -40 -134 -40c-134 0 -236 100 -236 236c0 135 102 235 237 235c64 0 119 -24 161 -62c23 45 70 62 118 62c23 0 54 -6 76 -17zM305 169c62 0 106 46 106 108c0 64 -44 109 -106 109c-61 0 -105 -45 -105 -108s44 -109 105 -109z" />
    <glyph glyph-name="gbreve" unicode="&#x11f;" horiz-adv-x="648" 
d="M305 578c-127 0 -178 100 -182 160c-1 22 9 40 39 40h31c32 0 39 -22 43 -40c7 -29 21 -66 69 -66s61 37 68 66c4 18 11 40 43 40h31c30 0 40 -18 39 -40c-4 -60 -55 -160 -181 -160zM621 496c21 -11 26 -24 20 -50l-15 -66c-6 -25 -18 -29 -26 -28c-10 1 -23 9 -33 9
c-6 0 -10 -5 -10 -14v-287c0 -170 -123 -253 -282 -253c-106 0 -184 39 -231 85c-17 16 -23 37 -2 61l32 39c15 17 35 23 60 2c27 -25 80 -56 143 -56c62 0 122 29 122 96v48c-37 -25 -83 -40 -134 -40c-134 0 -236 100 -236 236c0 135 102 235 237 235
c64 0 119 -24 161 -62c23 45 70 62 118 62c23 0 54 -6 76 -17zM305 169c62 0 106 46 106 108c0 64 -44 109 -106 109c-61 0 -105 -45 -105 -108s44 -109 105 -109z" />
    <glyph glyph-name="uni0123" unicode="&#x123;" horiz-adv-x="648" 
d="M273 578c-32 0 -40 18 -31 42l50 142c11 29 25 36 44 36h32c25 0 36 -15 33 -41l-22 -141c-5 -34 -18 -38 -44 -38h-62zM621 496c21 -11 26 -24 20 -50l-15 -66c-6 -25 -18 -29 -26 -28c-10 1 -23 9 -33 9c-6 0 -10 -5 -10 -14v-287c0 -170 -123 -253 -282 -253
c-106 0 -184 39 -231 85c-17 16 -23 37 -2 61l32 39c15 17 35 23 60 2c27 -25 80 -56 143 -56c62 0 122 29 122 96v48c-37 -25 -83 -40 -134 -40c-134 0 -236 100 -236 236c0 135 102 235 237 235c64 0 119 -24 161 -62c23 45 70 62 118 62c23 0 54 -6 76 -17zM305 169
c62 0 106 46 106 108c0 64 -44 109 -106 109c-61 0 -105 -45 -105 -108s44 -109 105 -109z" />
    <glyph glyph-name="gdotaccent" unicode="&#x121;" horiz-adv-x="648" 
d="M303 582c-57 0 -104 47 -104 104c0 58 47 104 104 104c58 0 104 -46 104 -104c0 -57 -46 -104 -104 -104zM621 496c21 -11 26 -24 20 -50l-15 -66c-6 -25 -18 -29 -26 -28c-10 1 -23 9 -33 9c-6 0 -10 -5 -10 -14v-287c0 -170 -123 -253 -282 -253
c-106 0 -184 39 -231 85c-17 16 -23 37 -2 61l32 39c15 17 35 23 60 2c27 -25 80 -56 143 -56c62 0 122 29 122 96v48c-37 -25 -83 -40 -134 -40c-134 0 -236 100 -236 236c0 135 102 235 237 235c64 0 119 -24 161 -62c23 45 70 62 118 62c23 0 54 -6 76 -17zM305 169
c62 0 106 46 106 108c0 64 -44 109 -106 109c-61 0 -105 -45 -105 -108s44 -109 105 -109z" />
    <glyph glyph-name="h" unicode="h" horiz-adv-x="617" 
d="M356 513c122 0 208 -85 208 -218v-249c0 -29 -16 -46 -46 -46h-82c-29 0 -45 17 -45 46v236c0 50 -30 84 -80 84c-49 0 -80 -34 -80 -84v-236c0 -29 -17 -46 -46 -46h-81c-29 0 -45 17 -45 46v606c0 29 16 41 45 46l80 15c30 4 47 -16 47 -46v-197c32 26 73 43 125 43z
" />
    <glyph glyph-name="hbar" unicode="&#x127;" horiz-adv-x="617" 
d="M356 513c122 0 208 -85 208 -218v-249c0 -29 -16 -46 -46 -46h-82c-29 0 -45 17 -45 46v236c0 50 -30 84 -80 84c-49 0 -80 -34 -80 -84v-236c0 -29 -17 -46 -46 -46h-81c-29 0 -45 17 -45 46v509h-29c-29 0 -45 11 -45 36v5c0 27 16 37 45 37h29v19c0 29 16 41 45 46
l80 15c30 6 47 -16 47 -46v-34h113c28 0 44 -10 44 -37v-5c0 -25 -16 -36 -44 -36h-113v-85c32 26 73 43 125 43z" />
    <glyph glyph-name="i" unicode="i" horiz-adv-x="321" 
d="M143 582c-57 0 -104 47 -104 104c0 58 47 104 104 104c58 0 104 -46 104 -104c0 -57 -46 -104 -104 -104zM208 -13c-101 0 -153 53 -153 156v316c0 29 17 46 46 46h82c29 0 46 -17 46 -46v-301c0 -11 1 -19 12 -19c4 0 12 2 19 4c17 5 28 -2 36 -28l18 -61
c8 -28 0 -36 -17 -46c-32 -17 -61 -21 -89 -21z" />
    <glyph glyph-name="dotlessi" unicode="&#x131;" horiz-adv-x="321" 
d="M208 -13c-101 0 -153 53 -153 156v316c0 29 17 46 46 46h82c29 0 46 -17 46 -46v-301c0 -11 1 -19 12 -19c4 0 12 2 19 4c17 5 28 -2 36 -28l18 -61c8 -28 0 -36 -17 -46c-32 -17 -61 -21 -89 -21z" />
    <glyph glyph-name="iacute" unicode="&#xed;" horiz-adv-x="321" 
d="M17 591l-19 35c-12 20 -6 36 17 49l175 102c21 13 35 7 44 -9l35 -65c11 -22 2 -37 -15 -44l-191 -76c-21 -8 -38 -6 -46 8zM208 -13c-101 0 -153 53 -153 156v316c0 29 17 46 46 46h82c29 0 46 -17 46 -46v-301c0 -11 1 -19 12 -19c4 0 12 2 19 4c17 5 28 -2 36 -28
l18 -61c8 -28 0 -36 -17 -46c-32 -17 -61 -21 -89 -21z" />
    <glyph glyph-name="icircumflex" unicode="&#xee;" horiz-adv-x="321" 
d="M306 681c29 -17 31 -34 15 -59l-14 -22c-17 -25 -28 -28 -60 -12l-107 54l-107 -54c-32 -16 -44 -13 -60 12l-14 22c-16 25 -14 42 15 59l142 81c19 11 29 10 48 0zM296 115l18 -61c8 -28 0 -36 -17 -46c-32 -17 -61 -21 -89 -21c-101 0 -153 53 -153 156v316
c0 29 17 46 46 46h82c29 0 46 -17 46 -46v-301c0 -11 1 -19 12 -19c4 0 12 2 19 4c17 5 28 -2 36 -28z" />
    <glyph glyph-name="idieresis" unicode="&#xef;" horiz-adv-x="321" 
d="M22 582c-56 0 -102 46 -102 102s46 101 102 101s100 -45 100 -101s-44 -102 -100 -102zM264 582c-56 0 -101 46 -101 102s45 101 101 101s101 -45 101 -101s-45 -102 -101 -102zM208 -13c-101 0 -153 53 -153 156v316c0 29 17 46 46 46h82c29 0 46 -17 46 -46v-301
c0 -11 1 -19 12 -19c4 0 12 2 19 4c17 5 28 -2 36 -28l18 -61c8 -28 0 -36 -17 -46c-32 -17 -61 -21 -89 -21z" />
    <glyph glyph-name="i.loclTRK" horiz-adv-x="321" 
d="M143 582c-57 0 -104 47 -104 104c0 58 47 104 104 104c58 0 104 -46 104 -104c0 -57 -46 -104 -104 -104zM208 -13c-101 0 -153 53 -153 156v316c0 29 17 46 46 46h82c29 0 46 -17 46 -46v-301c0 -11 1 -19 12 -19c4 0 12 2 19 4c17 5 28 -2 36 -28l18 -61
c8 -28 0 -36 -17 -46c-32 -17 -61 -21 -89 -21z" />
    <glyph glyph-name="igrave" unicode="&#xec;" horiz-adv-x="321" 
d="M262 591c-9 -14 -26 -16 -47 -8l-191 76c-17 7 -26 22 -15 44l35 65c9 16 23 22 44 9l175 -102c23 -13 29 -29 18 -49zM208 -13c-101 0 -153 53 -153 156v316c0 29 17 46 46 46h82c29 0 46 -17 46 -46v-301c0 -11 1 -19 12 -19c4 0 12 2 19 4c17 5 28 -2 36 -28l18 -61
c8 -28 0 -36 -17 -46c-32 -17 -61 -21 -89 -21z" />
    <glyph glyph-name="ij" unicode="&#x133;" horiz-adv-x="618" 
d="M143 582c-57 0 -104 47 -104 104c0 58 47 104 104 104c58 0 104 -46 104 -104c0 -57 -46 -104 -104 -104zM462 582c-57 0 -104 47 -104 104c0 58 47 104 104 104c58 0 104 -46 104 -104c0 -57 -46 -104 -104 -104zM208 -13c-101 0 -153 53 -153 156v316c0 29 17 46 46 46
h82c29 0 46 -17 46 -46v-301c0 -11 1 -19 12 -19c4 0 12 2 19 4c17 5 28 -2 36 -28l18 -61c8 -28 0 -36 -17 -46c-32 -17 -61 -21 -89 -21zM402 -183c-27 -13 -50 -8 -64 17l-32 60c-14 26 -8 48 18 63c60 35 63 55 63 163v259h-31c-30 0 -46 17 -46 46v34c0 30 16 46 46 46
h159c29 0 46 -16 46 -46v-350c0 -164 -18 -224 -159 -292z" />
    <glyph glyph-name="imacron" unicode="&#x12b;" horiz-adv-x="321" 
d="M18 618c-30 0 -47 16 -47 47v16c0 30 17 46 47 46h251c30 0 46 -16 46 -46v-16c0 -31 -16 -47 -46 -47h-251zM208 -13c-101 0 -153 53 -153 156v316c0 29 17 46 46 46h82c29 0 46 -17 46 -46v-301c0 -11 1 -19 12 -19c4 0 12 2 19 4c17 5 28 -2 36 -28l18 -61
c8 -28 0 -36 -17 -46c-32 -17 -61 -21 -89 -21z" />
    <glyph glyph-name="iogonek" unicode="&#x12f;" horiz-adv-x="321" 
d="M143 582c-58 0 -104 47 -104 104c0 58 46 104 104 104c57 0 104 -46 104 -104c0 -57 -47 -104 -104 -104zM333 -160c11 -26 -1 -42 -27 -55c-98 -48 -214 0 -214 109c0 36 16 69 50 103c-57 19 -87 68 -87 146v316c0 29 17 46 46 46h82c29 0 46 -17 46 -46v-301
c0 -11 1 -19 12 -19c4 0 12 2 19 4c17 5 28 -2 36 -28l18 -61c8 -28 0 -36 -17 -46c-19 -10 -37 -16 -55 -18c-21 -24 -33 -52 -33 -76c0 -44 27 -55 67 -43c22 6 39 9 52 -20z" />
    <glyph glyph-name="itilde" unicode="&#x129;" horiz-adv-x="321" 
d="M-7 578c-24 0 -35 8 -35 28c0 92 45 143 101 143c65 0 107 -55 150 -55c20 0 25 10 25 27c0 20 10 28 35 28h24c25 0 36 -8 36 -28c0 -93 -44 -143 -100 -143c-65 0 -110 55 -152 55c-19 0 -23 -11 -23 -27c0 -20 -12 -28 -37 -28h-24zM208 -13c-101 0 -153 53 -153 156
v316c0 29 17 46 46 46h82c29 0 46 -17 46 -46v-301c0 -11 1 -19 12 -19c4 0 12 2 19 4c17 5 28 -2 36 -28l18 -61c8 -28 0 -36 -17 -46c-32 -17 -61 -21 -89 -21z" />
    <glyph glyph-name="j" unicode="j" horiz-adv-x="329" 
d="M173 582c-57 0 -104 47 -104 104c0 58 47 104 104 104c58 0 104 -46 104 -104c0 -57 -46 -104 -104 -104zM112 -183c-26 -13 -50 -8 -63 17l-32 60c-14 26 -8 48 18 63c60 35 63 55 63 163v259h-32c-29 0 -46 17 -46 46v34c0 30 17 46 46 46h160c29 0 45 -16 45 -46v-350
c0 -164 -18 -224 -159 -292z" />
    <glyph glyph-name="uni0237" unicode="&#x237;" horiz-adv-x="329" 
d="M112 -183c-26 -13 -50 -8 -63 17l-32 60c-14 26 -8 48 18 63c60 35 63 55 63 163v259h-32c-29 0 -46 17 -46 46v34c0 30 17 46 46 46h160c29 0 45 -16 45 -46v-350c0 -164 -18 -224 -159 -292z" />
    <glyph glyph-name="uni006A0301" horiz-adv-x="329" 
d="M37 591l-19 35c-12 20 -6 36 17 49l175 102c21 13 35 7 44 -9l35 -65c11 -22 2 -37 -15 -44l-191 -76c-21 -8 -38 -6 -46 8zM112 -183c-26 -13 -50 -8 -63 17l-32 60c-14 26 -8 48 18 63c60 35 63 55 63 163v259h-32c-29 0 -46 17 -46 46v34c0 30 17 46 46 46h160
c29 0 45 -16 45 -46v-350c0 -164 -18 -224 -159 -292z" />
    <glyph glyph-name="k" unicode="k" horiz-adv-x="612" 
d="M588 49c8 -28 -3 -39 -19 -47c-29 -13 -48 -15 -71 -15c-58 0 -98 20 -129 66l-82 120h-56v-127c0 -29 -17 -46 -46 -46h-81c-29 0 -45 17 -45 46v606c0 29 16 41 45 46l80 15c30 6 47 -16 47 -46v-190c39 23 85 36 130 36c119 0 198 -66 198 -167
c0 -67 -39 -120 -103 -149l30 -46c8 -12 17 -19 25 -21s14 -1 25 2c21 7 30 -1 37 -24zM231 304v-38h83c46 0 78 26 78 62c0 37 -31 63 -75 63c-51 0 -86 -36 -86 -87z" />
    <glyph glyph-name="uni0137" unicode="&#x137;" horiz-adv-x="612" 
d="M588 49c8 -28 -3 -39 -19 -47c-29 -13 -48 -15 -71 -15c-58 0 -98 20 -129 66l-82 120h-56v-127c0 -29 -17 -46 -46 -46h-81c-29 0 -45 17 -45 46v606c0 29 16 41 45 46l80 15c30 6 47 -16 47 -46v-190c39 23 85 36 130 36c119 0 198 -66 198 -167
c0 -67 -39 -120 -103 -149l30 -46c8 -12 17 -19 25 -21s14 -1 25 2c21 7 30 -1 37 -24zM231 304v-38h83c46 0 78 26 78 62c0 37 -31 63 -75 63c-51 0 -86 -36 -86 -87zM344 -54c32 0 40 -17 31 -42l-49 -135c-11 -30 -26 -37 -45 -37h-32c-25 0 -34 16 -30 42l19 134
c4 34 18 38 44 38h62z" />
    <glyph glyph-name="kgreenlandic" unicode="&#x138;" horiz-adv-x="579" 
d="M559 46c23 -28 4 -46 -25 -46h-109c-30 0 -49 17 -68 45l-95 142l-32 -37v-104c0 -29 -17 -46 -46 -46h-81c-29 0 -45 17 -45 46v413c0 29 16 46 45 46h81c29 0 46 -17 46 -46v-158l126 159c22 27 38 45 68 45h102c28 0 47 -18 24 -46l-157 -186z" />
    <glyph glyph-name="l" unicode="l" horiz-adv-x="323" 
d="M210 -13c-100 0 -153 53 -153 156v510c0 29 16 40 46 46l81 15c30 6 47 -16 47 -46v-510c0 -11 1 -19 12 -19c4 0 12 2 19 4c17 5 28 -2 36 -28l17 -61c9 -28 1 -36 -16 -46c-32 -17 -62 -21 -89 -21z" />
    <glyph glyph-name="lacute" unicode="&#x13a;" horiz-adv-x="323" 
d="M9 778l-12 21c-17 26 -10 43 16 58l164 101c39 24 50 17 65 -10l29 -49c19 -34 11 -45 -27 -60l-175 -74c-32 -14 -46 -8 -60 13zM210 -13c-100 0 -153 53 -153 156v510c0 29 16 40 46 46l81 15c30 6 47 -16 47 -46v-510c0 -11 1 -19 12 -19c4 0 12 2 19 4
c17 5 28 -2 36 -28l17 -61c9 -28 1 -36 -16 -46c-32 -17 -62 -21 -89 -21z" />
    <glyph glyph-name="lcaron" unicode="&#x13e;" horiz-adv-x="360" 
d="M210 -13c-100 0 -153 53 -153 156v510c0 29 16 40 46 46l81 15c30 6 47 -16 47 -46v-510c0 -11 1 -19 12 -19c4 0 12 2 19 4c17 5 28 -2 36 -28l17 -61c9 -28 1 -36 -16 -46c-32 -17 -62 -21 -89 -21zM299 492c-26 0 -35 15 -31 41l21 144c5 33 19 37 44 37h62
c32 0 41 -17 32 -42l-52 -144c-11 -29 -25 -36 -44 -36h-32z" />
    <glyph glyph-name="uni013C" unicode="&#x13c;" horiz-adv-x="323" 
d="M210 -13c-100 0 -153 53 -153 156v510c0 29 16 40 46 46l81 15c30 6 47 -16 47 -46v-510c0 -11 1 -19 12 -19c4 0 12 2 19 4c17 5 28 -2 36 -28l17 -61c9 -28 1 -36 -16 -46c-32 -17 -62 -21 -89 -21zM127 -268c-25 0 -34 16 -30 42l19 134c4 34 18 38 44 38h62
c32 0 40 -17 31 -42l-49 -135c-11 -30 -26 -37 -45 -37h-32z" />
    <glyph glyph-name="ldot" unicode="&#x140;" horiz-adv-x="432" 
d="M210 -13c-100 0 -153 53 -153 156v510c0 29 16 40 46 46l81 15c30 6 47 -16 47 -46v-510c0 -11 1 -19 12 -19c4 0 12 2 19 4c17 5 28 -2 36 -28l17 -61c9 -28 1 -36 -16 -46c-32 -17 -62 -21 -89 -21zM360 275c-52 0 -94 42 -94 94s42 95 94 95s95 -43 95 -95
s-43 -94 -95 -94z" />
    <glyph glyph-name="lslash" unicode="&#x142;" horiz-adv-x="402" 
d="M329 360l-49 -26v-176c0 -11 1 -19 12 -19c4 0 13 2 20 4c17 5 28 -2 35 -28l18 -61c9 -28 1 -36 -17 -46c-32 -17 -61 -21 -88 -21c-100 0 -153 53 -153 156v99l-32 -17c-38 -21 -54 -2 -54 33v31c0 34 11 42 40 58l46 24v282c0 29 16 40 45 46l82 15
c30 6 46 -16 46 -46v-205l35 19c38 21 54 2 54 -33v-31c0 -34 -11 -42 -40 -58z" />
    <glyph glyph-name="m" unicode="m" horiz-adv-x="973" 
d="M710 513c124 0 210 -85 210 -218v-249c0 -29 -16 -46 -45 -46h-83c-29 0 -45 17 -45 46v236c0 51 -28 84 -76 84c-46 0 -78 -33 -78 -84v-236c0 -29 -16 -46 -45 -46h-83c-29 0 -45 17 -45 46v236c0 51 -28 84 -76 84c-47 0 -78 -33 -78 -84v-236c0 -29 -16 -46 -45 -46
h-83c-29 0 -45 17 -45 46v301c0 9 -4 14 -11 14c-9 0 -22 -8 -32 -9c-9 -1 -21 3 -27 28l-14 66c-6 26 -2 39 20 50c21 11 52 17 75 17c55 0 108 -23 127 -83c34 48 86 83 160 83c66 0 119 -24 155 -67c39 40 94 67 164 67z" />
    <glyph glyph-name="n" unicode="n" horiz-adv-x="659" 
d="M397 513c124 0 208 -89 208 -218v-249c0 -29 -16 -46 -45 -46h-82c-30 0 -46 17 -46 46v236c0 49 -28 84 -80 84c-47 0 -80 -33 -80 -84v-236c0 -29 -16 -46 -46 -46h-82c-29 0 -46 17 -46 46v301c0 9 -4 14 -10 14c-10 0 -22 -8 -33 -9c-8 -1 -20 3 -26 28l-14 66
c-7 26 -2 39 20 50c21 11 52 17 75 17c56 0 110 -23 128 -86c32 50 83 86 159 86z" />
    <glyph glyph-name="nacute" unicode="&#x144;" horiz-adv-x="659" 
d="M226 591l-19 35c-12 20 -6 36 17 49l175 102c21 13 35 7 44 -9l35 -65c11 -22 2 -37 -15 -44l-191 -76c-21 -8 -38 -6 -46 8zM397 513c124 0 208 -89 208 -218v-249c0 -29 -16 -46 -45 -46h-82c-30 0 -46 17 -46 46v236c0 49 -28 84 -80 84c-47 0 -80 -33 -80 -84v-236
c0 -29 -16 -46 -46 -46h-82c-29 0 -46 17 -46 46v301c0 9 -4 14 -10 14c-10 0 -22 -8 -33 -9c-8 -1 -20 3 -26 28l-14 66c-7 26 -2 39 20 50c21 11 52 17 75 17c56 0 110 -23 128 -86c32 50 83 86 159 86z" />
    <glyph glyph-name="ncaron" unicode="&#x148;" horiz-adv-x="659" 
d="M186 668c-29 16 -38 30 -17 59l16 21c17 24 28 29 60 13l107 -54l107 54c32 16 42 11 60 -13l16 -21c20 -29 12 -43 -17 -59l-142 -82c-19 -12 -29 -11 -48 0zM397 513c124 0 208 -89 208 -218v-249c0 -29 -16 -46 -45 -46h-82c-30 0 -46 17 -46 46v236
c0 49 -28 84 -80 84c-47 0 -80 -33 -80 -84v-236c0 -29 -16 -46 -46 -46h-82c-29 0 -46 17 -46 46v301c0 9 -4 14 -10 14c-10 0 -22 -8 -33 -9c-8 -1 -20 3 -26 28l-14 66c-7 26 -2 39 20 50c21 11 52 17 75 17c56 0 110 -23 128 -86c32 50 83 86 159 86z" />
    <glyph glyph-name="uni0146" unicode="&#x146;" horiz-adv-x="659" 
d="M397 513c124 0 208 -89 208 -218v-249c0 -29 -16 -46 -45 -46h-82c-30 0 -46 17 -46 46v236c0 49 -28 84 -80 84c-47 0 -80 -33 -80 -84v-236c0 -29 -16 -46 -46 -46h-82c-29 0 -46 17 -46 46v301c0 9 -4 14 -10 14c-10 0 -22 -8 -33 -9c-8 -1 -20 3 -26 28l-14 66
c-7 26 -2 39 20 50c21 11 52 17 75 17c56 0 110 -23 128 -86c32 50 83 86 159 86zM378 -54c32 0 40 -17 31 -42l-49 -135c-11 -30 -26 -37 -45 -37h-32c-25 0 -34 16 -30 42l19 134c4 34 18 38 44 38h62z" />
    <glyph glyph-name="eng" unicode="&#x14b;" horiz-adv-x="659" 
d="M397 513c124 0 208 -89 208 -218v-164c0 -165 -19 -226 -159 -292c-26 -13 -49 -9 -62 17l-33 60c-14 26 -8 48 18 62c60 35 63 55 63 163v141c0 49 -28 84 -80 84c-47 0 -80 -33 -80 -84v-236c0 -30 -16 -46 -46 -46h-82c-29 0 -46 16 -46 46v301c0 9 -4 14 -10 14
c-10 0 -22 -8 -33 -9c-8 -1 -20 3 -26 28l-14 66c-7 26 -2 39 20 50c21 11 52 17 75 17c56 0 110 -23 128 -86c32 50 83 86 159 86z" />
    <glyph glyph-name="ntilde" unicode="&#xf1;" horiz-adv-x="659" 
d="M186 578c-27 0 -40 8 -40 28c0 92 50 143 112 143c72 0 119 -55 168 -55c21 0 27 10 27 27c0 20 11 28 39 28h27c27 0 39 -8 39 -28c0 -93 -48 -143 -110 -143c-73 0 -122 55 -169 55c-22 0 -26 -11 -26 -27c0 -20 -13 -28 -41 -28h-26zM397 513c124 0 208 -89 208 -218
v-249c0 -29 -16 -46 -45 -46h-82c-30 0 -46 17 -46 46v236c0 49 -28 84 -80 84c-47 0 -80 -33 -80 -84v-236c0 -29 -16 -46 -46 -46h-82c-29 0 -46 17 -46 46v301c0 9 -4 14 -10 14c-10 0 -22 -8 -33 -9c-8 -1 -20 3 -26 28l-14 66c-7 26 -2 39 20 50c21 11 52 17 75 17
c56 0 110 -23 128 -86c32 50 83 86 159 86z" />
    <glyph glyph-name="o" unicode="o" horiz-adv-x="616" 
d="M308 -13c-162 0 -279 112 -279 263s117 263 279 263s279 -112 279 -263s-117 -263 -279 -263zM308 135c63 0 108 49 108 115s-45 115 -108 115s-109 -49 -109 -115s46 -115 109 -115z" />
    <glyph glyph-name="oacute" unicode="&#xf3;" horiz-adv-x="616" 
d="M187 591l-19 35c-12 20 -6 36 17 49l175 102c21 13 35 7 44 -9l35 -65c11 -22 2 -37 -15 -44l-191 -76c-21 -8 -38 -6 -46 8zM308 -13c-162 0 -279 112 -279 263s117 263 279 263s279 -112 279 -263s-117 -263 -279 -263zM308 135c63 0 108 49 108 115s-45 115 -108 115
s-109 -49 -109 -115s46 -115 109 -115z" />
    <glyph glyph-name="ocircumflex" unicode="&#xf4;" horiz-adv-x="616" 
d="M143 600l-14 22c-16 25 -14 42 15 59l142 81c19 11 29 10 48 0l142 -81c29 -17 31 -34 15 -59l-14 -22c-17 -25 -28 -28 -60 -12l-107 54l-107 -54c-32 -16 -44 -13 -60 12zM308 513c162 0 279 -112 279 -263s-117 -263 -279 -263s-279 112 -279 263s117 263 279 263z
M308 135c63 0 108 49 108 115s-45 115 -108 115s-109 -49 -109 -115s46 -115 109 -115z" />
    <glyph glyph-name="odieresis" unicode="&#xf6;" horiz-adv-x="616" 
d="M192 582c-56 0 -102 46 -102 102s46 101 102 101s100 -45 100 -101s-44 -102 -100 -102zM434 582c-56 0 -101 46 -101 102s45 101 101 101s101 -45 101 -101s-45 -102 -101 -102zM308 -13c-162 0 -279 112 -279 263s117 263 279 263s279 -112 279 -263
s-117 -263 -279 -263zM308 135c63 0 108 49 108 115s-45 115 -108 115s-109 -49 -109 -115s46 -115 109 -115z" />
    <glyph glyph-name="ograve" unicode="&#xf2;" horiz-adv-x="616" 
d="M432 591c-9 -14 -26 -16 -47 -8l-191 76c-17 7 -26 22 -15 44l35 65c9 16 23 22 44 9l175 -102c23 -13 29 -29 18 -49zM308 -13c-162 0 -279 112 -279 263s117 263 279 263s279 -112 279 -263s-117 -263 -279 -263zM308 135c63 0 108 49 108 115s-45 115 -108 115
s-109 -49 -109 -115s46 -115 109 -115z" />
    <glyph glyph-name="ohungarumlaut" unicode="&#x151;" horiz-adv-x="616" 
d="M194 578c-25 0 -35 17 -27 42l45 129c11 32 29 37 57 37h50c24 0 37 -13 24 -37l-77 -141c-12 -22 -28 -30 -55 -30h-17zM392 578c-25 0 -36 17 -27 42l44 129c12 32 30 37 57 37h50c24 0 38 -13 25 -37l-77 -141c-12 -22 -29 -30 -55 -30h-17zM308 -13
c-162 0 -279 112 -279 263s117 263 279 263s279 -112 279 -263s-117 -263 -279 -263zM308 135c63 0 108 49 108 115s-45 115 -108 115s-109 -49 -109 -115s46 -115 109 -115z" />
    <glyph glyph-name="omacron" unicode="&#x14d;" horiz-adv-x="616" 
d="M187 618c-30 0 -47 16 -47 47v16c0 30 17 46 47 46h251c30 0 46 -16 46 -46v-16c0 -31 -16 -47 -46 -47h-251zM308 -13c-162 0 -279 112 -279 263s117 263 279 263s279 -112 279 -263s-117 -263 -279 -263zM308 135c63 0 108 49 108 115s-45 115 -108 115
s-109 -49 -109 -115s46 -115 109 -115z" />
    <glyph glyph-name="uni01EB" unicode="&#x1eb;" horiz-adv-x="616" 
d="M417 6c-30 -26 -49 -61 -49 -91c0 -44 27 -55 67 -43c22 6 39 9 52 -20l5 -11c11 -26 -1 -42 -27 -55c-98 -48 -214 0 -214 109c0 32 13 62 40 92c-153 8 -262 117 -262 263c0 151 117 263 279 263s279 -112 279 -263c0 -114 -67 -206 -170 -244zM199 250
c0 -66 46 -115 109 -115s108 49 108 115s-45 115 -108 115s-109 -49 -109 -115z" />
    <glyph glyph-name="oslash" unicode="&#xf8;" horiz-adv-x="616" 
d="M577 517l-58 -85c43 -46 68 -107 68 -177c0 -151 -117 -263 -279 -263c-32 0 -62 4 -90 13l-6 -9c-19 -27 -39 -46 -70 -46h-77c-30 0 -35 19 -16 46l53 77c-46 46 -73 110 -73 182c0 151 117 263 279 263c35 0 67 -5 97 -15l9 14c19 27 39 46 69 46h78
c30 0 35 -19 16 -46zM308 140c63 0 108 49 108 115s-45 115 -108 115s-109 -49 -109 -115s46 -115 109 -115z" />
    <glyph glyph-name="oslashacute" unicode="&#x1ff;" horiz-adv-x="616" 
d="M187 596l-19 35c-12 20 -6 36 17 49l175 102c21 13 35 7 44 -9l35 -65c11 -22 2 -37 -15 -44l-191 -76c-21 -8 -38 -6 -46 8zM577 517l-58 -85c43 -46 68 -107 68 -177c0 -151 -117 -263 -279 -263c-32 0 -62 4 -90 13l-6 -9c-19 -27 -39 -46 -70 -46h-77
c-30 0 -35 19 -16 46l53 77c-46 46 -73 110 -73 182c0 151 117 263 279 263c35 0 67 -5 97 -15l9 14c19 27 39 46 69 46h78c30 0 35 -19 16 -46zM308 140c63 0 108 49 108 115s-45 115 -108 115s-109 -49 -109 -115s46 -115 109 -115z" />
    <glyph glyph-name="otilde" unicode="&#xf5;" horiz-adv-x="616" 
d="M147 578c-27 0 -40 8 -40 28c0 92 50 143 112 143c72 0 119 -55 168 -55c21 0 27 10 27 27c0 20 11 28 39 28h27c27 0 39 -8 39 -28c0 -93 -48 -143 -110 -143c-73 0 -122 55 -169 55c-22 0 -26 -11 -26 -27c0 -20 -13 -28 -41 -28h-26zM308 -13
c-162 0 -279 112 -279 263s117 263 279 263s279 -112 279 -263s-117 -263 -279 -263zM308 135c63 0 108 49 108 115s-45 115 -108 115s-109 -49 -109 -115s46 -115 109 -115z" />
    <glyph glyph-name="oe" unicode="&#x153;" horiz-adv-x="976" 
d="M308 -13c-162 0 -279 112 -279 263s117 263 279 263c78 0 145 -27 193 -81c46 54 111 81 186 81c80 0 146 -28 189 -71c46 -46 73 -112 73 -182c0 -34 -9 -47 -46 -47h-317c7 -66 63 -103 129 -103c36 0 71 11 108 37c18 13 32 20 51 1l35 -36c21 -22 14 -37 1 -51
c-45 -48 -136 -74 -215 -74c-77 0 -146 26 -194 83c-47 -56 -115 -83 -193 -83zM586 308h195c-4 24 -14 44 -28 58c-17 18 -41 28 -70 28c-53 0 -89 -34 -97 -86zM308 135c63 0 108 49 108 115s-45 115 -108 115s-109 -49 -109 -115s46 -115 109 -115z" />
    <glyph glyph-name="p" unicode="p" horiz-adv-x="678" 
d="M398 513c145 0 251 -115 251 -263c0 -147 -105 -263 -251 -263c-47 0 -90 13 -126 35v-166c0 -29 -16 -46 -46 -46h-82c-29 0 -46 17 -46 46v491c0 9 -4 14 -10 14c-10 0 -22 -8 -33 -9c-8 -1 -20 3 -26 28l-14 66c-7 26 -2 39 20 50c21 11 52 17 75 17
c50 0 98 -19 121 -67c43 41 100 67 167 67zM370 135c64 0 108 50 108 115s-44 115 -108 115c-60 0 -107 -45 -107 -115s47 -115 107 -115z" />
    <glyph glyph-name="thorn" unicode="&#xfe;" horiz-adv-x="639" 
d="M359 513c145 0 251 -115 251 -263c0 -147 -105 -263 -251 -263c-47 0 -90 13 -126 36v-167c0 -30 -16 -46 -46 -46h-82c-29 0 -46 16 -46 46v796c0 29 17 41 46 46l79 15c30 6 47 -16 47 -46v-191c37 23 80 37 128 37zM331 135c64 0 108 50 108 115s-44 115 -108 115
c-60 0 -107 -45 -107 -115s47 -115 107 -115z" />
    <glyph glyph-name="q" unicode="q" horiz-adv-x="677" 
d="M643 496c22 -11 27 -24 20 -50l-14 -66c-6 -25 -18 -29 -26 -28c-11 1 -23 9 -33 9c-6 0 -10 -5 -10 -14v-491c0 -29 -17 -46 -46 -46h-82c-30 0 -46 17 -46 46v166c-36 -22 -79 -35 -126 -35c-145 0 -251 115 -251 263s106 263 251 263c67 0 125 -26 168 -67
c22 48 70 67 120 67c23 0 54 -6 75 -17zM308 135c61 0 107 45 107 115s-47 115 -107 115c-63 0 -108 -50 -108 -115s45 -115 108 -115z" />
    <glyph glyph-name="r" unicode="r" horiz-adv-x="478" 
d="M451 502c17 -6 33 -14 25 -43l-19 -75c-8 -28 -25 -34 -43 -27c-15 5 -35 10 -51 10c-59 0 -91 -39 -91 -98v-223c0 -29 -16 -46 -46 -46h-82c-29 0 -46 17 -46 46v301c0 9 -4 14 -10 14c-10 0 -22 -8 -33 -9c-8 -1 -20 3 -26 28l-14 66c-7 26 -2 39 20 50
c21 11 52 17 75 17c52 0 102 -20 124 -73c32 46 79 73 145 73c26 0 50 -4 72 -11z" />
    <glyph glyph-name="racute" unicode="&#x155;" horiz-adv-x="478" 
d="M109 591l-19 35c-12 20 -6 36 17 49l175 102c21 13 35 7 44 -9l35 -65c11 -22 2 -37 -15 -44l-191 -76c-21 -8 -38 -6 -46 8zM451 502c17 -6 33 -14 25 -43l-19 -75c-8 -28 -25 -34 -43 -27c-15 5 -35 10 -51 10c-59 0 -91 -39 -91 -98v-223c0 -29 -16 -46 -46 -46h-82
c-29 0 -46 17 -46 46v301c0 9 -4 14 -10 14c-10 0 -22 -8 -33 -9c-8 -1 -20 3 -26 28l-14 66c-7 26 -2 39 20 50c21 11 52 17 75 17c52 0 102 -20 124 -73c32 46 79 73 145 73c26 0 50 -4 72 -11z" />
    <glyph glyph-name="rcaron" unicode="&#x159;" horiz-adv-x="478" 
d="M69 668c-29 16 -38 30 -17 59l16 21c17 24 28 29 60 13l107 -54l107 54c32 16 42 11 60 -13l16 -21c20 -29 12 -43 -17 -59l-142 -82c-19 -12 -29 -11 -48 0zM451 502c17 -6 33 -14 25 -43l-19 -75c-8 -28 -25 -34 -43 -27c-15 5 -35 10 -51 10c-59 0 -91 -39 -91 -98
v-223c0 -29 -16 -46 -46 -46h-82c-29 0 -46 17 -46 46v301c0 9 -4 14 -10 14c-10 0 -22 -8 -33 -9c-8 -1 -20 3 -26 28l-14 66c-7 26 -2 39 20 50c21 11 52 17 75 17c52 0 102 -20 124 -73c32 46 79 73 145 73c26 0 50 -4 72 -11z" />
    <glyph glyph-name="uni0157" unicode="&#x157;" horiz-adv-x="478" 
d="M451 502c17 -6 33 -14 25 -43l-19 -75c-8 -28 -25 -34 -43 -27c-15 5 -35 10 -51 10c-59 0 -91 -39 -91 -98v-223c0 -29 -16 -46 -46 -46h-82c-29 0 -46 17 -46 46v301c0 9 -4 14 -10 14c-10 0 -22 -8 -33 -9c-8 -1 -20 3 -26 28l-14 66c-7 26 -2 39 20 50
c21 11 52 17 75 17c52 0 102 -20 124 -73c32 46 79 73 145 73c26 0 50 -4 72 -11zM214 -54c32 0 40 -17 31 -42l-49 -135c-11 -30 -26 -37 -45 -37h-32c-25 0 -34 16 -30 42l19 134c4 34 18 38 44 38h62z" />
    <glyph glyph-name="s" unicode="s" horiz-adv-x="496" 
d="M253 -14c-88 0 -170 35 -210 72c-23 21 -28 40 -4 67l24 29c23 28 45 20 67 5c34 -25 78 -44 124 -44c30 0 47 11 47 30c0 24 -31 35 -63 46c-89 27 -189 59 -189 165c0 97 80 158 205 158c72 0 149 -25 184 -55c23 -20 27 -38 3 -68l-21 -26c-17 -22 -41 -22 -64 -8
c-28 20 -60 33 -100 33c-28 0 -44 -11 -44 -27c0 -25 46 -33 109 -56c82 -32 143 -73 143 -160c0 -101 -86 -161 -211 -161z" />
    <glyph glyph-name="sacute" unicode="&#x15b;" horiz-adv-x="496" 
d="M126 591l-19 35c-12 20 -6 36 17 49l175 102c21 13 35 7 44 -9l35 -65c11 -22 2 -37 -15 -44l-191 -76c-21 -8 -38 -6 -46 8zM253 -14c-88 0 -170 35 -210 72c-23 21 -28 40 -4 67l24 29c23 28 45 20 67 5c34 -25 78 -44 124 -44c30 0 47 11 47 30c0 24 -31 35 -63 46
c-89 27 -189 59 -189 165c0 97 80 158 205 158c72 0 149 -25 184 -55c23 -20 27 -38 3 -68l-21 -26c-17 -22 -41 -22 -64 -8c-28 20 -60 33 -100 33c-28 0 -44 -11 -44 -27c0 -25 46 -33 109 -56c82 -32 143 -73 143 -160c0 -101 -86 -161 -211 -161z" />
    <glyph glyph-name="scaron" unicode="&#x161;" horiz-adv-x="496" 
d="M85 668c-29 16 -38 30 -17 59l16 21c17 24 28 29 60 13l107 -54l107 54c32 16 42 11 60 -13l16 -21c20 -29 12 -43 -17 -59l-142 -82c-19 -12 -29 -11 -48 0zM321 307c82 -32 143 -73 143 -160c0 -101 -86 -161 -211 -161c-88 0 -170 35 -210 72c-23 21 -28 40 -4 67
l24 29c23 28 45 20 67 5c34 -25 78 -44 124 -44c30 0 47 11 47 30c0 24 -31 35 -63 46c-89 27 -189 59 -189 165c0 97 80 158 205 158c72 0 149 -25 184 -55c23 -20 27 -38 3 -68l-21 -26c-17 -22 -41 -22 -64 -8c-28 20 -60 33 -100 33c-28 0 -44 -11 -44 -27
c0 -25 46 -33 109 -56z" />
    <glyph glyph-name="scedilla" unicode="&#x15f;" horiz-adv-x="496" 
d="M464 147c0 -93 -73 -152 -183 -160l-6 -25c80 3 137 -41 137 -109c0 -79 -65 -133 -158 -133c-44 0 -94 13 -132 33c-26 13 -31 35 -17 58l5 7c17 28 33 22 55 12c20 -10 48 -18 72 -18c36 0 60 15 60 43c0 37 -41 55 -111 42c-13 -3 -26 -2 -21 14c9 27 17 54 25 81
c-63 11 -117 38 -147 66c-23 21 -28 40 -4 67l24 29c23 28 45 20 67 5c34 -25 78 -44 124 -44c30 0 47 11 47 30c0 24 -31 35 -63 46c-89 27 -189 59 -189 165c0 97 80 158 205 158c72 0 149 -25 184 -55c23 -20 27 -38 3 -68l-21 -26c-17 -22 -41 -22 -64 -8
c-28 20 -60 33 -100 33c-28 0 -44 -11 -44 -27c0 -25 46 -33 109 -56c82 -32 143 -73 143 -160z" />
    <glyph glyph-name="uni0219" unicode="&#x219;" horiz-adv-x="496" 
d="M253 -14c-88 0 -170 35 -210 72c-23 21 -28 40 -4 67l24 29c23 28 45 20 67 5c34 -25 78 -44 124 -44c30 0 47 11 47 30c0 24 -31 35 -63 46c-89 27 -189 59 -189 165c0 97 80 158 205 158c72 0 149 -25 184 -55c23 -20 27 -38 3 -68l-21 -26c-17 -22 -41 -22 -64 -8
c-28 20 -60 33 -100 33c-28 0 -44 -11 -44 -27c0 -25 46 -33 109 -56c82 -32 143 -73 143 -160c0 -101 -86 -161 -211 -161zM175 -268c-25 0 -34 16 -30 42l19 134c4 34 18 38 44 38h62c32 0 40 -17 31 -42l-49 -135c-11 -30 -26 -37 -45 -37h-32z" />
    <glyph glyph-name="germandbls" unicode="&#xdf;" horiz-adv-x="638" 
d="M392 -13c-32 0 -70 2 -100 16c-28 13 -38 36 -25 62l19 42c12 26 32 34 56 26c12 -4 23 -6 35 -6c43 0 72 35 72 86c0 57 -40 93 -97 93h-43c-19 0 -31 11 -31 30v46c0 19 12 30 31 30h7c42 0 71 32 71 70c0 42 -31 70 -75 70c-47 0 -80 -35 -80 -88v-418
c0 -29 -16 -46 -45 -46h-83c-29 0 -45 17 -45 46v393c0 161 102 253 252 253c138 0 237 -83 237 -198c0 -55 -24 -99 -63 -128c77 -27 125 -95 125 -181c0 -117 -93 -198 -218 -198z" />
    <glyph glyph-name="t" unicode="t" horiz-adv-x="445" 
d="M440 68c11 -24 -7 -36 -20 -46c-31 -22 -78 -35 -127 -35c-100 0 -196 57 -196 194v198h-44c-30 0 -46 17 -46 46v34c0 30 16 46 46 46h44v116c0 29 17 40 46 46l80 14c30 6 46 -15 46 -45v-131h99c29 0 46 -16 46 -46v-34c0 -29 -17 -46 -46 -46h-99v-180
c0 -49 25 -65 56 -65c15 0 30 7 41 14c25 16 37 4 46 -15z" />
    <glyph glyph-name="tbar" unicode="&#x167;" horiz-adv-x="445" 
d="M440 68c11 -24 -7 -36 -20 -46c-31 -22 -78 -35 -127 -35c-100 0 -196 57 -196 194v41h-43c-29 0 -44 11 -44 40v6c0 29 15 40 44 40h43v71h-44c-30 0 -46 17 -46 46v34c0 30 16 46 46 46h44v116c0 29 17 40 46 46l80 14c30 6 46 -15 46 -45v-131h99c29 0 46 -16 46 -46
v-34c0 -29 -17 -46 -46 -46h-99v-71h63c29 0 44 -11 44 -40v-6c0 -29 -15 -40 -44 -40h-63v-23c0 -49 25 -65 56 -65c15 0 30 7 41 14c25 16 37 4 46 -15z" />
    <glyph glyph-name="tcaron" unicode="&#x165;" horiz-adv-x="445" 
d="M451 780c33 0 41 -17 32 -42l-52 -144c-11 -30 -25 -37 -44 -37h-32c-25 0 -34 16 -31 42l22 144c4 33 19 37 44 37h61zM412 133l28 -65c11 -24 -7 -36 -20 -46c-31 -22 -78 -35 -127 -35c-100 0 -196 57 -196 194v198h-44c-30 0 -46 17 -46 46v34c0 30 16 46 46 46h44
v116c0 29 17 40 46 46l80 14c30 6 46 -15 46 -45v-131h99c29 0 46 -16 46 -46v-34c0 -29 -17 -46 -46 -46h-99v-180c0 -49 25 -65 56 -65c15 0 30 7 41 14c25 16 37 4 46 -15z" />
    <glyph glyph-name="uni0163" unicode="&#x163;" horiz-adv-x="445" 
d="M301 -38c80 3 137 -41 137 -109c0 -79 -65 -133 -158 -133c-44 0 -94 13 -132 33c-26 13 -31 35 -17 58l5 7c17 28 33 22 55 12c20 -10 48 -18 72 -18c36 0 60 15 60 43c0 37 -41 55 -111 42c-13 -3 -26 -2 -21 14l27 88c-68 23 -121 81 -121 182v198h-44
c-30 0 -46 17 -46 46v34c0 30 16 46 46 46h44v116c0 29 17 40 46 46l80 14c30 6 46 -15 46 -45v-131h99c29 0 46 -16 46 -46v-34c0 -29 -17 -46 -46 -46h-99v-180c0 -49 25 -65 56 -65c15 0 30 7 41 14c25 16 37 4 46 -15l28 -65c11 -24 -7 -36 -20 -46
c-28 -20 -69 -32 -113 -35z" />
    <glyph glyph-name="uni021B" unicode="&#x21b;" horiz-adv-x="445" 
d="M440 68c11 -24 -7 -36 -20 -46c-31 -22 -78 -35 -127 -35c-100 0 -196 57 -196 194v198h-44c-30 0 -46 17 -46 46v34c0 30 16 46 46 46h44v116c0 29 17 40 46 46l80 14c30 6 46 -15 46 -45v-131h99c29 0 46 -16 46 -46v-34c0 -29 -17 -46 -46 -46h-99v-180
c0 -49 25 -65 56 -65c15 0 30 7 41 14c25 16 37 4 46 -15zM296 -54c32 0 40 -17 31 -42l-49 -135c-11 -30 -26 -37 -45 -37h-32c-25 0 -34 16 -30 42l19 134c4 34 18 38 44 38h62z" />
    <glyph glyph-name="u" unicode="u" horiz-adv-x="639" 
d="M632 54c9 -29 -1 -39 -17 -47c-31 -15 -63 -20 -86 -20c-58 0 -102 30 -119 85c-28 -50 -75 -85 -150 -85c-124 0 -207 82 -207 204v268c0 29 17 46 46 46h82c29 0 46 -17 46 -46v-243c0 -48 28 -82 74 -82c47 0 75 34 75 83v242c0 29 16 46 45 46h83c29 0 45 -17 45 -46
v-308c0 -10 1 -19 12 -19c7 0 15 5 24 5c15 2 24 -8 31 -28z" />
    <glyph glyph-name="uacute" unicode="&#xfa;" horiz-adv-x="639" 
d="M176 591l-19 35c-12 20 -6 36 17 49l175 102c21 13 35 7 44 -9l35 -65c11 -22 2 -37 -15 -44l-191 -76c-21 -8 -38 -6 -46 8zM632 54c9 -29 -1 -39 -17 -47c-31 -15 -63 -20 -86 -20c-58 0 -102 30 -119 85c-28 -50 -75 -85 -150 -85c-124 0 -207 82 -207 204v268
c0 29 17 46 46 46h82c29 0 46 -17 46 -46v-243c0 -48 28 -82 74 -82c47 0 75 34 75 83v242c0 29 16 46 45 46h83c29 0 45 -17 45 -46v-308c0 -10 1 -19 12 -19c7 0 15 5 24 5c15 2 24 -8 31 -28z" />
    <glyph glyph-name="ucircumflex" unicode="&#xfb;" horiz-adv-x="639" 
d="M132 600l-14 22c-16 25 -14 42 15 59l142 81c19 11 29 10 48 0l142 -81c29 -17 31 -34 15 -59l-14 -22c-17 -25 -28 -28 -60 -12l-107 54l-107 -54c-32 -16 -44 -13 -60 12zM632 54c9 -29 -1 -39 -17 -47c-31 -15 -63 -20 -86 -20c-58 0 -102 30 -119 85
c-28 -50 -75 -85 -150 -85c-124 0 -207 82 -207 204v268c0 29 17 46 46 46h82c29 0 46 -17 46 -46v-243c0 -48 28 -82 74 -82c47 0 75 34 75 83v242c0 29 16 46 45 46h83c29 0 45 -17 45 -46v-308c0 -10 1 -19 12 -19c7 0 15 5 24 5c15 2 24 -8 31 -28z" />
    <glyph glyph-name="udieresis" unicode="&#xfc;" horiz-adv-x="639" 
d="M181 582c-56 0 -102 46 -102 102s46 101 102 101s100 -45 100 -101s-44 -102 -100 -102zM423 582c-56 0 -101 46 -101 102s45 101 101 101s101 -45 101 -101s-45 -102 -101 -102zM632 54c9 -29 -1 -39 -17 -47c-31 -15 -63 -20 -86 -20c-58 0 -102 30 -119 85
c-28 -50 -75 -85 -150 -85c-124 0 -207 82 -207 204v268c0 29 17 46 46 46h82c29 0 46 -17 46 -46v-243c0 -48 28 -82 74 -82c47 0 75 34 75 83v242c0 29 16 46 45 46h83c29 0 45 -17 45 -46v-308c0 -10 1 -19 12 -19c7 0 15 5 24 5c15 2 24 -8 31 -28z" />
    <glyph glyph-name="ugrave" unicode="&#xf9;" horiz-adv-x="639" 
d="M183 659c-17 7 -26 22 -15 44l35 65c9 16 23 22 44 9l175 -102c23 -13 29 -29 18 -49l-19 -35c-9 -14 -26 -16 -47 -8zM632 54c9 -29 -1 -39 -17 -47c-31 -15 -63 -20 -86 -20c-58 0 -102 30 -119 85c-28 -50 -75 -85 -150 -85c-124 0 -207 82 -207 204v268
c0 29 17 46 46 46h82c29 0 46 -17 46 -46v-243c0 -48 28 -82 74 -82c47 0 75 34 75 83v242c0 29 16 46 45 46h83c29 0 45 -17 45 -46v-308c0 -10 1 -19 12 -19c7 0 15 5 24 5c15 2 24 -8 31 -28z" />
    <glyph glyph-name="uhungarumlaut" unicode="&#x171;" horiz-adv-x="639" 
d="M183 578c-25 0 -35 17 -27 42l45 129c11 32 29 37 57 37h50c24 0 37 -13 24 -37l-77 -141c-12 -22 -28 -30 -55 -30h-17zM381 578c-25 0 -36 17 -27 42l44 129c12 32 30 37 57 37h50c24 0 38 -13 25 -37l-77 -141c-12 -22 -29 -30 -55 -30h-17zM632 54
c9 -29 -1 -39 -17 -47c-31 -15 -63 -20 -86 -20c-58 0 -102 30 -119 85c-28 -50 -75 -85 -150 -85c-124 0 -207 82 -207 204v268c0 29 17 46 46 46h82c29 0 46 -17 46 -46v-243c0 -48 28 -82 74 -82c47 0 75 34 75 83v242c0 29 16 46 45 46h83c29 0 45 -17 45 -46v-308
c0 -10 1 -19 12 -19c7 0 15 5 24 5c15 2 24 -8 31 -28z" />
    <glyph glyph-name="umacron" unicode="&#x16b;" horiz-adv-x="639" 
d="M176 618c-30 0 -47 16 -47 47v16c0 30 17 46 47 46h251c30 0 46 -16 46 -46v-16c0 -31 -16 -47 -46 -47h-251zM632 54c9 -29 -1 -39 -17 -47c-31 -15 -63 -20 -86 -20c-58 0 -102 30 -119 85c-28 -50 -75 -85 -150 -85c-124 0 -207 82 -207 204v268c0 29 17 46 46 46h82
c29 0 46 -17 46 -46v-243c0 -48 28 -82 74 -82c47 0 75 34 75 83v242c0 29 16 46 45 46h83c29 0 45 -17 45 -46v-308c0 -10 1 -19 12 -19c7 0 15 5 24 5c15 2 24 -8 31 -28z" />
    <glyph glyph-name="uogonek" unicode="&#x173;" horiz-adv-x="639" 
d="M672 -160c11 -26 -1 -42 -27 -55c-98 -48 -214 0 -214 109c0 36 15 68 49 101c-33 13 -58 39 -70 77c-28 -50 -75 -85 -150 -85c-124 0 -207 82 -207 204v268c0 29 17 46 46 46h82c29 0 46 -17 46 -46v-243c0 -48 28 -82 74 -82c47 0 75 34 75 83v242c0 29 16 46 45 46
h83c29 0 45 -17 45 -46v-308c0 -10 1 -19 12 -19c7 0 15 5 24 5c15 2 24 -8 31 -28l16 -55c9 -29 -1 -39 -17 -47c-9 -4 -18 -8 -27 -11c-25 -24 -40 -55 -40 -82c0 -44 27 -55 67 -43c22 6 39 9 52 -20z" />
    <glyph glyph-name="uring" unicode="&#x16f;" horiz-adv-x="639" 
d="M301 578c-75 0 -133 58 -133 129s58 129 133 129s134 -58 134 -129s-60 -129 -134 -129zM301 745c-22 0 -38 -17 -38 -38s16 -38 38 -38c23 0 39 17 39 38s-16 38 -39 38zM632 54c9 -29 -1 -39 -17 -47c-31 -15 -63 -20 -86 -20c-58 0 -102 30 -119 85
c-28 -50 -75 -85 -150 -85c-124 0 -207 82 -207 204v268c0 29 17 46 46 46h82c29 0 46 -17 46 -46v-243c0 -48 28 -82 74 -82c47 0 75 34 75 83v242c0 29 16 46 45 46h83c29 0 45 -17 45 -46v-308c0 -10 1 -19 12 -19c7 0 15 5 24 5c15 2 24 -8 31 -28z" />
    <glyph glyph-name="utilde" unicode="&#x169;" horiz-adv-x="639" 
d="M135 578c-27 0 -40 8 -40 28c0 92 50 143 112 143c72 0 119 -55 168 -55c21 0 27 10 27 27c0 20 11 28 39 28h27c27 0 39 -8 39 -28c0 -93 -48 -143 -110 -143c-73 0 -122 55 -169 55c-22 0 -26 -11 -26 -27c0 -20 -13 -28 -41 -28h-26zM632 54c9 -29 -1 -39 -17 -47
c-31 -15 -63 -20 -86 -20c-58 0 -102 30 -119 85c-28 -50 -75 -85 -150 -85c-124 0 -207 82 -207 204v268c0 29 17 46 46 46h82c29 0 46 -17 46 -46v-243c0 -48 28 -82 74 -82c47 0 75 34 75 83v242c0 29 16 46 45 46h83c29 0 45 -17 45 -46v-308c0 -10 1 -19 12 -19
c7 0 15 5 24 5c15 2 24 -8 31 -28z" />
    <glyph glyph-name="v" unicode="v" horiz-adv-x="627" 
d="M336 -13c-139 0 -249 77 -249 245v115c0 9 -5 14 -11 14c-10 0 -22 -8 -33 -9c-10 -1 -20 4 -26 28l-14 66c-6 24 -2 33 20 43c38 18 73 24 98 24c92 0 139 -52 139 -149v-154c0 -49 26 -84 77 -84s83 46 83 124c0 75 -21 144 -38 177c-17 36 -23 58 21 83l38 22
c42 24 67 14 89 -25c36 -59 65 -134 65 -237c0 -154 -90 -283 -259 -283z" />
    <glyph glyph-name="w" unicode="w" horiz-adv-x="937" 
d="M840 507c36 -59 65 -131 65 -234c-1 -177 -99 -286 -262 -286c-67 0 -120 20 -156 60c-37 -36 -89 -60 -156 -60c-133 0 -243 61 -243 228v132c0 9 -5 14 -11 14c-10 0 -22 -8 -33 -9c-10 -1 -20 4 -26 28l-14 66c-6 24 -2 33 20 43c38 18 73 24 98 24
c92 0 139 -52 139 -149v-159c0 -50 27 -79 73 -79c45 0 74 31 74 79v254c0 28 16 46 46 46h66c29 0 45 -17 45 -46v-254c0 -49 30 -79 78 -79c52 0 89 42 89 138c0 75 -21 130 -40 163c-20 34 -23 58 21 83l38 22c42 24 67 14 89 -25z" />
    <glyph glyph-name="wacute" unicode="&#x1e83;" horiz-adv-x="937" 
d="M362 591l-19 35c-12 20 -6 36 17 49l175 102c21 13 35 7 44 -9l35 -65c11 -22 2 -37 -15 -44l-191 -76c-21 -8 -38 -6 -46 8zM840 507c36 -59 65 -131 65 -234c-1 -177 -99 -286 -262 -286c-67 0 -120 20 -156 60c-37 -36 -89 -60 -156 -60c-133 0 -243 61 -243 228v132
c0 9 -5 14 -11 14c-10 0 -22 -8 -33 -9c-10 -1 -20 4 -26 28l-14 66c-6 24 -2 33 20 43c38 18 73 24 98 24c92 0 139 -52 139 -149v-159c0 -50 27 -79 73 -79c45 0 74 31 74 79v254c0 28 16 46 46 46h66c29 0 45 -17 45 -46v-254c0 -49 30 -79 78 -79c52 0 89 42 89 138
c0 75 -21 130 -40 163c-20 34 -23 58 21 83l38 22c42 24 67 14 89 -25z" />
    <glyph glyph-name="wcircumflex" unicode="&#x175;" horiz-adv-x="937" 
d="M318 600l-14 22c-16 25 -14 42 15 59l142 81c19 11 29 10 48 0l142 -81c29 -17 31 -34 15 -59l-14 -22c-17 -25 -28 -28 -60 -12l-107 54l-107 -54c-32 -16 -44 -13 -60 12zM840 507c36 -59 65 -131 65 -234c-1 -177 -99 -286 -262 -286c-67 0 -120 20 -156 60
c-37 -36 -89 -60 -156 -60c-133 0 -243 61 -243 228v132c0 9 -5 14 -11 14c-10 0 -22 -8 -33 -9c-10 -1 -20 4 -26 28l-14 66c-6 24 -2 33 20 43c38 18 73 24 98 24c92 0 139 -52 139 -149v-159c0 -50 27 -79 73 -79c45 0 74 31 74 79v254c0 28 16 46 46 46h66
c29 0 45 -17 45 -46v-254c0 -49 30 -79 78 -79c52 0 89 42 89 138c0 75 -21 130 -40 163c-20 34 -23 58 21 83l38 22c42 24 67 14 89 -25z" />
    <glyph glyph-name="wdieresis" unicode="&#x1e85;" horiz-adv-x="937" 
d="M367 582c-56 0 -102 46 -102 102s46 101 102 101s100 -45 100 -101s-44 -102 -100 -102zM609 582c-56 0 -101 46 -101 102s45 101 101 101s101 -45 101 -101s-45 -102 -101 -102zM840 507c36 -59 65 -131 65 -234c-1 -177 -99 -286 -262 -286c-67 0 -120 20 -156 60
c-37 -36 -89 -60 -156 -60c-133 0 -243 61 -243 228v132c0 9 -5 14 -11 14c-10 0 -22 -8 -33 -9c-10 -1 -20 4 -26 28l-14 66c-6 24 -2 33 20 43c38 18 73 24 98 24c92 0 139 -52 139 -149v-159c0 -50 27 -79 73 -79c45 0 74 31 74 79v254c0 28 16 46 46 46h66
c29 0 45 -17 45 -46v-254c0 -49 30 -79 78 -79c52 0 89 42 89 138c0 75 -21 130 -40 163c-20 34 -23 58 21 83l38 22c42 24 67 14 89 -25z" />
    <glyph glyph-name="wgrave" unicode="&#x1e81;" horiz-adv-x="937" 
d="M368 659c-17 7 -26 22 -15 44l35 65c9 16 23 22 44 9l175 -102c23 -13 29 -29 18 -49l-19 -35c-9 -14 -26 -16 -47 -8zM840 507c36 -59 65 -131 65 -234c-1 -177 -99 -286 -262 -286c-67 0 -120 20 -156 60c-37 -36 -89 -60 -156 -60c-133 0 -243 61 -243 228v132
c0 9 -5 14 -11 14c-10 0 -22 -8 -33 -9c-10 -1 -20 4 -26 28l-14 66c-6 24 -2 33 20 43c38 18 73 24 98 24c92 0 139 -52 139 -149v-159c0 -50 27 -79 73 -79c45 0 74 31 74 79v254c0 28 16 46 46 46h66c29 0 45 -17 45 -46v-254c0 -49 30 -79 78 -79c52 0 89 42 89 138
c0 75 -21 130 -40 163c-20 34 -23 58 21 83l38 22c42 24 67 14 89 -25z" />
    <glyph glyph-name="x" unicode="x" horiz-adv-x="561" 
d="M377 251l159 -205c21 -28 7 -46 -22 -46h-108c-29 0 -44 16 -63 44l-70 100l-71 -100c-19 -28 -34 -44 -64 -44h-90c-29 0 -45 17 -23 46l160 205l-159 208c-22 29 -7 46 22 46h107c29 0 45 -16 64 -44l70 -102l69 102c20 28 35 44 64 44h91c29 0 45 -17 23 -46z" />
    <glyph glyph-name="y" unicode="y" horiz-adv-x="630" 
d="M526 505c29 0 46 -17 46 -46v-396c0 -170 -122 -253 -281 -253c-104 0 -180 37 -229 89c-13 12 -19 24 -1 45l41 49c11 12 25 19 45 1c29 -29 85 -59 146 -59c62 0 121 29 121 96v66c-31 -33 -75 -54 -132 -54c-118 0 -198 83 -198 199v105c0 9 -5 14 -11 14
c-10 0 -22 -8 -33 -9c-10 -1 -20 4 -26 28l-14 66c-6 24 -2 33 20 43c38 19 73 24 98 24c92 0 131 -52 131 -149v-92c0 -48 28 -82 74 -82c47 0 75 34 75 83v186c0 29 17 46 46 46h82z" />
    <glyph glyph-name="yacute" unicode="&#xfd;" horiz-adv-x="630" 
d="M180 591l-19 35c-12 20 -6 36 17 49l175 102c21 13 35 7 44 -9l35 -65c11 -22 2 -37 -15 -44l-191 -76c-21 -8 -38 -6 -46 8zM526 505c29 0 46 -17 46 -46v-396c0 -170 -122 -253 -281 -253c-104 0 -180 37 -229 89c-13 12 -19 24 -1 45l41 49c11 12 25 19 45 1
c29 -29 85 -59 146 -59c62 0 121 29 121 96v66c-31 -33 -75 -54 -132 -54c-118 0 -198 83 -198 199v105c0 9 -5 14 -11 14c-10 0 -22 -8 -33 -9c-10 -1 -20 4 -26 28l-14 66c-6 24 -2 33 20 43c38 19 73 24 98 24c92 0 131 -52 131 -149v-92c0 -48 28 -82 74 -82
c47 0 75 34 75 83v186c0 29 17 46 46 46h82z" />
    <glyph glyph-name="ycircumflex" unicode="&#x177;" horiz-adv-x="630" 
d="M136 600l-14 22c-16 25 -14 42 15 59l142 81c19 11 29 10 48 0l142 -81c29 -17 31 -34 15 -59l-14 -22c-17 -25 -28 -28 -60 -12l-107 54l-107 -54c-32 -16 -44 -13 -60 12zM526 505c29 0 46 -17 46 -46v-396c0 -170 -122 -253 -281 -253c-104 0 -180 37 -229 89
c-13 12 -19 24 -1 45l41 49c11 12 25 19 45 1c29 -29 85 -59 146 -59c62 0 121 29 121 96v66c-31 -33 -75 -54 -132 -54c-118 0 -198 83 -198 199v105c0 9 -5 14 -11 14c-10 0 -22 -8 -33 -9c-10 -1 -20 4 -26 28l-14 66c-6 24 -2 33 20 43c38 19 73 24 98 24
c92 0 131 -52 131 -149v-92c0 -48 28 -82 74 -82c47 0 75 34 75 83v186c0 29 17 46 46 46h82z" />
    <glyph glyph-name="ydieresis" unicode="&#xff;" horiz-adv-x="630" 
d="M185 582c-56 0 -102 46 -102 102s46 101 102 101s100 -45 100 -101s-44 -102 -100 -102zM427 582c-56 0 -101 46 -101 102s45 101 101 101s101 -45 101 -101s-45 -102 -101 -102zM526 505c29 0 46 -17 46 -46v-396c0 -170 -122 -253 -281 -253c-104 0 -180 37 -229 89
c-13 12 -19 24 -1 45l41 49c11 12 25 19 45 1c29 -29 85 -59 146 -59c62 0 121 29 121 96v66c-31 -33 -75 -54 -132 -54c-118 0 -198 83 -198 199v105c0 9 -5 14 -11 14c-10 0 -22 -8 -33 -9c-10 -1 -20 4 -26 28l-14 66c-6 24 -2 33 20 43c38 19 73 24 98 24
c92 0 131 -52 131 -149v-92c0 -48 28 -82 74 -82c47 0 75 34 75 83v186c0 29 17 46 46 46h82z" />
    <glyph glyph-name="ygrave" unicode="&#x1ef3;" horiz-adv-x="630" 
d="M187 659c-17 7 -26 22 -15 44l35 65c9 16 23 22 44 9l175 -102c23 -13 29 -29 18 -49l-19 -35c-9 -14 -26 -16 -47 -8zM526 505c29 0 46 -17 46 -46v-396c0 -170 -122 -253 -281 -253c-104 0 -180 37 -229 89c-13 12 -19 24 -1 45l41 49c11 12 25 19 45 1
c29 -29 85 -59 146 -59c62 0 121 29 121 96v66c-31 -33 -75 -54 -132 -54c-118 0 -198 83 -198 199v105c0 9 -5 14 -11 14c-10 0 -22 -8 -33 -9c-10 -1 -20 4 -26 28l-14 66c-6 24 -2 33 20 43c38 19 73 24 98 24c92 0 131 -52 131 -149v-92c0 -48 28 -82 74 -82
c47 0 75 34 75 83v186c0 29 17 46 46 46h82z" />
    <glyph glyph-name="uni1EF9" unicode="&#x1ef9;" horiz-adv-x="630" 
d="M139 578c-27 0 -40 8 -40 28c0 92 50 143 112 143c72 0 119 -55 168 -55c21 0 27 10 27 27c0 20 11 28 39 28h27c27 0 39 -8 39 -28c0 -93 -48 -143 -110 -143c-73 0 -122 55 -169 55c-22 0 -26 -11 -26 -27c0 -20 -13 -28 -41 -28h-26zM526 505c29 0 46 -17 46 -46v-396
c0 -170 -122 -253 -281 -253c-104 0 -180 37 -229 89c-13 12 -19 24 -1 45l41 49c11 12 25 19 45 1c29 -29 85 -59 146 -59c62 0 121 29 121 96v66c-31 -33 -75 -54 -132 -54c-118 0 -198 83 -198 199v105c0 9 -5 14 -11 14c-10 0 -22 -8 -33 -9c-10 -1 -20 4 -26 28l-14 66
c-6 24 -2 33 20 43c38 19 73 24 98 24c92 0 131 -52 131 -149v-92c0 -48 28 -82 74 -82c47 0 75 34 75 83v186c0 29 17 46 46 46h82z" />
    <glyph glyph-name="z" unicode="z" horiz-adv-x="514" 
d="M77 0c-29 0 -45 17 -45 46v52c0 25 14 39 44 70l199 212h-192c-31 0 -46 17 -46 45v34c0 30 17 46 46 46h345c29 0 46 -17 46 -46v-52c0 -25 -15 -41 -45 -72l-187 -210h200c29 0 46 -16 46 -45v-34c0 -29 -15 -46 -46 -46h-365z" />
    <glyph glyph-name="zacute" unicode="&#x17a;" horiz-adv-x="514" 
d="M134 591l-19 35c-12 20 -6 36 17 49l175 102c21 13 35 7 44 -9l35 -65c11 -22 2 -37 -15 -44l-191 -76c-21 -8 -38 -6 -46 8zM77 0c-29 0 -45 17 -45 46v52c0 25 14 39 44 70l199 212h-192c-31 0 -46 17 -46 45v34c0 30 17 46 46 46h345c29 0 46 -17 46 -46v-52
c0 -25 -15 -41 -45 -72l-187 -210h200c29 0 46 -16 46 -45v-34c0 -29 -15 -46 -46 -46h-365z" />
    <glyph glyph-name="zcaron" unicode="&#x17e;" horiz-adv-x="514" 
d="M94 668c-29 16 -38 30 -17 59l16 21c17 24 28 29 60 13l107 -54l107 54c32 16 42 11 60 -13l16 -21c20 -29 12 -43 -17 -59l-142 -82c-19 -12 -29 -11 -48 0zM442 125c29 0 46 -16 46 -45v-34c0 -29 -15 -46 -46 -46h-365c-29 0 -45 17 -45 46v52c0 25 14 39 44 70
l199 212h-192c-31 0 -46 17 -46 45v34c0 30 17 46 46 46h345c29 0 46 -17 46 -46v-52c0 -25 -15 -41 -45 -72l-187 -210h200z" />
    <glyph glyph-name="zdotaccent" unicode="&#x17c;" horiz-adv-x="514" 
d="M260 582c-57 0 -104 47 -104 104c0 58 47 104 104 104c58 0 104 -46 104 -104c0 -57 -46 -104 -104 -104zM77 0c-29 0 -45 17 -45 46v52c0 25 14 39 44 70l199 212h-192c-31 0 -46 17 -46 45v34c0 30 17 46 46 46h345c29 0 46 -17 46 -46v-52c0 -25 -15 -41 -45 -72
l-187 -210h200c29 0 46 -16 46 -45v-34c0 -29 -15 -46 -46 -46h-365z" />
    <glyph glyph-name="a.ss01" horiz-adv-x="570" 
d="M276 513c121 0 239 -53 239 -214v-253c0 -30 -16 -46 -46 -46h-41c-29 0 -45 17 -45 46v4c-42 -38 -98 -63 -160 -63c-119 0 -197 64 -197 159c0 103 85 171 215 171c39 0 78 -9 114 -21v18c0 47 -33 75 -91 75c-49 0 -88 -15 -112 -29c-22 -12 -44 -10 -58 18l-11 23
c-17 32 -9 50 12 63c49 31 121 49 181 49zM267 94c54 0 92 34 92 61v41c-19 9 -54 22 -90 22c-49 0 -81 -26 -81 -63s31 -61 79 -61z" />
    <glyph glyph-name="aacute.ss01" horiz-adv-x="570" 
d="M165 591l-19 35c-12 20 -6 36 17 49l175 102c21 13 35 7 44 -9l35 -65c11 -22 2 -37 -15 -44l-191 -76c-21 -8 -38 -6 -46 8zM276 513c121 0 239 -53 239 -214v-253c0 -30 -16 -46 -46 -46h-41c-29 0 -45 17 -45 46v4c-42 -38 -98 -63 -160 -63c-119 0 -197 64 -197 159
c0 103 85 171 215 171c39 0 78 -9 114 -21v18c0 47 -33 75 -91 75c-49 0 -88 -15 -112 -29c-22 -12 -44 -10 -58 18l-11 23c-17 32 -9 50 12 63c49 31 121 49 181 49zM267 94c54 0 92 34 92 61v41c-19 9 -54 22 -90 22c-49 0 -81 -26 -81 -63s31 -61 79 -61z" />
    <glyph glyph-name="abreve.ss01" horiz-adv-x="570" 
d="M292 578c-127 0 -178 100 -182 160c-1 22 9 40 39 40h31c32 0 39 -22 43 -40c7 -29 21 -66 69 -66s61 37 68 66c4 18 11 40 43 40h31c30 0 40 -18 39 -40c-4 -60 -55 -160 -181 -160zM276 513c121 0 239 -53 239 -214v-253c0 -30 -16 -46 -46 -46h-41
c-29 0 -45 17 -45 46v4c-42 -38 -98 -63 -160 -63c-119 0 -197 64 -197 159c0 103 85 171 215 171c39 0 78 -9 114 -21v18c0 47 -33 75 -91 75c-49 0 -88 -15 -112 -29c-22 -12 -44 -10 -58 18l-11 23c-17 32 -9 50 12 63c49 31 121 49 181 49zM267 94c54 0 92 34 92 61v41
c-19 9 -54 22 -90 22c-49 0 -81 -26 -81 -63s31 -61 79 -61z" />
    <glyph glyph-name="acircumflex.ss01" horiz-adv-x="570" 
d="M121 600l-14 22c-16 25 -14 42 15 59l142 81c19 11 29 10 48 0l142 -81c29 -17 31 -34 15 -59l-14 -22c-17 -25 -28 -28 -60 -12l-107 54l-107 -54c-32 -16 -44 -13 -60 12zM276 513c121 0 239 -53 239 -214v-253c0 -30 -16 -46 -46 -46h-41c-29 0 -45 17 -45 46v4
c-42 -38 -98 -63 -160 -63c-119 0 -197 64 -197 159c0 103 85 171 215 171c39 0 78 -9 114 -21v18c0 47 -33 75 -91 75c-49 0 -88 -15 -112 -29c-22 -12 -44 -10 -58 18l-11 23c-17 32 -9 50 12 63c49 31 121 49 181 49zM267 94c54 0 92 34 92 61v41c-19 9 -54 22 -90 22
c-49 0 -81 -26 -81 -63s31 -61 79 -61z" />
    <glyph glyph-name="adieresis.ss01" horiz-adv-x="570" 
d="M170 582c-56 0 -102 46 -102 102s46 101 102 101s100 -45 100 -101s-44 -102 -100 -102zM412 582c-56 0 -101 46 -101 102s45 101 101 101s101 -45 101 -101s-45 -102 -101 -102zM276 513c121 0 239 -53 239 -214v-253c0 -30 -16 -46 -46 -46h-41c-29 0 -45 17 -45 46v4
c-42 -38 -98 -63 -160 -63c-119 0 -197 64 -197 159c0 103 85 171 215 171c39 0 78 -9 114 -21v18c0 47 -33 75 -91 75c-49 0 -88 -15 -112 -29c-22 -12 -44 -10 -58 18l-11 23c-17 32 -9 50 12 63c49 31 121 49 181 49zM267 94c54 0 92 34 92 61v41c-19 9 -54 22 -90 22
c-49 0 -81 -26 -81 -63s31 -61 79 -61z" />
    <glyph glyph-name="agrave.ss01" horiz-adv-x="570" 
d="M172 659c-17 7 -26 22 -15 44l35 65c9 16 23 22 44 9l175 -102c23 -13 29 -29 18 -49l-19 -35c-9 -14 -26 -16 -47 -8zM276 513c121 0 239 -53 239 -214v-253c0 -30 -16 -46 -46 -46h-41c-29 0 -45 17 -45 46v4c-42 -38 -98 -63 -160 -63c-119 0 -197 64 -197 159
c0 103 85 171 215 171c39 0 78 -9 114 -21v18c0 47 -33 75 -91 75c-49 0 -88 -15 -112 -29c-22 -12 -44 -10 -58 18l-11 23c-17 32 -9 50 12 63c49 31 121 49 181 49zM267 94c54 0 92 34 92 61v41c-19 9 -54 22 -90 22c-49 0 -81 -26 -81 -63s31 -61 79 -61z" />
    <glyph glyph-name="amacron.ss01" horiz-adv-x="570" 
d="M165 618c-30 0 -47 16 -47 47v16c0 30 17 46 47 46h251c30 0 46 -16 46 -46v-16c0 -31 -16 -47 -46 -47h-251zM276 513c121 0 239 -53 239 -214v-253c0 -30 -16 -46 -46 -46h-41c-29 0 -45 17 -45 46v4c-42 -38 -98 -63 -160 -63c-119 0 -197 64 -197 159
c0 103 85 171 215 171c39 0 78 -9 114 -21v18c0 47 -33 75 -91 75c-49 0 -88 -15 -112 -29c-22 -12 -44 -10 -58 18l-11 23c-17 32 -9 50 12 63c49 31 121 49 181 49zM267 94c54 0 92 34 92 61v41c-19 9 -54 22 -90 22c-49 0 -81 -26 -81 -63s31 -61 79 -61z" />
    <glyph glyph-name="aogonek.ss01" horiz-adv-x="570" 
d="M547 -171c11 -26 -1 -42 -27 -55c-98 -48 -214 0 -214 109c0 47 26 89 86 132c-6 8 -9 18 -9 31v4c-42 -38 -98 -63 -160 -63c-119 0 -197 64 -197 159c0 103 85 171 215 171c39 0 78 -9 114 -21v18c0 47 -33 75 -91 75c-49 0 -88 -15 -112 -29c-22 -12 -44 -10 -58 18
l-11 23c-17 32 -9 50 12 63c49 31 121 49 181 49c121 0 239 -53 239 -214v-253c0 -25 -12 -41 -33 -45c-36 -25 -59 -65 -59 -98c0 -44 27 -55 67 -43c22 6 39 9 52 -20zM267 94c54 0 92 34 92 61v41c-19 9 -54 22 -90 22c-49 0 -81 -26 -81 -63s31 -61 79 -61z" />
    <glyph glyph-name="aring.ss01" horiz-adv-x="570" 
d="M290 578c-75 0 -133 58 -133 129s58 129 133 129s134 -58 134 -129s-60 -129 -134 -129zM290 745c-22 0 -38 -17 -38 -38s16 -38 38 -38c23 0 39 17 39 38s-16 38 -39 38zM276 513c121 0 239 -53 239 -214v-253c0 -30 -16 -46 -46 -46h-41c-29 0 -45 17 -45 46v4
c-42 -38 -98 -63 -160 -63c-119 0 -197 64 -197 159c0 103 85 171 215 171c39 0 78 -9 114 -21v18c0 47 -33 75 -91 75c-49 0 -88 -15 -112 -29c-22 -12 -44 -10 -58 18l-11 23c-17 32 -9 50 12 63c49 31 121 49 181 49zM267 94c54 0 92 34 92 61v41c-19 9 -54 22 -90 22
c-49 0 -81 -26 -81 -63s31 -61 79 -61z" />
    <glyph glyph-name="atilde.ss01" horiz-adv-x="570" 
d="M124 578c-27 0 -40 8 -40 28c0 92 50 143 112 143c72 0 119 -55 168 -55c21 0 27 10 27 27c0 20 11 28 39 28h27c27 0 39 -8 39 -28c0 -93 -48 -143 -110 -143c-73 0 -122 55 -169 55c-22 0 -26 -11 -26 -27c0 -20 -13 -28 -41 -28h-26zM276 513c121 0 239 -53 239 -214
v-253c0 -30 -16 -46 -46 -46h-41c-29 0 -45 17 -45 46v4c-42 -38 -98 -63 -160 -63c-119 0 -197 64 -197 159c0 103 85 171 215 171c39 0 78 -9 114 -21v18c0 47 -33 75 -91 75c-49 0 -88 -15 -112 -29c-22 -12 -44 -10 -58 18l-11 23c-17 32 -9 50 12 63
c49 31 121 49 181 49zM267 94c54 0 92 34 92 61v41c-19 9 -54 22 -90 22c-49 0 -81 -26 -81 -63s31 -61 79 -61z" />
    <glyph glyph-name="d.ss01" horiz-adv-x="640" 
d="M533 713c30 4 46 -16 46 -46v-621c0 -29 -16 -46 -45 -46h-53c-29 0 -46 17 -46 46v4c-39 -38 -91 -63 -156 -63c-144 0 -250 115 -250 263s105 263 250 263c48 0 91 -13 127 -35v174c0 29 16 41 45 46zM307 135c61 0 107 45 107 115s-47 115 -107 115
c-63 0 -108 -50 -108 -115s45 -115 108 -115z" />
    <glyph glyph-name="dcaron.ss01" horiz-adv-x="714" 
d="M533 713c30 4 46 -16 46 -46v-621c0 -29 -16 -46 -45 -46h-53c-29 0 -46 17 -46 46v4c-39 -38 -91 -63 -156 -63c-144 0 -250 115 -250 263s105 263 250 263c48 0 91 -13 127 -35v174c0 29 16 41 45 46zM764 713c31 0 40 -17 31 -41l-52 -145c-11 -28 -25 -35 -43 -35
h-33c-24 0 -33 16 -30 41l24 144c4 32 17 36 41 36h62zM307 135c61 0 107 45 107 115s-47 115 -107 115c-63 0 -108 -50 -108 -115s45 -115 108 -115z" />
    <glyph glyph-name="dcroat.ss01" horiz-adv-x="639" 
d="M617 633c29 0 45 -10 45 -37v-5c0 -25 -16 -36 -45 -36h-38v-509c0 -29 -16 -46 -45 -46h-52c-30 0 -46 17 -46 46v5c-39 -39 -92 -64 -157 -64c-144 0 -250 115 -250 263s105 263 250 263c48 0 91 -13 127 -35v77h-103c-29 0 -44 11 -44 36v5c0 27 15 37 44 37h103v19
c0 29 16 41 45 46l82 15c30 4 46 -16 46 -46v-34h38zM308 135c60 0 107 45 107 115s-47 115 -107 115c-64 0 -108 -50 -108 -115s44 -115 108 -115z" />
    <glyph glyph-name="e.ss01" horiz-adv-x="579" 
d="M490 147l35 -35c21 -21 13 -38 1 -51c-45 -48 -136 -74 -215 -74c-167 0 -281 108 -281 263c0 151 112 263 281 263c146 0 239 -67 239 -166c0 -93 -95 -157 -239 -157c-36 0 -70 2 -104 6c19 -54 66 -86 124 -86c36 0 71 11 107 36c18 14 33 21 52 1zM312 393
c-48 0 -101 -33 -112 -111c35 -6 71 -9 111 -9c49 0 81 20 81 57c0 39 -32 63 -80 63z" />
    <glyph glyph-name="eacute.ss01" horiz-adv-x="579" 
d="M189 591l-19 35c-12 20 -6 36 17 49l175 102c21 13 35 7 44 -9l35 -65c11 -22 2 -37 -15 -44l-191 -76c-21 -8 -38 -6 -46 8zM490 147l35 -35c21 -21 13 -38 1 -51c-45 -48 -136 -74 -215 -74c-167 0 -281 108 -281 263c0 151 112 263 281 263c146 0 239 -67 239 -166
c0 -93 -95 -157 -239 -157c-36 0 -70 2 -104 6c19 -54 66 -86 124 -86c36 0 71 11 107 36c18 14 33 21 52 1zM312 393c-48 0 -101 -33 -112 -111c35 -6 71 -9 111 -9c49 0 81 20 81 57c0 39 -32 63 -80 63z" />
    <glyph glyph-name="ecaron.ss01" horiz-adv-x="579" 
d="M148 668c-29 16 -38 30 -17 59l16 21c17 24 28 29 60 13l107 -54l107 54c32 16 42 11 60 -13l16 -21c20 -29 12 -43 -17 -59l-142 -82c-19 -12 -29 -11 -48 0zM490 147l35 -35c21 -21 13 -38 1 -51c-45 -48 -136 -74 -215 -74c-167 0 -281 108 -281 263
c0 151 112 263 281 263c146 0 239 -67 239 -166c0 -93 -95 -157 -239 -157c-36 0 -70 2 -104 6c19 -54 66 -86 124 -86c36 0 71 11 107 36c18 14 33 21 52 1zM312 393c-48 0 -101 -33 -112 -111c35 -6 71 -9 111 -9c49 0 81 20 81 57c0 39 -32 63 -80 63z" />
    <glyph glyph-name="ecircumflex.ss01" horiz-adv-x="579" 
d="M144 600l-14 22c-16 25 -14 42 15 59l142 81c19 11 29 10 48 0l142 -81c29 -17 31 -34 15 -59l-14 -22c-17 -25 -28 -28 -60 -12l-107 54l-107 -54c-32 -16 -44 -13 -60 12zM490 147l35 -35c21 -21 13 -38 1 -51c-45 -48 -136 -74 -215 -74c-167 0 -281 108 -281 263
c0 151 112 263 281 263c146 0 239 -67 239 -166c0 -93 -95 -157 -239 -157c-36 0 -70 2 -104 6c19 -54 66 -86 124 -86c36 0 71 11 107 36c18 14 33 21 52 1zM312 393c-48 0 -101 -33 -112 -111c35 -6 71 -9 111 -9c49 0 81 20 81 57c0 39 -32 63 -80 63z" />
    <glyph glyph-name="edieresis.ss01" horiz-adv-x="579" 
d="M194 582c-56 0 -102 46 -102 102s46 101 102 101s100 -45 100 -101s-44 -102 -100 -102zM436 582c-56 0 -101 46 -101 102s45 101 101 101s101 -45 101 -101s-45 -102 -101 -102zM490 147l35 -35c21 -21 13 -38 1 -51c-45 -48 -136 -74 -215 -74
c-167 0 -281 108 -281 263c0 151 112 263 281 263c146 0 239 -67 239 -166c0 -93 -95 -157 -239 -157c-36 0 -70 2 -104 6c19 -54 66 -86 124 -86c36 0 71 11 107 36c18 14 33 21 52 1zM312 393c-48 0 -101 -33 -112 -111c35 -6 71 -9 111 -9c49 0 81 20 81 57
c0 39 -32 63 -80 63z" />
    <glyph glyph-name="edotaccent.ss01" horiz-adv-x="579" 
d="M314 582c-57 0 -104 47 -104 104c0 58 47 104 104 104c58 0 104 -46 104 -104c0 -57 -46 -104 -104 -104zM490 147l35 -35c21 -21 13 -38 1 -51c-45 -48 -136 -74 -215 -74c-167 0 -281 108 -281 263c0 151 112 263 281 263c146 0 239 -67 239 -166
c0 -93 -95 -157 -239 -157c-36 0 -70 2 -104 6c19 -54 66 -86 124 -86c36 0 71 11 107 36c18 14 33 21 52 1zM312 393c-48 0 -101 -33 -112 -111c35 -6 71 -9 111 -9c49 0 81 20 81 57c0 39 -32 63 -80 63z" />
    <glyph glyph-name="egrave.ss01" horiz-adv-x="579" 
d="M195 659c-17 7 -26 22 -15 44l35 65c9 16 23 22 44 9l175 -102c23 -13 29 -29 18 -49l-19 -35c-9 -14 -26 -16 -47 -8zM490 147l35 -35c21 -21 13 -38 1 -51c-45 -48 -136 -74 -215 -74c-167 0 -281 108 -281 263c0 151 112 263 281 263c146 0 239 -67 239 -166
c0 -93 -95 -157 -239 -157c-36 0 -70 2 -104 6c19 -54 66 -86 124 -86c36 0 71 11 107 36c18 14 33 21 52 1zM312 393c-48 0 -101 -33 -112 -111c35 -6 71 -9 111 -9c49 0 81 20 81 57c0 39 -32 63 -80 63z" />
    <glyph glyph-name="emacron.ss01" horiz-adv-x="579" 
d="M189 618c-30 0 -47 16 -47 47v16c0 30 17 46 47 46h251c30 0 46 -16 46 -46v-16c0 -31 -16 -47 -46 -47h-251zM490 147l35 -35c21 -21 13 -38 1 -51c-45 -48 -136 -74 -215 -74c-167 0 -281 108 -281 263c0 151 112 263 281 263c146 0 239 -67 239 -166
c0 -93 -95 -157 -239 -157c-36 0 -70 2 -104 6c19 -54 66 -86 124 -86c36 0 71 11 107 36c18 14 33 21 52 1zM312 393c-48 0 -101 -33 -112 -111c35 -6 71 -9 111 -9c49 0 81 20 81 57c0 39 -32 63 -80 63z" />
    <glyph glyph-name="eogonek.ss01" horiz-adv-x="579" 
d="M526 61c-21 -22 -52 -40 -86 -52c-22 -24 -35 -52 -35 -77c0 -44 27 -55 67 -43c22 6 39 9 52 -20l5 -11c11 -26 -1 -42 -27 -55c-98 -48 -214 0 -214 109c0 26 8 51 26 75h-3c-167 0 -281 108 -281 263c0 151 112 263 281 263c146 0 239 -67 239 -166
c0 -93 -95 -157 -239 -157c-36 0 -70 2 -104 6c19 -54 66 -86 124 -86c36 0 71 11 107 36c18 14 33 21 52 1l35 -35c21 -21 13 -38 1 -51zM312 393c-48 0 -101 -33 -112 -111c35 -6 71 -9 111 -9c49 0 81 20 81 57c0 39 -32 63 -80 63z" />
    <glyph glyph-name="g.ss01" horiz-adv-x="614" 
d="M511 505c29 0 46 -17 46 -46v-396c0 -170 -123 -253 -282 -253c-106 0 -181 37 -229 85c-16 17 -22 37 -2 61l28 33c16 17 35 22 60 2c28 -26 82 -56 145 -56c62 0 122 29 122 96v51c-37 -25 -83 -40 -134 -40c-134 0 -236 100 -236 236c0 135 102 235 237 235
c60 0 112 -21 153 -55v1c0 29 16 46 46 46h46zM305 169c62 0 106 46 106 108c0 64 -44 109 -106 109c-61 0 -105 -45 -105 -108s44 -109 105 -109z" />
    <glyph glyph-name="gbreve.ss01" horiz-adv-x="614" 
d="M299 578c-127 0 -178 100 -182 160c-1 22 9 40 39 40h31c32 0 39 -22 43 -40c7 -29 21 -66 69 -66s61 37 68 66c4 18 11 40 43 40h31c30 0 40 -18 39 -40c-4 -60 -55 -160 -181 -160zM511 505c29 0 46 -17 46 -46v-396c0 -170 -123 -253 -282 -253
c-106 0 -181 37 -229 85c-16 17 -22 37 -2 61l28 33c16 17 35 22 60 2c28 -26 82 -56 145 -56c62 0 122 29 122 96v51c-37 -25 -83 -40 -134 -40c-134 0 -236 100 -236 236c0 135 102 235 237 235c60 0 112 -21 153 -55v1c0 29 16 46 46 46h46zM305 169c62 0 106 46 106 108
c0 64 -44 109 -106 109c-61 0 -105 -45 -105 -108s44 -109 105 -109z" />
    <glyph glyph-name="uni0123.ss01" horiz-adv-x="614" 
d="M267 578c-32 0 -40 18 -31 42l50 142c11 29 25 36 44 36h32c25 0 36 -15 33 -41l-22 -141c-5 -34 -18 -38 -44 -38h-62zM511 505c29 0 46 -17 46 -46v-396c0 -170 -123 -253 -282 -253c-106 0 -181 37 -229 85c-16 17 -22 37 -2 61l28 33c16 17 35 22 60 2
c28 -26 82 -56 145 -56c62 0 122 29 122 96v51c-37 -25 -83 -40 -134 -40c-134 0 -236 100 -236 236c0 135 102 235 237 235c60 0 112 -21 153 -55v1c0 29 16 46 46 46h46zM305 169c62 0 106 46 106 108c0 64 -44 109 -106 109c-61 0 -105 -45 -105 -108s44 -109 105 -109z
" />
    <glyph glyph-name="gdotaccent.ss01" horiz-adv-x="614" 
d="M297 582c-57 0 -104 47 -104 104c0 58 47 104 104 104c58 0 104 -46 104 -104c0 -57 -46 -104 -104 -104zM511 505c29 0 46 -17 46 -46v-396c0 -170 -123 -253 -282 -253c-106 0 -181 37 -229 85c-16 17 -22 37 -2 61l28 33c16 17 35 22 60 2c28 -26 82 -56 145 -56
c62 0 122 29 122 96v51c-37 -25 -83 -40 -134 -40c-134 0 -236 100 -236 236c0 135 102 235 237 235c60 0 112 -21 153 -55v1c0 29 16 46 46 46h46zM305 169c62 0 106 46 106 108c0 64 -44 109 -106 109c-61 0 -105 -45 -105 -108s44 -109 105 -109z" />
    <glyph glyph-name="i.ss01" horiz-adv-x="290" 
d="M145 582c-57 0 -104 47 -104 104c0 58 47 104 104 104c58 0 104 -46 104 -104c0 -57 -46 -104 -104 -104zM104 0c-30 0 -46 17 -46 46v413c0 29 16 46 46 46h82c29 0 46 -17 46 -46v-413c0 -29 -17 -46 -46 -46h-82z" />
    <glyph glyph-name="dotlessi.ss01" horiz-adv-x="290" 
d="M104 0c-30 0 -46 17 -46 46v413c0 29 16 46 46 46h82c29 0 46 -17 46 -46v-413c0 -29 -17 -46 -46 -46h-82z" />
    <glyph glyph-name="iacute.ss01" horiz-adv-x="290" 
d="M19 591l-19 35c-12 20 -6 36 17 49l175 102c21 13 35 7 44 -9l35 -65c11 -22 2 -37 -15 -44l-191 -76c-21 -8 -38 -6 -46 8zM104 0c-30 0 -46 17 -46 46v413c0 29 16 46 46 46h82c29 0 46 -17 46 -46v-413c0 -29 -17 -46 -46 -46h-82z" />
    <glyph glyph-name="icircumflex.ss01" horiz-adv-x="290" 
d="M291 681c26 -17 28 -34 14 -59l-13 -22c-15 -25 -25 -28 -54 -12l-96 54l-96 -54c-29 -16 -40 -13 -54 12l-13 22c-14 25 -12 42 13 59l128 81c17 11 26 10 44 0zM186 505c29 0 46 -17 46 -46v-413c0 -29 -17 -46 -46 -46h-82c-30 0 -46 17 -46 46v413c0 29 16 46 46 46
h82z" />
    <glyph glyph-name="idieresis.ss01" horiz-adv-x="290" 
d="M24 582c-56 0 -102 46 -102 102s46 101 102 101s100 -45 100 -101s-44 -102 -100 -102zM266 582c-56 0 -101 46 -101 102s45 101 101 101s101 -45 101 -101s-45 -102 -101 -102zM104 0c-30 0 -46 17 -46 46v413c0 29 16 46 46 46h82c29 0 46 -17 46 -46v-413
c0 -29 -17 -46 -46 -46h-82z" />
    <glyph glyph-name="i.loclTRK.ss01" horiz-adv-x="290" 
d="M145 582c-57 0 -104 47 -104 104c0 58 47 104 104 104c58 0 104 -46 104 -104c0 -57 -46 -104 -104 -104zM104 0c-30 0 -46 17 -46 46v413c0 29 16 46 46 46h82c29 0 46 -17 46 -46v-413c0 -29 -17 -46 -46 -46h-82z" />
    <glyph glyph-name="igrave.ss01" horiz-adv-x="290" 
d="M264 591c-9 -14 -26 -16 -47 -8l-191 76c-17 7 -26 22 -15 44l35 65c9 16 23 22 44 9l175 -102c23 -13 29 -29 18 -49zM104 0c-30 0 -46 17 -46 46v413c0 29 16 46 46 46h82c29 0 46 -17 46 -46v-413c0 -29 -17 -46 -46 -46h-82z" />
    <glyph glyph-name="ij.ss01" horiz-adv-x="582" 
d="M143 582c-57 0 -104 47 -104 104c0 58 47 104 104 104c58 0 104 -46 104 -104c0 -57 -46 -104 -104 -104zM437 582c-57 0 -104 46 -104 104c0 57 47 104 104 104c58 0 104 -47 104 -104c0 -58 -46 -104 -104 -104zM102 0c-30 0 -46 17 -46 46v413c0 29 16 46 46 46h82
c29 0 46 -17 46 -46v-413c0 -29 -17 -46 -46 -46h-82zM365 -183c-26 -13 -50 -8 -64 17l-31 60c-14 26 -8 48 18 63c60 35 63 55 63 163v339c0 29 16 46 45 46h83c29 0 45 -17 45 -46v-350c0 -164 -18 -224 -159 -292z" />
    <glyph glyph-name="imacron.ss01" horiz-adv-x="290" 
d="M21 618c-30 0 -46 16 -46 47v16c0 30 16 46 46 46h248c29 0 46 -16 46 -46v-16c0 -31 -17 -47 -46 -47h-248zM104 0c-30 0 -46 17 -46 46v413c0 29 16 46 46 46h82c29 0 46 -17 46 -46v-413c0 -29 -17 -46 -46 -46h-82z" />
    <glyph glyph-name="iogonek.ss01" horiz-adv-x="290" 
d="M145 582c-57 0 -104 47 -104 104c0 58 47 104 104 104c58 0 104 -46 104 -104c0 -57 -46 -104 -104 -104zM256 -171c11 -26 -1 -42 -27 -55c-98 -48 -214 0 -214 109c0 42 22 81 70 120c-18 6 -27 21 -27 43v413c0 29 16 46 46 46h82c29 0 46 -17 46 -46v-413
c0 -28 -16 -45 -43 -46c-35 -25 -57 -65 -57 -97c0 -44 27 -55 67 -43c22 6 39 9 52 -20z" />
    <glyph glyph-name="itilde.ss01" horiz-adv-x="290" 
d="M-12 578c-26 0 -38 8 -38 28c0 92 47 143 106 143c68 0 112 -55 158 -55c20 0 25 10 25 27c0 20 11 28 38 28h25c26 0 37 -8 37 -28c0 -93 -46 -143 -104 -143c-69 0 -115 55 -160 55c-20 0 -24 -11 -24 -27c0 -20 -12 -28 -38 -28h-25zM104 0c-30 0 -46 17 -46 46v413
c0 29 16 46 46 46h82c29 0 46 -17 46 -46v-413c0 -29 -17 -46 -46 -46h-82z" />
    <glyph glyph-name="j.ss01" horiz-adv-x="292" 
d="M148 582c-57 0 -104 47 -104 104c0 58 47 104 104 104c58 0 104 -46 104 -104c0 -57 -46 -104 -104 -104zM76 -183c-27 -13 -50 -8 -64 17l-32 60c-14 26 -8 48 18 63c60 35 63 55 63 163v339c0 29 17 46 46 46h82c29 0 46 -17 46 -46v-350c0 -164 -18 -224 -159 -292z
" />
    <glyph glyph-name="uni0237.ss01" horiz-adv-x="292" 
d="M76 -183c-27 -13 -50 -8 -64 17l-32 60c-14 26 -8 48 18 63c60 35 63 55 63 163v339c0 29 17 46 46 46h82c29 0 46 -17 46 -46v-350c0 -164 -18 -224 -159 -292z" />
    <glyph glyph-name="uni006A0301.ss01" horiz-adv-x="292" 
d="M20 591l-19 35c-12 20 -6 36 17 49l175 102c21 13 35 7 44 -9l35 -65c11 -22 2 -37 -15 -44l-191 -76c-21 -8 -38 -6 -46 8zM76 -183c-27 -13 -50 -8 -64 17l-32 60c-14 26 -8 48 18 63c60 35 63 55 63 163v339c0 29 17 46 46 46h82c29 0 46 -17 46 -46v-350
c0 -164 -18 -224 -159 -292z" />
    <glyph glyph-name="k.ss01" horiz-adv-x="589" 
d="M578 49c8 -28 -3 -40 -18 -47c-29 -13 -49 -15 -71 -15c-58 0 -99 20 -130 66l-92 138l-36 -42v-103c0 -29 -17 -46 -46 -46h-81c-29 0 -45 17 -45 46v606c0 29 16 41 45 46l80 15c30 6 47 -16 47 -46v-366l126 159c22 27 38 45 68 45h101c29 0 48 -18 25 -46l-154 -183
l80 -125c8 -12 17 -19 25 -21s14 -1 24 2c22 6 31 -1 37 -24z" />
    <glyph glyph-name="uni0137.ss01" horiz-adv-x="589" 
d="M578 49c8 -28 -3 -40 -18 -47c-29 -13 -49 -15 -71 -15c-58 0 -99 20 -130 66l-92 138l-36 -42v-103c0 -29 -17 -46 -46 -46h-81c-29 0 -45 17 -45 46v606c0 29 16 41 45 46l80 15c30 6 47 -16 47 -46v-366l126 159c22 27 38 45 68 45h101c29 0 48 -18 25 -46l-154 -183
l80 -125c8 -12 17 -19 25 -21s14 -1 24 2c22 6 31 -1 37 -24zM340 -54c32 0 40 -17 31 -42l-49 -135c-11 -30 -26 -37 -45 -37h-32c-25 0 -34 16 -30 42l19 134c4 34 18 38 44 38h62z" />
    <glyph glyph-name="l.ss01" horiz-adv-x="292" 
d="M105 0c-30 0 -46 17 -46 46v606c0 29 16 41 46 46l81 16c30 6 47 -16 47 -46v-622c0 -29 -17 -46 -46 -46h-82z" />
    <glyph glyph-name="lacute.ss01" horiz-adv-x="292" 
d="M-4 773l-12 21c-17 26 -10 43 16 58l164 101c39 24 50 17 65 -10l29 -49c19 -34 11 -45 -27 -60l-175 -74c-32 -14 -46 -8 -60 13zM105 0c-30 0 -46 17 -46 46v606c0 29 16 41 46 46l81 16c30 6 47 -16 47 -46v-622c0 -29 -17 -46 -46 -46h-82z" />
    <glyph glyph-name="lcaron.ss01" horiz-adv-x="354" 
d="M105 0c-30 0 -46 17 -46 46v607c0 29 16 40 46 46l81 15c30 4 47 -16 47 -46v-622c0 -29 -17 -46 -46 -46h-82zM305 491c-26 0 -35 16 -31 42l21 144c5 33 19 37 44 37h62c32 0 40 -18 31 -42l-51 -144c-11 -30 -25 -37 -44 -37h-32z" />
    <glyph glyph-name="uni013C.ss01" horiz-adv-x="292" 
d="M105 0c-30 0 -46 17 -46 46v606c0 29 16 41 46 46l81 16c30 6 47 -16 47 -46v-622c0 -29 -17 -46 -46 -46h-82zM82 -268c-25 0 -34 16 -30 42l19 134c4 34 18 38 44 38h62c32 0 40 -17 31 -42l-49 -135c-11 -30 -26 -37 -45 -37h-32z" />
    <glyph glyph-name="ldot.ss01" horiz-adv-x="429" 
d="M105 0c-30 0 -46 17 -46 46v607c0 29 16 40 46 46l81 15c30 4 47 -16 47 -46v-622c0 -29 -17 -46 -46 -46h-82zM357 257c-52 0 -94 43 -94 95s42 95 94 95s95 -43 95 -95s-43 -95 -95 -95z" />
    <glyph glyph-name="lslash.ss01" horiz-adv-x="388" 
d="M310 476c38 19 54 2 54 -34v-30c0 -34 -11 -44 -40 -58l-46 -24v-284c0 -29 -17 -46 -46 -46h-82c-29 0 -46 17 -46 46v191l-26 -14c-38 -19 -54 -2 -54 34v30c0 34 11 44 40 58l40 21v287c0 29 16 40 46 46l81 15c30 6 47 -16 47 -46v-209z" />
    <glyph glyph-name="m.ss01" horiz-adv-x="939" 
d="M675 513c124 0 210 -85 210 -218v-249c0 -29 -16 -46 -45 -46h-83c-29 0 -45 17 -45 46v236c0 51 -28 84 -76 84c-47 0 -78 -33 -78 -84v-236c0 -29 -16 -46 -45 -46h-83c-29 0 -45 17 -45 46v236c0 51 -28 84 -76 84c-47 0 -78 -33 -78 -84v-236c0 -29 -16 -46 -45 -46
h-83c-29 0 -45 17 -45 46v413c0 29 16 46 45 46h53c29 0 45 -17 45 -46v-27c33 47 83 81 155 81c67 0 121 -25 156 -69c37 41 92 69 163 69z" />
    <glyph glyph-name="n.ss01" horiz-adv-x="618" 
d="M357 513c122 0 208 -85 208 -218v-249c0 -29 -17 -46 -46 -46h-82c-29 0 -46 17 -46 46v236c0 50 -30 84 -79 84c-50 0 -81 -34 -81 -84v-236c0 -29 -16 -46 -45 -46h-83c-29 0 -45 17 -45 46v413c0 29 16 46 45 46h53c29 0 45 -17 45 -46v-26c33 47 83 80 156 80z" />
    <glyph glyph-name="nacute.ss01" horiz-adv-x="618" 
d="M196 591l-19 35c-12 20 -6 36 17 49l175 102c21 13 35 7 44 -9l35 -65c11 -22 2 -37 -15 -44l-191 -76c-21 -8 -38 -6 -46 8zM357 513c122 0 208 -85 208 -218v-249c0 -29 -17 -46 -46 -46h-82c-29 0 -46 17 -46 46v236c0 50 -30 84 -79 84c-50 0 -81 -34 -81 -84v-236
c0 -29 -16 -46 -45 -46h-83c-29 0 -45 17 -45 46v413c0 29 16 46 45 46h53c29 0 45 -17 45 -46v-26c33 47 83 80 156 80z" />
    <glyph glyph-name="ncaron.ss01" horiz-adv-x="618" 
d="M156 668c-29 16 -38 30 -17 59l16 21c17 24 28 29 60 13l107 -54l107 54c32 16 42 11 60 -13l16 -21c20 -29 12 -43 -17 -59l-142 -82c-19 -12 -29 -11 -48 0zM357 513c122 0 208 -85 208 -218v-249c0 -29 -17 -46 -46 -46h-82c-29 0 -46 17 -46 46v236
c0 50 -30 84 -79 84c-50 0 -81 -34 -81 -84v-236c0 -29 -16 -46 -45 -46h-83c-29 0 -45 17 -45 46v413c0 29 16 46 45 46h53c29 0 45 -17 45 -46v-26c33 47 83 80 156 80z" />
    <glyph glyph-name="uni0146.ss01" horiz-adv-x="618" 
d="M357 513c122 0 208 -85 208 -218v-249c0 -29 -17 -46 -46 -46h-82c-29 0 -46 17 -46 46v236c0 50 -30 84 -79 84c-50 0 -81 -34 -81 -84v-236c0 -29 -16 -46 -45 -46h-83c-29 0 -45 17 -45 46v413c0 29 16 46 45 46h53c29 0 45 -17 45 -46v-26c33 47 83 80 156 80z
M337 -54c32 0 40 -17 31 -42l-49 -135c-11 -30 -26 -37 -45 -37h-32c-25 0 -34 16 -30 42l19 134c4 34 18 38 44 38h62z" />
    <glyph glyph-name="eng.ss01" horiz-adv-x="617" 
d="M357 513c122 0 208 -85 208 -218v-164c0 -165 -19 -226 -160 -292c-26 -13 -49 -9 -62 17l-33 60c-13 26 -8 48 18 62c60 35 63 55 63 163v141c0 50 -30 84 -79 84c-50 0 -81 -34 -81 -84v-236c0 -30 -16 -46 -45 -46h-83c-29 0 -45 16 -45 46v413c0 30 16 46 45 46h53
c29 0 45 -16 45 -46v-26c33 47 83 80 156 80z" />
    <glyph glyph-name="ntilde.ss01" horiz-adv-x="618" 
d="M155 578c-27 0 -40 8 -40 28c0 92 50 143 112 143c72 0 119 -55 168 -55c21 0 27 10 27 27c0 20 11 28 39 28h27c27 0 39 -8 39 -28c0 -93 -48 -143 -110 -143c-73 0 -122 55 -169 55c-22 0 -26 -11 -26 -27c0 -20 -13 -28 -41 -28h-26zM357 513c122 0 208 -85 208 -218
v-249c0 -29 -17 -46 -46 -46h-82c-29 0 -46 17 -46 46v236c0 50 -30 84 -79 84c-50 0 -81 -34 -81 -84v-236c0 -29 -16 -46 -45 -46h-83c-29 0 -45 17 -45 46v413c0 29 16 46 45 46h53c29 0 45 -17 45 -46v-26c33 47 83 80 156 80z" />
    <glyph glyph-name="p.ss01" horiz-adv-x="638" 
d="M359 513c144 0 250 -115 250 -263c0 -147 -105 -263 -250 -263c-48 0 -91 13 -127 36v-167c0 -29 -16 -46 -45 -46h-83c-29 0 -45 17 -45 46v603c0 29 16 46 45 46h49c29 0 45 -17 45 -46v-7c43 37 98 61 161 61zM330 135c64 0 108 50 108 115s-44 115 -108 115
c-60 0 -107 -45 -107 -115s47 -115 107 -115z" />
    <glyph glyph-name="q.ss01" horiz-adv-x="638" 
d="M534 505c29 0 46 -17 46 -46v-603c0 -29 -17 -46 -46 -46h-82c-30 0 -46 17 -46 46v166c-36 -22 -79 -35 -126 -35c-145 0 -251 115 -251 263s106 263 251 263c63 0 118 -23 160 -60v6c0 29 17 46 46 46h48zM308 135c61 0 107 45 107 115s-47 115 -107 115
c-63 0 -108 -50 -108 -115s45 -115 108 -115z" />
    <glyph glyph-name="r.ss01" horiz-adv-x="437" 
d="M410 502c17 -6 33 -14 25 -43l-19 -75c-8 -28 -25 -34 -42 -27c-16 5 -35 10 -52 10c-59 0 -91 -39 -91 -98v-223c0 -29 -16 -46 -45 -46h-83c-29 0 -45 17 -45 46v413c0 29 16 46 45 46h53c29 0 45 -17 45 -46v-24c35 49 82 78 137 78c27 0 51 -4 72 -11z" />
    <glyph glyph-name="racute.ss01" horiz-adv-x="437" 
d="M115 591l-19 35c-12 20 -6 36 17 49l175 102c21 13 35 7 44 -9l35 -65c11 -22 2 -37 -15 -44l-191 -76c-21 -8 -38 -6 -46 8zM410 502c17 -6 33 -14 25 -43l-19 -75c-8 -28 -25 -34 -42 -27c-16 5 -35 10 -52 10c-59 0 -91 -39 -91 -98v-223c0 -29 -16 -46 -45 -46h-83
c-29 0 -45 17 -45 46v413c0 29 16 46 45 46h53c29 0 45 -17 45 -46v-24c35 49 82 78 137 78c27 0 51 -4 72 -11z" />
    <glyph glyph-name="rcaron.ss01" horiz-adv-x="437" 
d="M217 586l-142 82c-29 16 -38 30 -17 59l16 21c17 24 28 29 60 13l107 -54l107 54c32 16 42 11 60 -13l16 -21c20 -29 12 -43 -17 -59l-142 -82c-19 -12 -29 -11 -48 0zM410 502c17 -6 33 -14 25 -43l-19 -75c-8 -28 -25 -34 -42 -27c-16 5 -35 10 -52 10
c-59 0 -91 -39 -91 -98v-223c0 -29 -16 -46 -45 -46h-83c-29 0 -45 17 -45 46v413c0 29 16 46 45 46h53c29 0 45 -17 45 -46v-24c35 49 82 78 137 78c27 0 51 -4 72 -11z" />
    <glyph glyph-name="uni0157.ss01" horiz-adv-x="437" 
d="M410 502c17 -6 33 -14 25 -43l-19 -75c-8 -28 -25 -34 -42 -27c-16 5 -35 10 -52 10c-59 0 -91 -39 -91 -98v-223c0 -29 -16 -46 -45 -46h-83c-29 0 -45 17 -45 46v413c0 29 16 46 45 46h53c29 0 45 -17 45 -46v-24c35 49 82 78 137 78c27 0 51 -4 72 -11zM174 -54
c32 0 40 -17 31 -42l-49 -135c-11 -30 -26 -37 -45 -37h-32c-25 0 -34 16 -30 42l19 134c4 34 18 38 44 38h62z" />
    <glyph glyph-name="u.ss01" horiz-adv-x="607" 
d="M504 505c29 0 45 -17 45 -46v-413c0 -29 -16 -46 -45 -46h-49c-29 0 -46 17 -46 46v20c-30 -46 -78 -79 -149 -79c-124 0 -207 82 -207 204v268c0 29 17 46 46 46h82c29 0 46 -17 46 -46v-243c0 -48 28 -82 74 -82c47 0 75 34 75 83v242c0 29 16 46 45 46h83z" />
    <glyph glyph-name="uacute.ss01" horiz-adv-x="607" 
d="M176 591l-19 35c-12 20 -6 36 17 49l175 102c21 13 35 7 44 -9l35 -65c11 -22 2 -37 -15 -44l-191 -76c-21 -8 -38 -6 -46 8zM504 505c29 0 45 -17 45 -46v-413c0 -29 -16 -46 -45 -46h-49c-29 0 -46 17 -46 46v20c-30 -46 -78 -79 -149 -79c-124 0 -207 82 -207 204v268
c0 29 17 46 46 46h82c29 0 46 -17 46 -46v-243c0 -48 28 -82 74 -82c47 0 75 34 75 83v242c0 29 16 46 45 46h83z" />
    <glyph glyph-name="ucircumflex.ss01" horiz-adv-x="607" 
d="M132 600l-14 22c-16 25 -14 42 15 59l142 81c19 11 29 10 48 0l142 -81c29 -17 31 -34 15 -59l-14 -22c-17 -25 -28 -28 -60 -12l-107 54l-107 -54c-32 -16 -44 -13 -60 12zM504 505c29 0 45 -17 45 -46v-413c0 -29 -16 -46 -45 -46h-49c-29 0 -46 17 -46 46v20
c-30 -46 -78 -79 -149 -79c-124 0 -207 82 -207 204v268c0 29 17 46 46 46h82c29 0 46 -17 46 -46v-243c0 -48 28 -82 74 -82c47 0 75 34 75 83v242c0 29 16 46 45 46h83z" />
    <glyph glyph-name="udieresis.ss01" horiz-adv-x="607" 
d="M181 582c-56 0 -102 46 -102 102s46 101 102 101s100 -45 100 -101s-44 -102 -100 -102zM423 582c-56 0 -101 46 -101 102s45 101 101 101s101 -45 101 -101s-45 -102 -101 -102zM504 505c29 0 45 -17 45 -46v-413c0 -29 -16 -46 -45 -46h-49c-29 0 -46 17 -46 46v20
c-30 -46 -78 -79 -149 -79c-124 0 -207 82 -207 204v268c0 29 17 46 46 46h82c29 0 46 -17 46 -46v-243c0 -48 28 -82 74 -82c47 0 75 34 75 83v242c0 29 16 46 45 46h83z" />
    <glyph glyph-name="ugrave.ss01" horiz-adv-x="607" 
d="M183 659c-17 7 -26 22 -15 44l35 65c9 16 23 22 44 9l175 -102c23 -13 29 -29 18 -49l-19 -35c-9 -14 -26 -16 -47 -8zM504 505c29 0 45 -17 45 -46v-413c0 -29 -16 -46 -45 -46h-49c-29 0 -46 17 -46 46v20c-30 -46 -78 -79 -149 -79c-124 0 -207 82 -207 204v268
c0 29 17 46 46 46h82c29 0 46 -17 46 -46v-243c0 -48 28 -82 74 -82c47 0 75 34 75 83v242c0 29 16 46 45 46h83z" />
    <glyph glyph-name="uhungarumlaut.ss01" horiz-adv-x="607" 
d="M183 578c-25 0 -35 17 -27 42l45 129c11 32 29 37 57 37h50c24 0 37 -13 24 -37l-77 -141c-12 -22 -28 -30 -55 -30h-17zM381 578c-25 0 -36 17 -27 42l44 129c12 32 30 37 57 37h50c24 0 38 -13 25 -37l-77 -141c-12 -22 -29 -30 -55 -30h-17zM504 505
c29 0 45 -17 45 -46v-413c0 -29 -16 -46 -45 -46h-49c-29 0 -46 17 -46 46v20c-30 -46 -78 -79 -149 -79c-124 0 -207 82 -207 204v268c0 29 17 46 46 46h82c29 0 46 -17 46 -46v-243c0 -48 28 -82 74 -82c47 0 75 34 75 83v242c0 29 16 46 45 46h83z" />
    <glyph glyph-name="umacron.ss01" horiz-adv-x="607" 
d="M176 618c-30 0 -47 16 -47 47v16c0 30 17 46 47 46h251c30 0 46 -16 46 -46v-16c0 -31 -16 -47 -46 -47h-251zM504 505c29 0 45 -17 45 -46v-413c0 -29 -16 -46 -45 -46h-49c-29 0 -46 17 -46 46v20c-30 -46 -78 -79 -149 -79c-124 0 -207 82 -207 204v268
c0 29 17 46 46 46h82c29 0 46 -17 46 -46v-243c0 -48 28 -82 74 -82c47 0 75 34 75 83v242c0 29 16 46 45 46h83z" />
    <glyph glyph-name="uogonek.ss01" horiz-adv-x="607" 
d="M578 -171c11 -26 -1 -42 -27 -55c-98 -48 -214 0 -214 109c0 46 26 87 83 130c-7 8 -11 19 -11 33v20c-30 -46 -78 -79 -149 -79c-124 0 -207 82 -207 204v268c0 29 17 46 46 46h82c29 0 46 -17 46 -46v-243c0 -48 28 -82 74 -82c47 0 75 34 75 83v242c0 29 16 46 45 46
h83c29 0 45 -17 45 -46v-413c0 -26 -13 -43 -37 -46c-36 -25 -58 -64 -58 -97c0 -44 27 -55 67 -43c22 6 39 9 52 -20z" />
    <glyph glyph-name="uring.ss01" horiz-adv-x="607" 
d="M301 578c-75 0 -133 58 -133 129s58 129 133 129s134 -58 134 -129s-60 -129 -134 -129zM301 745c-22 0 -38 -17 -38 -38s16 -38 38 -38c23 0 39 17 39 38s-16 38 -39 38zM504 505c29 0 45 -17 45 -46v-413c0 -29 -16 -46 -45 -46h-49c-29 0 -46 17 -46 46v20
c-30 -46 -78 -79 -149 -79c-124 0 -207 82 -207 204v268c0 29 17 46 46 46h82c29 0 46 -17 46 -46v-243c0 -48 28 -82 74 -82c47 0 75 34 75 83v242c0 29 16 46 45 46h83z" />
    <glyph glyph-name="utilde.ss01" horiz-adv-x="607" 
d="M136 578c-27 0 -40 8 -40 28c0 92 50 143 112 143c72 0 119 -55 168 -55c21 0 27 10 27 27c0 20 11 28 39 28h27c27 0 39 -8 39 -28c0 -93 -48 -143 -110 -143c-73 0 -122 55 -169 55c-22 0 -26 -11 -26 -27c0 -20 -13 -28 -41 -28h-26zM504 505c29 0 45 -17 45 -46v-413
c0 -29 -16 -46 -45 -46h-49c-29 0 -46 17 -46 46v20c-30 -46 -78 -79 -149 -79c-124 0 -207 82 -207 204v268c0 29 17 46 46 46h82c29 0 46 -17 46 -46v-243c0 -48 28 -82 74 -82c47 0 75 34 75 83v242c0 29 16 46 45 46h83z" />
    <glyph glyph-name="v.ss01" horiz-adv-x="558" 
d="M508 505c29 0 47 -18 35 -46l-192 -418c-13 -29 -37 -46 -65 -46h-8c-28 0 -50 17 -65 46l-203 418c-14 28 6 46 35 46h81c29 0 44 -16 56 -46l100 -265l98 265c11 30 27 46 56 46h72z" />
    <glyph glyph-name="w.ss01" horiz-adv-x="796" 
d="M747 505c29 0 47 -17 35 -46l-166 -418c-13 -33 -32 -46 -62 -46h-8c-30 0 -51 13 -63 46l-86 252l-86 -252c-11 -33 -33 -46 -63 -46h-7c-30 0 -49 13 -63 46l-165 418c-11 29 6 46 35 46h78c29 0 48 -15 56 -46l72 -264l82 270c10 34 30 45 58 45h8c28 0 49 -12 59 -45
l83 -257l69 251c8 31 27 46 56 46h78z" />
    <glyph glyph-name="wacute.ss01" horiz-adv-x="796" 
d="M264 591l-19 35c-12 20 -6 36 17 49l175 102c21 13 35 7 44 -9l35 -65c11 -22 2 -37 -15 -44l-191 -76c-21 -8 -38 -6 -46 8zM747 505c29 0 47 -17 35 -46l-166 -418c-13 -33 -32 -46 -62 -46h-8c-30 0 -51 13 -63 46l-86 252l-86 -252c-11 -33 -33 -46 -63 -46h-7
c-30 0 -49 13 -63 46l-165 418c-11 29 6 46 35 46h78c29 0 48 -15 56 -46l72 -264l82 270c10 34 30 45 58 45h8c28 0 49 -12 59 -45l83 -257l69 251c8 31 27 46 56 46h78z" />
    <glyph glyph-name="wcircumflex.ss01" horiz-adv-x="796" 
d="M220 600l-14 22c-16 25 -14 42 15 59l142 81c19 11 29 10 48 0l142 -81c29 -17 31 -34 15 -59l-14 -22c-17 -25 -28 -28 -60 -12l-107 54l-107 -54c-32 -16 -44 -13 -60 12zM747 505c29 0 47 -17 35 -46l-166 -418c-13 -33 -32 -46 -62 -46h-8c-30 0 -51 13 -63 46
l-86 252l-86 -252c-11 -33 -33 -46 -63 -46h-7c-30 0 -49 13 -63 46l-165 418c-11 29 6 46 35 46h78c29 0 48 -15 56 -46l72 -264l82 270c10 34 30 45 58 45h8c28 0 49 -12 59 -45l83 -257l69 251c8 31 27 46 56 46h78z" />
    <glyph glyph-name="wdieresis.ss01" horiz-adv-x="796" 
d="M269 582c-56 0 -102 46 -102 102s46 101 102 101s100 -45 100 -101s-44 -102 -100 -102zM511 582c-56 0 -101 46 -101 102s45 101 101 101s101 -45 101 -101s-45 -102 -101 -102zM747 505c29 0 47 -17 35 -46l-166 -418c-13 -33 -32 -46 -62 -46h-8c-30 0 -51 13 -63 46
l-86 252l-86 -252c-11 -33 -33 -46 -63 -46h-7c-30 0 -49 13 -63 46l-165 418c-11 29 6 46 35 46h78c29 0 48 -15 56 -46l72 -264l82 270c10 34 30 45 58 45h8c28 0 49 -12 59 -45l83 -257l69 251c8 31 27 46 56 46h78z" />
    <glyph glyph-name="wgrave.ss01" horiz-adv-x="796" 
d="M271 659c-17 7 -26 22 -15 44l35 65c9 16 23 22 44 9l175 -102c23 -13 29 -29 18 -49l-19 -35c-9 -14 -26 -16 -47 -8zM747 505c29 0 47 -17 35 -46l-166 -418c-13 -33 -32 -46 -62 -46h-8c-30 0 -51 13 -63 46l-86 252l-86 -252c-11 -33 -33 -46 -63 -46h-7
c-30 0 -49 13 -63 46l-165 418c-11 29 6 46 35 46h78c29 0 48 -15 56 -46l72 -264l82 270c10 34 30 45 58 45h8c28 0 49 -12 59 -45l83 -257l69 251c8 31 27 46 56 46h78z" />
    <glyph glyph-name="y.ss01" horiz-adv-x="561" 
d="M512 505c29 0 47 -18 35 -46l-221 -513c-47 -110 -123 -136 -193 -136c-30 0 -57 5 -80 15c-15 7 -31 18 -24 43l17 61c6 20 16 29 45 20c10 -4 21 -5 33 -5c17 0 42 3 56 35l30 64l-193 416c-13 28 6 46 35 46h89c29 0 45 -17 55 -46l97 -254l94 254c10 29 26 46 56 46
h69z" />
    <glyph glyph-name="yacute.ss01" horiz-adv-x="561" 
d="M165 591l-19 35c-12 20 -6 36 17 49l175 102c21 13 35 7 44 -9l35 -65c11 -22 2 -37 -15 -44l-191 -76c-21 -8 -38 -6 -46 8zM512 505c29 0 47 -18 35 -46l-221 -513c-47 -110 -123 -136 -193 -136c-30 0 -57 5 -80 15c-15 7 -31 18 -24 43l17 61c6 20 16 29 45 20
c10 -4 21 -5 33 -5c17 0 42 3 56 35l30 64l-193 416c-13 28 6 46 35 46h89c29 0 45 -17 55 -46l97 -254l94 254c10 29 26 46 56 46h69z" />
    <glyph glyph-name="ycircumflex.ss01" horiz-adv-x="561" 
d="M121 600l-14 22c-16 25 -14 42 15 59l142 81c19 11 29 10 48 0l142 -81c29 -17 31 -34 15 -59l-14 -22c-17 -25 -28 -28 -60 -12l-107 54l-107 -54c-32 -16 -44 -13 -60 12zM512 505c29 0 47 -18 35 -46l-221 -513c-47 -110 -123 -136 -193 -136c-30 0 -57 5 -80 15
c-15 7 -31 18 -24 43l17 61c6 20 16 29 45 20c10 -4 21 -5 33 -5c17 0 42 3 56 35l30 64l-193 416c-13 28 6 46 35 46h89c29 0 45 -17 55 -46l97 -254l94 254c10 29 26 46 56 46h69z" />
    <glyph glyph-name="ydieresis.ss01" horiz-adv-x="561" 
d="M170 582c-56 0 -102 46 -102 102s46 101 102 101s100 -45 100 -101s-44 -102 -100 -102zM412 582c-56 0 -101 46 -101 102s45 101 101 101s101 -45 101 -101s-45 -102 -101 -102zM512 505c29 0 47 -18 35 -46l-221 -513c-47 -110 -123 -136 -193 -136c-30 0 -57 5 -80 15
c-15 7 -31 18 -24 43l17 61c6 20 16 29 45 20c10 -4 21 -5 33 -5c17 0 42 3 56 35l30 64l-193 416c-13 28 6 46 35 46h89c29 0 45 -17 55 -46l97 -254l94 254c10 29 26 46 56 46h69z" />
    <glyph glyph-name="ygrave.ss01" horiz-adv-x="561" 
d="M150 659c-17 7 -26 22 -15 44l35 65c9 16 23 22 44 9l175 -102c23 -13 29 -29 17 -49l-19 -35c-8 -14 -25 -16 -46 -8zM512 505c29 0 47 -18 35 -46l-221 -513c-47 -110 -123 -136 -193 -136c-30 0 -57 5 -80 15c-15 7 -31 18 -24 43l17 61c6 20 16 29 45 20
c10 -4 21 -5 33 -5c17 0 42 3 56 35l30 64l-193 416c-13 28 6 46 35 46h89c29 0 45 -17 55 -46l97 -254l94 254c10 29 26 46 56 46h69z" />
    <glyph glyph-name="uni1EF9.ss01" horiz-adv-x="561" 
d="M124 578c-27 0 -40 8 -40 28c0 92 50 143 112 143c72 0 119 -55 168 -55c21 0 27 10 27 27c0 20 11 28 39 28h27c27 0 39 -8 39 -28c0 -93 -48 -143 -110 -143c-73 0 -122 55 -169 55c-22 0 -26 -11 -26 -27c0 -20 -13 -28 -41 -28h-26zM512 505c29 0 47 -18 35 -46
l-221 -513c-47 -110 -123 -136 -193 -136c-30 0 -57 5 -80 15c-15 7 -31 18 -24 43l17 61c6 20 16 29 45 20c10 -4 21 -5 33 -5c17 0 42 3 56 35l30 64l-193 416c-13 28 6 46 35 46h89c29 0 45 -17 55 -46l97 -254l94 254c10 29 26 46 56 46h69z" />
    <glyph glyph-name="a.ss02" horiz-adv-x="595" 
d="M599 54c10 -29 0 -38 -16 -47c-31 -15 -64 -20 -87 -20c-50 0 -90 22 -111 64c-42 -39 -98 -64 -160 -64c-119 0 -198 64 -198 159c0 103 86 171 216 171c39 0 77 -9 113 -21v18c0 47 -33 75 -91 75c-48 0 -87 -15 -111 -29c-22 -12 -44 -10 -58 18l-12 23
c-16 32 -9 50 12 63c50 31 122 49 181 49c121 0 239 -53 239 -214v-148c0 -10 1 -19 12 -19c7 0 15 5 24 5c15 2 24 -8 31 -28zM268 94c54 0 93 34 93 61v41c-19 9 -55 22 -90 22c-49 0 -81 -26 -81 -63s31 -61 78 -61z" />
    <glyph glyph-name="aacute.ss02" horiz-adv-x="595" 
d="M174 591l-19 35c-12 20 -6 36 17 49l175 102c21 13 35 7 44 -9l35 -65c11 -22 2 -37 -15 -44l-191 -76c-21 -8 -38 -6 -46 8zM599 54c10 -29 0 -38 -16 -47c-31 -15 -64 -20 -87 -20c-50 0 -90 22 -111 64c-42 -39 -98 -64 -160 -64c-119 0 -198 64 -198 159
c0 103 86 171 216 171c39 0 77 -9 113 -21v18c0 47 -33 75 -91 75c-48 0 -87 -15 -111 -29c-22 -12 -44 -10 -58 18l-12 23c-16 32 -9 50 12 63c50 31 122 49 181 49c121 0 239 -53 239 -214v-148c0 -10 1 -19 12 -19c7 0 15 5 24 5c15 2 24 -8 31 -28zM268 94
c54 0 93 34 93 61v41c-19 9 -55 22 -90 22c-49 0 -81 -26 -81 -63s31 -61 78 -61z" />
    <glyph glyph-name="abreve.ss02" horiz-adv-x="595" 
d="M301 578c-127 0 -178 100 -182 160c-1 22 9 40 39 40h31c32 0 39 -22 43 -40c7 -29 21 -66 69 -66s61 37 68 66c4 18 11 40 43 40h31c30 0 40 -18 39 -40c-4 -60 -55 -160 -181 -160zM599 54c10 -29 0 -38 -16 -47c-31 -15 -64 -20 -87 -20c-50 0 -90 22 -111 64
c-42 -39 -98 -64 -160 -64c-119 0 -198 64 -198 159c0 103 86 171 216 171c39 0 77 -9 113 -21v18c0 47 -33 75 -91 75c-48 0 -87 -15 -111 -29c-22 -12 -44 -10 -58 18l-12 23c-16 32 -9 50 12 63c50 31 122 49 181 49c121 0 239 -53 239 -214v-148c0 -10 1 -19 12 -19
c7 0 15 5 24 5c15 2 24 -8 31 -28zM268 94c54 0 93 34 93 61v41c-19 9 -55 22 -90 22c-49 0 -81 -26 -81 -63s31 -61 78 -61z" />
    <glyph glyph-name="acircumflex.ss02" horiz-adv-x="595" 
d="M130 600l-14 22c-16 25 -14 42 15 59l142 81c19 11 29 10 48 0l142 -81c29 -17 31 -34 15 -59l-14 -22c-17 -25 -28 -28 -60 -12l-107 54l-107 -54c-32 -16 -44 -13 -60 12zM599 54c10 -29 0 -38 -16 -47c-31 -15 -64 -20 -87 -20c-50 0 -90 22 -111 64
c-42 -39 -98 -64 -160 -64c-119 0 -198 64 -198 159c0 103 86 171 216 171c39 0 77 -9 113 -21v18c0 47 -33 75 -91 75c-48 0 -87 -15 -111 -29c-22 -12 -44 -10 -58 18l-12 23c-16 32 -9 50 12 63c50 31 122 49 181 49c121 0 239 -53 239 -214v-148c0 -10 1 -19 12 -19
c7 0 15 5 24 5c15 2 24 -8 31 -28zM268 94c54 0 93 34 93 61v41c-19 9 -55 22 -90 22c-49 0 -81 -26 -81 -63s31 -61 78 -61z" />
    <glyph glyph-name="adieresis.ss02" horiz-adv-x="595" 
d="M179 582c-56 0 -102 46 -102 102s46 101 102 101s100 -45 100 -101s-44 -102 -100 -102zM421 582c-56 0 -101 46 -101 102s45 101 101 101s101 -45 101 -101s-45 -102 -101 -102zM599 54c10 -29 0 -38 -16 -47c-31 -15 -64 -20 -87 -20c-50 0 -90 22 -111 64
c-42 -39 -98 -64 -160 -64c-119 0 -198 64 -198 159c0 103 86 171 216 171c39 0 77 -9 113 -21v18c0 47 -33 75 -91 75c-48 0 -87 -15 -111 -29c-22 -12 -44 -10 -58 18l-12 23c-16 32 -9 50 12 63c50 31 122 49 181 49c121 0 239 -53 239 -214v-148c0 -10 1 -19 12 -19
c7 0 15 5 24 5c15 2 24 -8 31 -28zM268 94c54 0 93 34 93 61v41c-19 9 -55 22 -90 22c-49 0 -81 -26 -81 -63s31 -61 78 -61z" />
    <glyph glyph-name="agrave.ss02" horiz-adv-x="595" 
d="M180 659c-17 7 -26 22 -15 44l35 65c9 16 23 22 44 9l175 -102c23 -13 29 -29 18 -49l-19 -35c-9 -14 -26 -16 -47 -8zM599 54c10 -29 0 -38 -16 -47c-31 -15 -64 -20 -87 -20c-50 0 -90 22 -111 64c-42 -39 -98 -64 -160 -64c-119 0 -198 64 -198 159
c0 103 86 171 216 171c39 0 77 -9 113 -21v18c0 47 -33 75 -91 75c-48 0 -87 -15 -111 -29c-22 -12 -44 -10 -58 18l-12 23c-16 32 -9 50 12 63c50 31 122 49 181 49c121 0 239 -53 239 -214v-148c0 -10 1 -19 12 -19c7 0 15 5 24 5c15 2 24 -8 31 -28zM268 94
c54 0 93 34 93 61v41c-19 9 -55 22 -90 22c-49 0 -81 -26 -81 -63s31 -61 78 -61z" />
    <glyph glyph-name="amacron.ss02" horiz-adv-x="595" 
d="M174 618c-30 0 -47 16 -47 47v16c0 30 17 46 47 46h251c30 0 46 -16 46 -46v-16c0 -31 -16 -47 -46 -47h-251zM599 54c10 -29 0 -38 -16 -47c-31 -15 -64 -20 -87 -20c-50 0 -90 22 -111 64c-42 -39 -98 -64 -160 -64c-119 0 -198 64 -198 159c0 103 86 171 216 171
c39 0 77 -9 113 -21v18c0 47 -33 75 -91 75c-48 0 -87 -15 -111 -29c-22 -12 -44 -10 -58 18l-12 23c-16 32 -9 50 12 63c50 31 122 49 181 49c121 0 239 -53 239 -214v-148c0 -10 1 -19 12 -19c7 0 15 5 24 5c15 2 24 -8 31 -28zM268 94c54 0 93 34 93 61v41
c-19 9 -55 22 -90 22c-49 0 -81 -26 -81 -63s31 -61 78 -61z" />
    <glyph glyph-name="aogonek.ss02" horiz-adv-x="595" 
d="M638 -160c11 -26 -1 -42 -27 -55c-98 -48 -214 0 -214 109c0 36 15 69 49 102c-26 10 -47 29 -61 55c-42 -39 -98 -64 -160 -64c-119 0 -198 64 -198 159c0 103 86 171 216 171c39 0 77 -9 113 -21v18c0 47 -33 75 -91 75c-48 0 -87 -15 -111 -29c-22 -12 -44 -10 -58 18
l-12 23c-16 32 -9 50 12 63c50 31 122 49 181 49c121 0 239 -53 239 -214v-148c0 -10 1 -19 12 -19c7 0 15 5 24 5c15 2 24 -8 31 -28l16 -55c10 -29 0 -38 -16 -47c-10 -5 -20 -9 -30 -11c-24 -25 -39 -56 -39 -82c0 -44 27 -55 67 -43c22 6 39 9 52 -20zM268 94
c54 0 93 34 93 61v41c-19 9 -55 22 -90 22c-49 0 -81 -26 -81 -63s31 -61 78 -61z" />
    <glyph glyph-name="aring.ss02" horiz-adv-x="595" 
d="M299 578c-75 0 -133 58 -133 129s58 129 133 129s134 -58 134 -129s-60 -129 -134 -129zM299 745c-22 0 -38 -17 -38 -38s16 -38 38 -38c23 0 39 17 39 38s-16 38 -39 38zM599 54c10 -29 0 -38 -16 -47c-31 -15 -64 -20 -87 -20c-50 0 -90 22 -111 64
c-42 -39 -98 -64 -160 -64c-119 0 -198 64 -198 159c0 103 86 171 216 171c39 0 77 -9 113 -21v18c0 47 -33 75 -91 75c-48 0 -87 -15 -111 -29c-22 -12 -44 -10 -58 18l-12 23c-16 32 -9 50 12 63c50 31 122 49 181 49c121 0 239 -53 239 -214v-148c0 -10 1 -19 12 -19
c7 0 15 5 24 5c15 2 24 -8 31 -28zM268 94c54 0 93 34 93 61v41c-19 9 -55 22 -90 22c-49 0 -81 -26 -81 -63s31 -61 78 -61z" />
    <glyph glyph-name="atilde.ss02" horiz-adv-x="595" 
d="M133 578c-27 0 -40 8 -40 28c0 92 50 143 112 143c72 0 119 -55 168 -55c21 0 27 10 27 27c0 20 11 28 39 28h27c27 0 39 -8 39 -28c0 -93 -48 -143 -110 -143c-73 0 -122 55 -169 55c-22 0 -26 -11 -26 -27c0 -20 -13 -28 -41 -28h-26zM599 54c10 -29 0 -38 -16 -47
c-31 -15 -64 -20 -87 -20c-50 0 -90 22 -111 64c-42 -39 -98 -64 -160 -64c-119 0 -198 64 -198 159c0 103 86 171 216 171c39 0 77 -9 113 -21v18c0 47 -33 75 -91 75c-48 0 -87 -15 -111 -29c-22 -12 -44 -10 -58 18l-12 23c-16 32 -9 50 12 63c50 31 122 49 181 49
c121 0 239 -53 239 -214v-148c0 -10 1 -19 12 -19c7 0 15 5 24 5c15 2 24 -8 31 -28zM268 94c54 0 93 34 93 61v41c-19 9 -55 22 -90 22c-49 0 -81 -26 -81 -63s31 -61 78 -61z" />
    <glyph glyph-name="f.ss02" horiz-adv-x="419" 
d="M433 705c23 -9 37 -21 24 -52l-17 -44c-10 -26 -22 -33 -49 -25c-12 5 -26 8 -38 8c-39 0 -73 -25 -73 -76v-11h90c29 0 46 -16 46 -46v-34c0 -29 -17 -46 -46 -46h-90v-372c0 -136 -94 -197 -194 -197c-41 0 -83 11 -105 24c-31 19 -42 35 -27 66l16 36
c13 28 27 42 52 31c17 -7 31 -10 43 -7c27 4 42 27 42 66v353h-41c-29 0 -46 17 -46 46v34c0 30 17 46 46 46h41v11c0 144 112 208 223 208c38 0 78 -8 103 -19z" />
    <glyph glyph-name="k.ss02" horiz-adv-x="580" 
d="M560 46c23 -28 4 -46 -25 -46h-109c-30 0 -49 17 -68 45l-95 142l-32 -37v-104c0 -29 -17 -46 -46 -46h-81c-29 0 -45 17 -45 46v606c0 29 16 41 45 46l80 15c30 6 47 -16 47 -46v-366l126 159c22 27 38 45 68 45h102c28 0 47 -18 24 -46l-157 -186z" />
    <glyph glyph-name="uni0137.ss02" horiz-adv-x="580" 
d="M560 46c23 -28 4 -46 -25 -46h-109c-30 0 -49 17 -68 45l-95 142l-32 -37v-104c0 -29 -17 -46 -46 -46h-81c-29 0 -45 17 -45 46v606c0 29 16 41 45 46l80 15c30 6 47 -16 47 -46v-366l126 159c22 27 38 45 68 45h102c28 0 47 -18 24 -46l-157 -186zM337 -54
c32 0 40 -17 31 -42l-49 -135c-11 -30 -26 -37 -45 -37h-32c-25 0 -34 16 -30 42l19 134c4 34 18 38 44 38h62z" />
    <glyph glyph-name="a.ss03" horiz-adv-x="669" 
d="M661 54c10 -29 -1 -38 -17 -47c-30 -15 -63 -20 -86 -20c-53 0 -95 26 -115 73c-39 -44 -94 -73 -164 -73c-144 0 -250 115 -250 263s105 263 250 263c63 0 117 -23 160 -60v11c0 29 16 46 45 46h49c29 0 46 -17 46 -46v-313c0 -10 1 -19 11 -19c7 0 15 5 24 5
c16 2 25 -8 31 -28zM307 135c59 0 107 46 107 115c0 70 -46 115 -107 115c-63 0 -107 -50 -107 -115s44 -115 107 -115z" />
    <glyph glyph-name="aacute.ss03" horiz-adv-x="669" 
d="M190 591l-19 35c-12 20 -6 36 17 49l175 102c21 13 35 7 44 -9l35 -65c11 -22 2 -37 -15 -44l-191 -76c-21 -8 -38 -6 -46 8zM661 54c10 -29 -1 -38 -17 -47c-30 -15 -63 -20 -86 -20c-53 0 -95 26 -115 73c-39 -44 -94 -73 -164 -73c-144 0 -250 115 -250 263
s105 263 250 263c63 0 117 -23 160 -60v11c0 29 16 46 45 46h49c29 0 46 -17 46 -46v-313c0 -10 1 -19 11 -19c7 0 15 5 24 5c16 2 25 -8 31 -28zM307 135c59 0 107 46 107 115c0 70 -46 115 -107 115c-63 0 -107 -50 -107 -115s44 -115 107 -115z" />
    <glyph glyph-name="abreve.ss03" horiz-adv-x="669" 
d="M317 578c-127 0 -178 100 -182 160c-1 22 9 40 39 40h31c32 0 39 -22 43 -40c7 -29 21 -66 69 -66s61 37 68 66c4 18 11 40 43 40h31c30 0 40 -18 39 -40c-4 -60 -55 -160 -181 -160zM661 54c10 -29 -1 -38 -17 -47c-30 -15 -63 -20 -86 -20c-53 0 -95 26 -115 73
c-39 -44 -94 -73 -164 -73c-144 0 -250 115 -250 263s105 263 250 263c63 0 117 -23 160 -60v11c0 29 16 46 45 46h49c29 0 46 -17 46 -46v-313c0 -10 1 -19 11 -19c7 0 15 5 24 5c16 2 25 -8 31 -28zM307 135c59 0 107 46 107 115c0 70 -46 115 -107 115
c-63 0 -107 -50 -107 -115s44 -115 107 -115z" />
    <glyph glyph-name="acircumflex.ss03" horiz-adv-x="669" 
d="M146 600l-14 22c-16 25 -14 42 15 59l142 81c19 11 29 10 48 0l142 -81c29 -17 31 -34 15 -59l-14 -22c-17 -25 -28 -28 -60 -12l-107 54l-107 -54c-32 -16 -44 -13 -60 12zM661 54c10 -29 -1 -38 -17 -47c-30 -15 -63 -20 -86 -20c-53 0 -95 26 -115 73
c-39 -44 -94 -73 -164 -73c-144 0 -250 115 -250 263s105 263 250 263c63 0 117 -23 160 -60v11c0 29 16 46 45 46h49c29 0 46 -17 46 -46v-313c0 -10 1 -19 11 -19c7 0 15 5 24 5c16 2 25 -8 31 -28zM307 135c59 0 107 46 107 115c0 70 -46 115 -107 115
c-63 0 -107 -50 -107 -115s44 -115 107 -115z" />
    <glyph glyph-name="adieresis.ss03" horiz-adv-x="669" 
d="M195 582c-56 0 -102 46 -102 102s46 101 102 101s100 -45 100 -101s-44 -102 -100 -102zM437 582c-56 0 -101 46 -101 102s45 101 101 101s101 -45 101 -101s-45 -102 -101 -102zM661 54c10 -29 -1 -38 -17 -47c-30 -15 -63 -20 -86 -20c-53 0 -95 26 -115 73
c-39 -44 -94 -73 -164 -73c-144 0 -250 115 -250 263s105 263 250 263c63 0 117 -23 160 -60v11c0 29 16 46 45 46h49c29 0 46 -17 46 -46v-313c0 -10 1 -19 11 -19c7 0 15 5 24 5c16 2 25 -8 31 -28zM307 135c59 0 107 46 107 115c0 70 -46 115 -107 115
c-63 0 -107 -50 -107 -115s44 -115 107 -115z" />
    <glyph glyph-name="agrave.ss03" horiz-adv-x="669" 
d="M196 659c-17 7 -26 22 -15 44l35 65c9 16 23 22 44 9l175 -102c23 -13 29 -29 18 -49l-19 -35c-9 -14 -26 -16 -47 -8zM661 54c10 -29 -1 -38 -17 -47c-30 -15 -63 -20 -86 -20c-53 0 -95 26 -115 73c-39 -44 -94 -73 -164 -73c-144 0 -250 115 -250 263s105 263 250 263
c63 0 117 -23 160 -60v11c0 29 16 46 45 46h49c29 0 46 -17 46 -46v-313c0 -10 1 -19 11 -19c7 0 15 5 24 5c16 2 25 -8 31 -28zM307 135c59 0 107 46 107 115c0 70 -46 115 -107 115c-63 0 -107 -50 -107 -115s44 -115 107 -115z" />
    <glyph glyph-name="amacron.ss03" horiz-adv-x="669" 
d="M190 618c-30 0 -47 16 -47 47v16c0 30 17 46 47 46h251c30 0 46 -16 46 -46v-16c0 -31 -16 -47 -46 -47h-251zM661 54c10 -29 -1 -38 -17 -47c-30 -15 -63 -20 -86 -20c-53 0 -95 26 -115 73c-39 -44 -94 -73 -164 -73c-144 0 -250 115 -250 263s105 263 250 263
c63 0 117 -23 160 -60v11c0 29 16 46 45 46h49c29 0 46 -17 46 -46v-313c0 -10 1 -19 11 -19c7 0 15 5 24 5c16 2 25 -8 31 -28zM307 135c59 0 107 46 107 115c0 70 -46 115 -107 115c-63 0 -107 -50 -107 -115s44 -115 107 -115z" />
    <glyph glyph-name="aogonek.ss03" horiz-adv-x="669" 
d="M700 -159c11 -26 -1 -42 -27 -55c-98 -48 -214 0 -214 109c0 35 15 68 49 101c-30 11 -52 33 -65 64c-39 -44 -94 -73 -164 -73c-144 0 -250 115 -250 263s105 263 250 263c63 0 117 -23 160 -60v11c0 29 16 46 45 46h49c29 0 46 -17 46 -46v-313c0 -10 1 -19 11 -19
c7 0 15 5 24 5c16 2 25 -8 31 -28l16 -55c10 -29 -1 -38 -17 -47c-10 -5 -20 -9 -30 -12c-24 -24 -38 -54 -38 -80c0 -44 27 -55 67 -43c22 6 39 9 52 -20zM307 135c59 0 107 46 107 115c0 70 -46 115 -107 115c-63 0 -107 -50 -107 -115s44 -115 107 -115z" />
    <glyph glyph-name="aring.ss03" horiz-adv-x="669" 
d="M315 578c-75 0 -133 58 -133 129s58 129 133 129s134 -58 134 -129s-60 -129 -134 -129zM315 745c-22 0 -38 -17 -38 -38s16 -38 38 -38c23 0 39 17 39 38s-16 38 -39 38zM661 54c10 -29 -1 -38 -17 -47c-30 -15 -63 -20 -86 -20c-53 0 -95 26 -115 73
c-39 -44 -94 -73 -164 -73c-144 0 -250 115 -250 263s105 263 250 263c63 0 117 -23 160 -60v11c0 29 16 46 45 46h49c29 0 46 -17 46 -46v-313c0 -10 1 -19 11 -19c7 0 15 5 24 5c16 2 25 -8 31 -28zM307 135c59 0 107 46 107 115c0 70 -46 115 -107 115
c-63 0 -107 -50 -107 -115s44 -115 107 -115z" />
    <glyph glyph-name="atilde.ss03" horiz-adv-x="669" 
d="M149 578c-27 0 -40 8 -40 28c0 92 50 143 112 143c72 0 119 -55 168 -55c21 0 27 10 27 27c0 20 11 28 39 28h27c27 0 39 -8 39 -28c0 -93 -48 -143 -110 -143c-73 0 -122 55 -169 55c-22 0 -26 -11 -26 -27c0 -20 -13 -28 -41 -28h-26zM661 54c10 -29 -1 -38 -17 -47
c-30 -15 -63 -20 -86 -20c-53 0 -95 26 -115 73c-39 -44 -94 -73 -164 -73c-144 0 -250 115 -250 263s105 263 250 263c63 0 117 -23 160 -60v11c0 29 16 46 45 46h49c29 0 46 -17 46 -46v-313c0 -10 1 -19 11 -19c7 0 15 5 24 5c16 2 25 -8 31 -28zM307 135
c59 0 107 46 107 115c0 70 -46 115 -107 115c-63 0 -107 -50 -107 -115s44 -115 107 -115z" />
    <glyph glyph-name="ae.ss03" horiz-adv-x="954" 
d="M279 -13c-144 0 -250 115 -250 263s105 263 250 263c64 0 116 -24 153 -63v16c0 29 17 46 46 46h24c29 0 45 -17 45 -46v-22c42 40 100 68 181 68c100 0 197 -66 197 -165c0 -93 -95 -157 -238 -157c-38 0 -70 3 -105 9c19 -55 66 -89 125 -89c36 0 71 11 107 36
c18 14 33 21 52 1l34 -35c22 -21 14 -38 2 -51c-45 -48 -109 -74 -187 -74c-72 0 -128 30 -168 72v-24c0 -29 -16 -46 -45 -46h-24c-29 0 -46 17 -46 46v20c-38 -42 -90 -68 -153 -68zM687 273c48 0 80 20 80 57c0 39 -32 63 -79 63c-50 0 -102 -34 -112 -110
c36 -7 68 -10 111 -10zM307 135c61 0 107 45 107 115s-46 115 -107 115c-63 0 -107 -50 -107 -115c0 -64 43 -115 107 -115z" />
    <glyph glyph-name="aeacute.ss03" horiz-adv-x="954" 
d="M363 591l-19 35c-12 20 -6 36 17 49l175 102c21 13 35 7 44 -9l35 -65c11 -22 2 -37 -15 -44l-191 -76c-21 -8 -38 -6 -46 8zM279 -13c-144 0 -250 115 -250 263s105 263 250 263c64 0 116 -24 153 -63v16c0 29 17 46 46 46h24c29 0 45 -17 45 -46v-22
c42 40 100 68 181 68c100 0 197 -66 197 -165c0 -93 -95 -157 -238 -157c-38 0 -70 3 -105 9c19 -55 66 -89 125 -89c36 0 71 11 107 36c18 14 33 21 52 1l34 -35c22 -21 14 -38 2 -51c-45 -48 -109 -74 -187 -74c-72 0 -128 30 -168 72v-24c0 -29 -16 -46 -45 -46h-24
c-29 0 -46 17 -46 46v20c-38 -42 -90 -68 -153 -68zM687 273c48 0 80 20 80 57c0 39 -32 63 -79 63c-50 0 -102 -34 -112 -110c36 -7 68 -10 111 -10zM307 135c61 0 107 45 107 115s-46 115 -107 115c-63 0 -107 -50 -107 -115c0 -64 43 -115 107 -115z" />
    <glyph glyph-name="f_t" horiz-adv-x="818" 
d="M813 68c11 -24 -6 -36 -19 -46c-31 -22 -79 -35 -127 -35c-100 0 -196 57 -196 194v198h-191v-372c0 -136 -94 -197 -194 -197c-41 0 -83 10 -117 31c-19 12 -32 23 -18 52l22 49c12 25 21 36 38 28c13 -7 27 -13 43 -13c29 0 53 18 53 66v356h-42c-29 0 -45 17 -45 46
v34c0 30 16 46 45 46h42v11c0 144 102 208 213 208c38 0 76 -8 102 -19c22 -9 36 -21 23 -52l-17 -44c-10 -26 -22 -33 -49 -25c-12 5 -24 8 -36 8c-39 0 -63 -25 -63 -76v-11h191v116c0 29 16 40 45 46l80 14c30 6 47 -15 47 -45v-131h99c29 0 45 -16 45 -46v-34
c0 -29 -16 -46 -45 -46h-99v-180c0 -49 24 -65 55 -65c15 0 30 7 42 14c25 16 36 4 45 -15z" />
    <glyph glyph-name="f_t.ss01" horiz-adv-x="819" 
d="M814 68c11 -24 -6 -36 -19 -46c-31 -22 -79 -35 -127 -35c-100 0 -196 57 -196 194v198h-191v-333c0 -30 -16 -46 -45 -46h-83c-29 0 -45 16 -45 46v333h-41c-29 0 -46 17 -46 46v34c0 30 17 46 46 46h41v11c0 144 102 208 213 208c37 0 76 -8 101 -18
c23 -10 36 -21 24 -53l-17 -44c-11 -25 -22 -32 -50 -24c-11 4 -24 7 -35 7c-39 0 -63 -25 -63 -76v-11h191v116c0 29 16 40 46 46l79 14c31 6 47 -15 47 -45v-131h99c29 0 46 -16 46 -46v-34c0 -29 -17 -46 -46 -46h-99v-180c0 -49 24 -65 55 -65c16 0 31 7 42 14
c25 16 37 4 46 -15z" />
    <glyph glyph-name="fi.ss01" horiz-adv-x="719" 
d="M573 536c-57 0 -103 45 -103 103c0 56 46 103 103 103c56 0 102 -47 102 -103c0 -58 -46 -103 -102 -103zM612 505c29 0 45 -16 45 -46v-413c0 -29 -16 -46 -45 -46h-83c-29 0 -45 17 -45 46v333h-203v-333c0 -30 -16 -46 -45 -46h-83c-29 0 -45 16 -45 46v333h-41
c-29 0 -46 17 -46 46v34c0 30 17 46 46 46h41v11c0 144 102 208 213 208c37 0 76 -8 101 -18c23 -10 36 -21 24 -53l-17 -44c-11 -25 -22 -32 -50 -24c-11 4 -24 7 -35 7c-39 0 -63 -25 -63 -76v-11h331z" />
    <glyph glyph-name="fl.ss01" horiz-adv-x="689" 
d="M583 714c31 6 47 -16 47 -46v-622c0 -29 -17 -46 -46 -46h-82c-29 0 -46 17 -46 46v508c-27 24 -66 38 -101 38c-40 0 -74 -27 -74 -76v-11h66c29 0 45 -16 45 -46v-34c0 -29 -16 -46 -45 -46h-66v-333c0 -30 -16 -46 -45 -46h-83c-29 0 -45 16 -45 46v333h-41
c-29 0 -46 17 -46 46v34c0 30 17 46 46 46h41v11c0 141 108 208 223 208c50 0 100 -15 140 -37c8 6 18 9 31 12z" />
    <glyph glyph-name="ordfeminine" unicode="&#xaa;" horiz-adv-x="387" 
d="M187 662c76 0 151 -34 151 -118v-176c0 -16 -9 -25 -25 -25h-38c-16 0 -25 9 -25 25v8c-25 -21 -56 -35 -93 -35c-76 0 -128 40 -128 101c0 60 57 97 139 97c25 0 46 -4 64 -9v10c0 27 -23 45 -55 45c-34 0 -55 -14 -65 -22s-22 -8 -30 3l-20 22c-9 11 -8 22 2 31
c26 22 66 43 123 43zM180 407c33 0 52 24 52 45v16c-10 4 -26 9 -46 9c-29 0 -48 -14 -48 -35s17 -35 42 -35z" />
    <glyph glyph-name="ordmasculine" unicode="&#xba;" horiz-adv-x="398" 
d="M199 341c-101 0 -171 67 -171 161c0 92 70 160 171 160s171 -68 171 -160c0 -95 -71 -161 -171 -161zM199 434c36 0 64 28 64 68c0 39 -28 67 -64 67c-37 0 -64 -28 -64 -67c0 -40 27 -68 64 -68z" />
    <glyph glyph-name="zero" unicode="0" horiz-adv-x="659" 
d="M621 325c0 -201 -118 -337 -292 -337c-173 0 -292 136 -292 337s119 337 292 337c174 0 292 -136 292 -337zM209 325c0 -116 49 -193 120 -193c72 0 120 77 120 193c0 117 -48 194 -120 194c-71 0 -120 -77 -120 -194z" />
    <glyph glyph-name="one" unicode="1" horiz-adv-x="409" 
d="M282 650c31 0 47 -16 47 -47v-556c0 -31 -16 -47 -47 -47h-80c-31 0 -47 16 -47 47v464h-115c-30 0 -48 16 -37 51l13 46c8 28 25 42 56 42h210z" />
    <glyph glyph-name="two" unicode="2" horiz-adv-x="566" 
d="M484 141c30 0 46 -17 46 -47v-47c0 -31 -16 -47 -46 -47h-398c-30 0 -46 16 -46 47v42c0 19 1 38 29 63c50 43 111 99 163 150c63 62 109 105 109 150c0 48 -36 74 -82 74c-42 0 -86 -24 -130 -62c-23 -20 -44 -16 -63 7l-27 33c-20 23 -14 45 8 67c61 59 141 91 234 91
c134 0 226 -83 226 -202c0 -65 -26 -110 -79 -172c-37 -46 -94 -92 -160 -147h216z" />
    <glyph glyph-name="three" unicode="3" horiz-adv-x="570" 
d="M430 338c64 -32 104 -82 104 -153c0 -116 -107 -197 -262 -197c-90 0 -176 40 -230 90c-22 20 -33 39 -13 59l38 40c17 19 38 31 62 8c34 -33 88 -61 137 -61c56 0 90 31 90 75c0 46 -43 75 -111 75h-31c-30 0 -46 17 -46 46v29c0 30 16 46 46 46h39c53 0 89 27 89 66
c0 38 -36 66 -87 66c-42 0 -80 -11 -114 -37c-23 -18 -45 -15 -63 8l-27 36c-18 23 -11 42 13 60c60 45 134 68 216 68c138 0 234 -76 234 -184c0 -63 -32 -109 -84 -140z" />
    <glyph glyph-name="four" unicode="4" horiz-adv-x="599" 
d="M525 245c31 0 47 -16 47 -47v-28c0 -29 -17 -45 -47 -45h-45v-80c0 -29 -17 -45 -47 -45h-74c-30 0 -47 16 -47 46v79h-254c-30 0 -47 16 -47 45v40c0 29 7 43 23 63l265 332c22 27 33 45 86 45h42c32 0 53 -22 53 -52v-353h45zM177 245h136v177z" />
    <glyph glyph-name="five" unicode="5" horiz-adv-x="599" 
d="M317 441c147 0 249 -88 249 -223c0 -137 -110 -231 -273 -231c-96 0 -188 36 -242 88c-24 22 -32 41 -12 63l38 40c21 21 38 24 60 5c38 -33 95 -60 143 -60c66 0 112 38 112 93c0 56 -45 93 -111 93c-35 0 -65 -10 -88 -25c-29 -16 -46 -12 -66 -3l-37 16
c-34 15 -32 38 -25 72l41 234c5 30 17 47 47 47h318c30 0 46 -17 46 -47v-46c0 -29 -16 -46 -46 -46h-243l-15 -87c29 11 64 17 104 17z" />
    <glyph glyph-name="six" unicode="6" horiz-adv-x="581" 
d="M296 -12c-152 0 -263 90 -263 243c0 152 103 279 235 411c27 26 55 27 77 7l39 -37c14 -14 37 -36 -5 -72c-35 -32 -80 -75 -137 -138l4 2c31 19 64 26 98 26c125 0 217 -92 217 -215c0 -136 -113 -227 -265 -227zM297 111c53 0 94 40 94 95s-42 94 -94 94
s-93 -39 -93 -94s41 -95 93 -95z" />
    <glyph glyph-name="seven" unicode="7" horiz-adv-x="511" 
d="M448 650c30 0 47 -17 47 -45v-38c0 -15 -8 -34 -16 -53l-207 -468c-12 -28 -36 -46 -66 -46h-70c-29 0 -57 17 -39 56l203 455h-242c-30 0 -47 17 -47 46v46c0 31 17 47 47 47h390z" />
    <glyph glyph-name="eight" unicode="8" horiz-adv-x="603" 
d="M452 356c75 -31 118 -92 118 -165c0 -121 -112 -204 -268 -204s-269 83 -269 204c0 73 43 133 117 165c-48 28 -74 73 -74 128c0 105 94 178 226 178c131 0 226 -73 226 -178c0 -56 -27 -100 -76 -128zM302 541c-39 0 -70 -29 -70 -66c0 -39 31 -69 70 -69
c37 0 68 30 68 69c0 37 -31 66 -68 66zM302 113c53 0 95 38 95 91s-42 93 -95 93c-54 0 -96 -40 -96 -93s42 -91 96 -91z" />
    <glyph glyph-name="nine" unicode="9" horiz-adv-x="582" 
d="M230 -8l-29 28c-22 22 -32 45 0 75c38 35 39 40 131 132l-6 -2c-15 -10 -39 -15 -60 -15c-144 0 -247 88 -247 223s108 229 265 229c83 0 156 -29 203 -80c40 -42 62 -100 62 -165c0 -155 -106 -289 -235 -417c-27 -28 -54 -37 -84 -8zM284 341c53 0 94 40 94 95
c0 54 -41 94 -94 94c-54 0 -95 -40 -95 -94c0 -55 42 -95 95 -95z" />
    <glyph glyph-name="fraction" unicode="&#x2044;" horiz-adv-x="531" 
d="M15 0c-30 0 -49 19 -28 47l406 556c21 28 40 47 70 47h53c30 0 48 -19 28 -47l-407 -556c-20 -28 -38 -47 -69 -47h-53z" />
    <glyph glyph-name="onehalf" unicode="&#xbd;" horiz-adv-x="917" 
d="M232 269h-77c-17 0 -29 9 -29 29v243h-69c-18 0 -35 10 -28 34l14 46c6 19 19 29 37 29h152c18 0 29 -10 29 -29v-323c0 -20 -11 -29 -29 -29zM686 650c30 0 49 -19 28 -47l-406 -556c-21 -28 -39 -47 -69 -47h-54c-30 0 -48 19 -28 47l407 556c20 28 39 47 69 47h53z
M856 102c19 0 29 -11 29 -30v-44c0 -17 -10 -28 -30 -28h-254c-19 0 -30 12 -30 29v30c0 18 13 32 29 45c39 30 79 60 102 83s41 44 41 63c0 24 -18 38 -45 38c-23 0 -50 -14 -72 -31c-20 -16 -40 -13 -56 9l-8 10c-16 22 -10 37 9 54c39 34 97 57 147 57
c78 0 151 -41 151 -118c0 -40 -15 -71 -61 -114c-16 -15 -40 -33 -64 -53h112z" />
    <glyph glyph-name="onequarter" unicode="&#xbc;" horiz-adv-x="827" 
d="M152 269c-18 0 -29 9 -29 29v243h-69c-18 0 -36 10 -28 34l13 46c6 19 20 29 37 29h152c18 0 29 -10 29 -29v-323c0 -20 -11 -29 -29 -29h-76zM665 650c30 0 48 -19 28 -47l-406 -556c-21 -28 -39 -47 -69 -47h-54c-30 0 -48 19 -28 47l406 556c21 28 40 47 70 47h53z
M760 157c20 0 30 -10 30 -28v-27c0 -20 -10 -29 -30 -29h-20v-45c0 -18 -11 -28 -29 -28h-60c-18 0 -29 10 -29 29v44h-144c-18 0 -29 9 -29 28v22c0 18 6 28 15 41l146 197c15 18 23 29 54 29h47c18 0 29 -10 29 -29v-204h20zM566 157h64v94z" />
    <glyph glyph-name="threequarters" unicode="&#xbe;" horiz-adv-x="863" 
d="M336 378c0 -69 -63 -116 -158 -116c-50 0 -107 20 -139 54c-16 16 -17 29 2 52l7 8c20 20 34 15 52 1c19 -14 46 -22 72 -22c25 0 46 13 46 36c0 26 -26 40 -59 40h-10c-19 0 -28 10 -28 28v16c0 18 9 28 28 28h18c28 0 47 14 47 35s-18 35 -46 35c-17 0 -33 -4 -56 -16
c-19 -11 -35 -11 -50 14l-4 6c-15 25 -9 40 10 52c32 20 75 33 114 33c82 0 136 -44 136 -110c0 -33 -17 -61 -44 -80c39 -19 62 -52 62 -94zM713 650c30 0 49 -19 28 -47l-406 -556c-21 -28 -39 -47 -69 -47h-54c-30 0 -48 19 -28 47l407 556c20 28 39 47 69 47h53z
M800 157c19 0 29 -10 29 -28v-27c0 -20 -10 -29 -29 -29h-21v-45c0 -18 -10 -28 -29 -28h-60c-18 0 -28 10 -28 29v44h-145c-18 0 -29 9 -29 28v22c0 18 6 28 15 41l147 197c14 18 23 29 54 29h46c19 0 29 -10 29 -29v-204h21zM605 157h64v93z" />
    <glyph glyph-name="period" unicode="." horiz-adv-x="273" 
d="M137 -12c-58 0 -104 47 -104 104s46 104 104 104c57 0 104 -47 104 -104s-47 -104 -104 -104z" />
    <glyph glyph-name="comma" unicode="," horiz-adv-x="282" 
d="M140 196c64 0 107 -45 107 -111c0 -91 -68 -202 -149 -279c-19 -17 -34 -13 -47 -2l-15 13c-18 15 -13 34 2 50c44 46 73 88 75 119c-46 12 -80 53 -80 104c0 59 48 106 107 106z" />
    <glyph glyph-name="colon" unicode=":" horiz-adv-x="293" 
d="M147 304c-58 0 -104 47 -104 104s46 104 104 104c57 0 104 -47 104 -104s-47 -104 -104 -104zM147 -12c-58 0 -104 47 -104 104s46 104 104 104c57 0 104 -47 104 -104s-47 -104 -104 -104z" />
    <glyph glyph-name="semicolon" unicode=";" horiz-adv-x="304" 
d="M152 304c-57 0 -104 47 -104 104s47 104 104 104c58 0 104 -47 104 -104s-46 -104 -104 -104zM151 196c64 0 107 -45 107 -111c0 -91 -67 -202 -148 -279c-19 -17 -35 -13 -48 -2l-15 13c-18 15 -13 34 2 50c45 46 74 88 76 119c-46 12 -80 53 -80 104
c0 59 47 106 106 106z" />
    <glyph glyph-name="ellipsis" unicode="&#x2026;" horiz-adv-x="813" 
d="M137 -12c-58 0 -104 47 -104 104s46 104 104 104c57 0 104 -47 104 -104s-47 -104 -104 -104zM407 -12c-58 0 -104 47 -104 104s46 104 104 104c57 0 104 -47 104 -104s-47 -104 -104 -104zM676 -12c-57 0 -104 47 -104 104s47 104 104 104c58 0 104 -47 104 -104
s-46 -104 -104 -104z" />
    <glyph glyph-name="exclam" unicode="!" horiz-adv-x="285" 
d="M178 650c30 0 50 -17 47 -47l-23 -312c-2 -30 -16 -46 -46 -46h-28c-30 0 -44 16 -46 46l-23 312c-2 30 17 47 48 47h71zM142 196c58 0 104 -47 104 -104s-46 -104 -104 -104c-57 0 -104 47 -104 104s47 104 104 104z" />
    <glyph glyph-name="exclamdown" unicode="&#xa1;" horiz-adv-x="278" 
d="M139 304c-57 0 -104 47 -104 104s47 104 104 104c58 0 104 -47 104 -104s-46 -104 -104 -104zM103 -150c-30 0 -49 17 -47 47l23 312c2 30 16 46 46 46h28c30 0 44 -16 47 -46l22 -312c3 -30 -17 -47 -47 -47h-72z" />
    <glyph glyph-name="question" unicode="?" horiz-adv-x="505" 
d="M253 662c125 0 214 -67 214 -161c0 -88 -79 -144 -119 -186c-21 -22 -27 -43 -27 -58v-5c0 -27 -17 -40 -47 -40h-55c-30 0 -46 13 -46 40v5c0 36 18 67 47 97c30 34 92 75 92 116c0 33 -28 56 -74 56c-33 0 -70 -20 -87 -54c-14 -26 -33 -32 -63 -20l-38 17
c-28 11 -32 35 -20 62c32 73 117 131 223 131zM244 171c51 0 93 -42 93 -92c0 -49 -42 -92 -93 -92s-93 43 -93 92c0 50 42 92 93 92z" />
    <glyph glyph-name="questiondown" unicode="&#xbf;" horiz-adv-x="499" 
d="M257 325c-51 0 -93 42 -93 92c0 49 42 92 93 92s93 -43 93 -92c0 -50 -42 -92 -93 -92zM248 -166c-125 0 -214 67 -214 161c0 87 79 144 119 186c21 21 27 43 27 58v5c0 27 17 40 47 40h55c30 0 47 -13 47 -40v-5c0 -36 -19 -67 -47 -98c-31 -33 -93 -74 -93 -116
c0 -32 28 -55 74 -55c33 0 71 20 87 54c14 26 33 32 63 20l38 -17c28 -11 32 -35 20 -62c-32 -73 -116 -131 -223 -131z" />
    <glyph glyph-name="periodcentered" unicode="&#xb7;" horiz-adv-x="287" 
d="M143 176c-58 0 -106 47 -106 106c0 58 48 106 106 106c59 0 106 -48 106 -106c0 -59 -47 -106 -106 -106z" />
    <glyph glyph-name="bullet" unicode="&#x2022;" horiz-adv-x="386" 
d="M193 156c-74 0 -134 59 -134 134c0 74 60 133 134 133s134 -59 134 -133c0 -75 -60 -134 -134 -134z" />
    <glyph glyph-name="asterisk" unicode="*" horiz-adv-x="418" 
d="M365 449c15 -8 18 -20 10 -34l-19 -32c-8 -14 -20 -18 -34 -9l-69 44l4 -84c1 -16 -9 -25 -25 -25h-47c-15 0 -25 9 -24 25l4 85l-69 -45c-13 -8 -25 -5 -34 10l-19 32c-8 14 -4 26 10 33l79 40l-79 41c-15 7 -18 19 -9 34l19 32c8 14 19 18 33 9l69 -43l-4 83
c-1 16 9 25 24 25h47c17 0 26 -9 25 -25l-4 -85l69 45c13 8 26 5 34 -9l19 -32c9 -16 5 -26 -10 -34l-78 -41z" />
    <glyph glyph-name="numbersign" unicode="#" horiz-adv-x="663" 
d="M149 0c-30 0 -44 16 -40 47l17 122h-62c-24 0 -38 13 -33 37l3 20c5 24 19 37 43 37h63l18 126h-68c-23 0 -38 14 -33 37l4 20c5 24 19 37 42 37h68l17 120c4 31 23 47 53 47h37c30 0 44 -16 40 -47l-17 -120h111l18 120c4 31 22 47 53 47h37c30 0 43 -16 40 -47
l-17 -120h57c23 0 37 -13 32 -37l-3 -20c-5 -24 -19 -37 -43 -37h-56l-18 -126h61c24 0 38 -14 33 -37l-4 -20c-5 -24 -19 -37 -42 -37h-62l-17 -122c-4 -31 -23 -47 -53 -47h-37c-31 0 -44 16 -41 47l18 122h-112l-17 -122c-4 -31 -23 -47 -53 -47h-37zM270 263h111l18 126
h-111z" />
    <glyph glyph-name="slash" unicode="/" horiz-adv-x="587" 
d="M53 -53c-31 0 -43 19 -28 47l368 683c14 28 35 47 65 47h76c30 0 43 -19 28 -47l-368 -683c-15 -28 -35 -47 -65 -47h-76z" />
    <glyph glyph-name="backslash" unicode="\" horiz-adv-x="587" 
d="M463 -53c-30 0 -53 17 -70 47l-367 683c-17 30 -3 47 27 47h71c31 0 54 -17 70 -47l368 -683c16 -30 2 -47 -28 -47h-71z" />
    <glyph glyph-name="parenleft" unicode="(" horiz-adv-x="331" 
d="M210 -116c-31 0 -45 16 -63 47c-69 108 -114 244 -114 379s45 271 114 380c18 30 32 46 63 46h65c30 0 46 -17 24 -47c-70 -106 -117 -243 -117 -379s47 -273 117 -379c22 -30 6 -47 -24 -47h-65z" />
    <glyph glyph-name="parenright" unicode=")" horiz-adv-x="330" 
d="M121 -116h-66c-30 0 -45 17 -24 47c71 106 118 243 118 379s-47 273 -118 379c-21 30 -6 47 24 47h66c30 0 45 -16 63 -46c69 -109 114 -245 114 -380s-45 -271 -114 -379c-18 -31 -33 -47 -63 -47z" />
    <glyph glyph-name="braceleft" unicode="{" horiz-adv-x="398" 
d="M260 -116c-113 0 -155 78 -155 192v108c0 42 -16 57 -45 65c-26 6 -41 18 -41 48v29c0 30 15 41 41 48c29 7 45 22 45 65v107c0 114 42 192 155 192h76c30 0 47 -16 47 -46v-25c0 -30 -17 -46 -47 -46h-27c-35 0 -51 -22 -51 -58v-123c0 -84 -37 -119 -98 -128v-2
c61 -9 98 -52 98 -111v-140c0 -36 16 -58 51 -58h27c30 0 47 -16 47 -46v-25c0 -30 -17 -46 -47 -46h-76z" />
    <glyph glyph-name="braceright" unicode="}" horiz-adv-x="398" 
d="M138 -116h-77c-30 0 -46 16 -46 46v25c0 30 16 46 46 46h28c34 0 50 22 50 58v140c0 59 37 102 99 111v2c-61 9 -99 44 -99 128v123c0 36 -16 58 -50 58h-28c-30 0 -46 16 -46 46v25c0 30 16 46 46 46h77c113 0 154 -78 154 -192v-107c0 -43 16 -58 46 -65
c25 -7 41 -18 41 -48v-29c0 -30 -16 -42 -41 -48c-30 -8 -46 -23 -46 -65v-108c0 -114 -41 -192 -154 -192z" />
    <glyph glyph-name="bracketleft" unicode="[" horiz-adv-x="349" 
d="M112 -116c-30 0 -46 16 -46 46v762c0 30 16 46 46 46h176c30 0 47 -16 47 -46v-17c0 -30 -17 -46 -47 -46h-78v-636h78c30 0 47 -16 47 -46v-17c0 -30 -17 -46 -47 -46h-176z" />
    <glyph glyph-name="bracketright" unicode="]" horiz-adv-x="349" 
d="M237 -116h-176c-30 0 -47 16 -47 46v17c0 30 17 46 47 46h78v636h-78c-30 0 -47 16 -47 46v17c0 30 17 46 47 46h176c30 0 46 -16 46 -46v-762c0 -30 -16 -46 -46 -46z" />
    <glyph glyph-name="hyphen" unicode="-" horiz-adv-x="497" 
d="M96 233c-29 0 -46 17 -46 46v42c0 29 17 46 46 46h305c30 0 46 -17 46 -46v-42c0 -29 -16 -46 -46 -46h-305z" />
    <glyph glyph-name="endash" unicode="&#x2013;" horiz-adv-x="608" 
d="M97 233c-30 0 -47 17 -47 47v40c0 30 17 47 47 47h414c30 0 47 -17 47 -47v-40c0 -30 -17 -47 -47 -47h-414z" />
    <glyph glyph-name="emdash" unicode="&#x2014;" horiz-adv-x="741" 
d="M97 233c-30 0 -47 17 -47 47v40c0 30 17 47 47 47h547c30 0 46 -17 46 -47v-40c0 -30 -16 -47 -46 -47h-547z" />
    <glyph glyph-name="underscore" unicode="_" horiz-adv-x="613" 
d="M99 -145c-30 0 -46 17 -46 46v41c0 30 16 47 46 47h415c30 0 46 -17 46 -47v-41c0 -29 -16 -46 -46 -46h-415z" />
    <glyph glyph-name="quotesinglbase" unicode="&#x201a;" horiz-adv-x="266" 
d="M132 163c59 0 99 -41 99 -102c0 -83 -47 -156 -111 -231c-17 -19 -32 -14 -46 -3l-7 5c-14 11 -16 26 -3 43c23 29 49 65 50 94c-46 9 -79 48 -79 96c0 54 43 98 97 98z" />
    <glyph glyph-name="quotedblbase" unicode="&#x201e;" horiz-adv-x="497" 
d="M132 163c59 0 99 -41 99 -102c0 -83 -47 -156 -111 -231c-17 -19 -32 -14 -46 -3l-7 5c-14 11 -16 26 -3 43c23 29 49 65 50 94c-46 9 -79 48 -79 96c0 54 43 98 97 98zM461 61c1 -83 -46 -156 -111 -231c-17 -19 -32 -14 -45 -3l-7 5c-15 11 -16 26 -4 43
c23 29 49 65 51 94c-46 9 -80 48 -80 96c0 54 44 98 98 98c59 0 98 -41 98 -102z" />
    <glyph glyph-name="quotedblleft" unicode="&#x201c;" horiz-adv-x="488" 
d="M146 542c46 -9 79 -49 79 -97c0 -54 -43 -98 -97 -98c-59 0 -99 41 -99 102c0 84 47 156 111 231c18 19 33 14 46 3l7 -5c15 -11 16 -26 3 -42c-23 -30 -49 -66 -50 -94zM376 542c46 -9 80 -49 80 -97c0 -54 -44 -98 -98 -98c-59 0 -98 41 -98 102c-1 84 47 156 111 231
c17 19 32 14 45 3l8 -5c14 -11 15 -26 3 -42c-23 -30 -49 -66 -51 -94z" />
    <glyph glyph-name="quotedblright" unicode="&#x201d;" horiz-adv-x="486" 
d="M132 692c59 0 98 -41 99 -102c0 -83 -47 -156 -112 -231c-17 -19 -32 -14 -45 -3l-7 5c-15 11 -16 26 -4 43c24 30 49 65 51 94c-46 9 -80 48 -80 96c0 54 44 98 98 98zM363 692c58 0 98 -41 98 -102c0 -83 -47 -156 -111 -231c-17 -19 -32 -14 -45 -3l-8 5
c-14 11 -16 26 -3 43c23 29 49 65 51 94c-46 8 -80 48 -80 96c0 54 43 98 98 98z" />
    <glyph glyph-name="quoteleft" unicode="&#x2018;" horiz-adv-x="258" 
d="M146 541c46 -9 79 -49 79 -97c0 -54 -43 -98 -97 -98c-59 0 -99 41 -99 102c0 84 47 156 111 231c18 20 33 14 46 4l7 -6c15 -11 16 -26 3 -42c-23 -30 -49 -66 -50 -94z" />
    <glyph glyph-name="quoteright" unicode="&#x2019;" horiz-adv-x="255" 
d="M132 692c59 0 98 -41 99 -102c0 -83 -47 -156 -112 -231c-17 -19 -32 -14 -45 -3l-7 5c-15 11 -16 26 -4 43c24 30 49 65 51 94c-46 9 -80 48 -80 96c0 54 44 98 98 98z" />
    <glyph glyph-name="guillemotleft" unicode="&#xab;" horiz-adv-x="576" 
d="M181 299l95 -109c15 -18 20 -41 -4 -62l-20 -19c-24 -22 -54 -13 -69 4l-143 159c-16 17 -16 36 3 57l140 156c15 17 45 26 69 4l20 -18c24 -22 19 -45 4 -63zM425 299l96 -109c15 -18 20 -41 -4 -62l-20 -19c-24 -22 -55 -13 -70 4l-143 159c-15 17 -15 36 4 57l139 156
c15 17 46 26 70 4l20 -18c24 -22 19 -45 4 -63z" />
    <glyph glyph-name="guillemotright" unicode="&#xbb;" horiz-adv-x="575" 
d="M288 329c18 -21 19 -40 3 -57l-143 -159c-15 -17 -45 -26 -69 -4l-21 19c-23 21 -18 44 -3 62l95 109l-95 109c-15 18 -20 41 3 63l21 18c24 22 54 13 69 -4zM533 329c18 -21 18 -40 3 -57l-143 -159c-15 -17 -45 -26 -69 -4l-21 19c-24 21 -19 44 -4 62l96 109l-96 109
c-15 18 -20 41 4 63l21 18c24 22 54 13 69 -4z" />
    <glyph glyph-name="guilsinglleft" unicode="&#x2039;" horiz-adv-x="331" 
d="M181 299l95 -109c15 -18 20 -41 -4 -62l-20 -19c-24 -22 -54 -13 -69 4l-143 159c-16 17 -16 36 3 57l140 156c15 17 45 26 69 4l20 -18c24 -22 19 -45 4 -63z" />
    <glyph glyph-name="guilsinglright" unicode="&#x203a;" horiz-adv-x="331" 
d="M288 329c18 -21 19 -40 3 -57l-143 -159c-15 -17 -45 -26 -69 -4l-21 19c-23 21 -18 44 -3 62l95 109l-95 109c-15 18 -20 41 3 63l21 18c24 22 54 13 69 -4z" />
    <glyph glyph-name="quotedbl" unicode="&#x22;" horiz-adv-x="388" 
d="M100 384c-30 0 -42 17 -44 46l-16 173c-2 31 17 47 47 47h36c30 0 49 -16 47 -47l-15 -173c-3 -29 -15 -46 -45 -46h-10zM278 384c-30 0 -42 17 -44 46l-15 173c-3 31 16 47 46 47h36c30 0 50 -16 47 -47l-15 -173c-3 -29 -15 -46 -44 -46h-11z" />
    <glyph glyph-name="quotesingle" unicode="'" horiz-adv-x="210" 
d="M100 384c-30 0 -42 17 -44 46l-16 173c-2 31 17 47 47 47h36c30 0 49 -16 47 -47l-15 -173c-3 -29 -15 -46 -45 -46h-10z" />
    <glyph glyph-name="cent" unicode="&#xa2;" horiz-adv-x="520" 
d="M425 252l51 -50c20 -20 12 -35 2 -48c-33 -32 -75 -56 -126 -67v-53c0 -30 -17 -46 -46 -46h-35c-29 0 -45 16 -45 46v53c-114 26 -192 120 -192 241s78 215 192 240v46c0 30 16 46 45 46h35c29 0 46 -16 46 -46v-46c51 -11 93 -35 126 -67c10 -12 18 -27 -2 -48l-51 -50
c-12 -12 -25 -17 -46 2c-25 22 -55 32 -82 32c-60 0 -104 -46 -104 -110c0 -62 43 -109 104 -109c27 0 56 9 82 33c21 20 34 14 46 1z" />
    <glyph glyph-name="currency" unicode="&#xa4;" horiz-adv-x="673" 
d="M613 164c21 -21 20 -45 -1 -65l-38 -37c-21 -20 -43 -21 -63 -1l-51 51c-40 -19 -79 -28 -124 -28c-43 0 -84 9 -122 28l-51 -51c-20 -20 -43 -19 -64 1l-38 37c-21 20 -21 44 0 65l41 41c-25 37 -37 79 -37 123c0 45 13 87 37 125l-41 42c-20 20 -20 42 1 63l37 38
c20 21 44 22 64 0l51 -50c39 17 81 26 123 26c43 0 84 -9 121 -27l52 51c21 22 45 21 65 0l37 -38c20 -21 21 -43 1 -63l-43 -43c24 -35 38 -76 38 -123c0 -44 -12 -86 -37 -124zM336 212c66 0 116 49 116 116s-50 116 -116 116s-116 -49 -116 -116s50 -116 116 -116z" />
    <glyph glyph-name="dollar" unicode="$" horiz-adv-x="539" 
d="M527 194c0 -106 -80 -170 -186 -190v-25c0 -29 -16 -45 -45 -45h-35c-29 0 -46 16 -46 45v22c-80 10 -151 42 -199 87c-23 20 -28 42 -9 64l38 45c20 22 41 24 64 6c38 -33 101 -60 152 -60c54 0 88 20 88 50c0 43 -51 48 -121 69c-93 27 -204 79 -204 200
c0 98 76 170 191 188v28c0 29 17 46 46 46h35c29 0 45 -17 45 -46v-30c58 -11 107 -34 144 -64c24 -20 31 -41 12 -64l-35 -42c-19 -24 -41 -26 -64 -9c-31 24 -74 47 -124 47c-44 0 -73 -17 -73 -45c0 -36 46 -52 93 -67c108 -33 233 -68 233 -210z" />
    <glyph glyph-name="Euro" unicode="&#x20ac;" horiz-adv-x="760" 
d="M705 151c22 -19 22 -45 1 -66c-60 -61 -144 -97 -239 -97c-160 0 -290 98 -331 241h-82c-19 0 -33 11 -28 30l3 13c5 20 16 31 35 31h60c-1 7 -1 15 -1 22v19h-55c-20 0 -33 12 -28 31l3 12c5 21 15 32 35 32h57c40 144 170 243 333 243c94 0 178 -36 238 -97
c21 -21 21 -47 -1 -66l-49 -43c-21 -19 -41 -18 -64 1c-34 29 -76 47 -124 47c-63 0 -118 -33 -147 -85h163c21 0 33 -11 28 -32l-2 -12c-5 -20 -16 -31 -36 -31h-176c-1 -6 -1 -13 -1 -19c0 -7 0 -15 1 -22h175c21 0 33 -11 28 -31l-3 -13c-5 -19 -15 -30 -35 -30h-141
c30 -51 83 -83 146 -83c48 0 91 18 124 47c23 19 43 20 64 1z" />
    <glyph glyph-name="sterling" unicode="&#xa3;" horiz-adv-x="607" 
d="M521 126c29 0 46 -16 46 -45v-35c0 -30 -17 -46 -46 -46h-434c-29 0 -45 16 -45 46v35c0 29 16 45 45 45h26v141h-25c-30 0 -46 17 -46 46v35c0 29 16 45 46 45h25v51c0 151 122 218 242 218c84 0 160 -33 209 -87c20 -23 20 -47 -1 -66l-32 -30c-21 -19 -42 -20 -63 2
c-29 29 -60 45 -98 45c-53 0 -83 -32 -83 -82v-51h128c29 0 46 -16 46 -45v-35c0 -29 -17 -46 -46 -46h-128v-141h234z" />
    <glyph glyph-name="yen" unicode="&#xa5;" horiz-adv-x="673" 
d="M616 651c31 0 44 -13 27 -43l-197 -335h58c24 0 38 -14 38 -37v-8c0 -24 -14 -38 -38 -38h-85v-41h85c24 0 38 -14 38 -37v-8c0 -24 -14 -38 -38 -38h-85v-19c0 -31 -16 -47 -47 -47h-66c-30 0 -46 16 -46 47v19h-86c-23 0 -37 14 -37 38v8c0 23 14 37 37 37h86v41h-86
c-23 0 -37 14 -37 38v8c0 23 14 37 37 37h57l-202 335c-17 29 -4 43 26 43h102c30 0 43 -14 61 -47l123 -214l118 214c17 34 31 47 61 47h96z" />
    <glyph glyph-name="plus" unicode="+" horiz-adv-x="569" 
d="M498 363c30 0 46 -17 46 -46v-37c0 -30 -16 -47 -46 -47h-142v-143c0 -30 -17 -46 -47 -46h-50c-30 0 -46 16 -46 47v142h-142c-30 0 -46 17 -46 47v37c0 29 16 46 46 46h143v141c0 29 16 46 46 46h50c30 0 47 -15 47 -46v-141h141z" />
    <glyph glyph-name="minus" unicode="&#x2212;" horiz-adv-x="617" 
d="M100 259c-30 0 -46 16 -46 46v41c0 30 16 47 46 47h417c30 0 46 -17 46 -47v-41c0 -30 -16 -46 -46 -46h-417z" />
    <glyph glyph-name="multiply" unicode="&#xd7;" horiz-adv-x="597" 
d="M541 189c22 -21 22 -44 0 -66l-38 -38c-22 -21 -44 -21 -65 0l-141 140l-138 -137c-21 -21 -44 -20 -65 1l-35 35c-21 21 -22 44 0 66l137 136l-140 140c-21 21 -21 45 0 66l39 38c20 21 44 21 65 0l140 -140l137 136c20 21 44 21 66 0l35 -35c21 -21 22 -44 0 -66
l-137 -136z" />
    <glyph glyph-name="divide" unicode="&#xf7;" horiz-adv-x="565" 
d="M291 413c-52 0 -95 42 -95 94c0 53 43 95 95 95s94 -42 94 -95c0 -52 -42 -94 -94 -94zM78 236c-30 0 -46 17 -46 47v32c0 30 16 47 46 47h408c30 0 47 -17 47 -47v-32c0 -30 -17 -47 -47 -47h-408zM291 -5c-52 0 -95 42 -95 94c0 53 43 95 95 95s94 -42 94 -95
c0 -52 -42 -94 -94 -94z" />
    <glyph glyph-name="equal" unicode="=" horiz-adv-x="619" 
d="M101 340c-30 0 -46 17 -46 47v24c0 30 16 47 46 47h417c30 0 46 -17 46 -47v-24c0 -30 -16 -47 -46 -47h-417zM101 142c-30 0 -46 17 -46 47v24c0 30 16 47 46 47h417c30 0 46 -17 46 -47v-24c0 -30 -16 -47 -46 -47h-417z" />
    <glyph glyph-name="notequal" unicode="&#x2260;" horiz-adv-x="617" 
d="M534 361h-142l-44 -74h186c30 0 47 -16 47 -46v-25c0 -30 -17 -46 -47 -46h-256l-56 -94c-18 -30 -31 -43 -61 -43h-39c-30 0 -42 24 -25 51l51 86h-63c-30 0 -46 16 -46 46v25c0 30 16 46 46 46h133l44 74h-177c-30 0 -46 17 -46 47v24c0 30 16 47 46 47h247l56 94
c18 30 32 42 62 42h38c30 0 42 -23 25 -51l-51 -85h72c30 0 47 -17 47 -47v-24c0 -30 -17 -47 -47 -47z" />
    <glyph glyph-name="greater" unicode="&#x3e;" horiz-adv-x="507" 
d="M424 403c35 -21 56 -40 56 -79v-6c0 -39 -18 -56 -56 -79l-316 -191c-30 -18 -56 -4 -56 27v60c0 22 10 35 30 47l225 139l-225 139c-20 13 -30 25 -30 48v59c0 31 26 45 56 28z" />
    <glyph glyph-name="less" unicode="&#x3c;" horiz-adv-x="507" 
d="M455 508c0 -23 -10 -35 -30 -48l-225 -139l225 -139c20 -12 30 -25 30 -47v-60c0 -31 -26 -45 -56 -27l-316 191c-38 23 -56 40 -56 79v6c0 39 21 58 56 79l316 192c30 17 56 3 56 -28v-59z" />
    <glyph glyph-name="plusminus" unicode="&#xb1;" horiz-adv-x="591" 
d="M508 446c30 0 47 -16 47 -46v-37c0 -30 -17 -46 -47 -46h-142v-144c0 -30 -16 -45 -46 -45h-50c-30 0 -47 15 -47 46v143h-141c-30 0 -46 16 -46 46v37c0 30 16 46 46 46h142v142c0 29 16 46 46 46h51c30 0 46 -16 46 -46v-142h141zM509 73c30 0 46 -17 46 -47v-36
c0 -30 -16 -47 -46 -47h-426c-30 0 -47 17 -47 47v36c0 30 17 47 47 47h426z" />
    <glyph glyph-name="approxequal" unicode="&#x2248;" horiz-adv-x="645" 
d="M443 358c-97 0 -153 57 -237 57c-26 0 -39 -6 -48 -26c-10 -22 -17 -30 -45 -30h-24c-29 0 -41 8 -38 30c11 89 66 143 155 143c88 0 160 -57 237 -57c27 0 39 6 48 26c10 22 17 30 45 30h24c29 0 41 -8 38 -30c-11 -89 -66 -143 -155 -143zM443 121
c-97 0 -153 57 -237 57c-26 0 -39 -6 -48 -26c-10 -22 -17 -30 -45 -30h-24c-29 0 -41 8 -38 30c11 89 66 143 155 143c88 0 160 -57 237 -57c27 0 39 6 48 26c10 22 17 30 45 30h24c29 0 41 -8 38 -30c-11 -89 -66 -143 -155 -143z" />
    <glyph glyph-name="asciitilde" unicode="~" horiz-adv-x="631" 
d="M437 240c-97 0 -153 57 -237 57c-27 0 -39 -7 -48 -26c-10 -22 -17 -30 -45 -30h-24c-29 0 -41 8 -38 30c11 89 66 143 155 143c88 0 160 -57 237 -57c27 0 39 6 48 26c10 22 17 30 45 30h24c29 0 41 -8 38 -30c-11 -89 -66 -143 -155 -143z" />
    <glyph glyph-name="asciicircum" unicode="^" horiz-adv-x="616" 
d="M580 324c18 -28 0 -52 -30 -52h-56c-30 0 -44 16 -65 46l-120 177l-121 -177c-21 -30 -36 -46 -66 -46h-56c-30 0 -49 24 -30 52l192 280c20 29 36 46 66 46h30c31 0 46 -16 66 -46z" />
    <glyph glyph-name="percent" unicode="%" horiz-adv-x="917" 
d="M199 269c-98 0 -170 79 -170 197c0 117 72 196 170 196s171 -79 171 -196c0 -118 -73 -197 -171 -197zM208 0c-30 0 -48 19 -28 47l407 556c20 28 40 47 70 47h53c30 0 48 -19 28 -47l-407 -556c-20 -28 -39 -47 -69 -47h-54zM199 371c32 0 60 39 60 95s-24 94 -60 94
c-35 0 -59 -38 -59 -94c0 -57 24 -95 59 -95zM717 -13c-97 0 -170 79 -170 197c0 117 73 196 170 196c98 0 171 -79 171 -196c0 -118 -73 -197 -171 -197zM717 90c36 0 60 37 60 94c0 56 -24 94 -60 94c-35 0 -59 -38 -59 -94c0 -57 24 -94 59 -94z" />
    <glyph glyph-name="perthousand" unicode="&#x2030;" horiz-adv-x="1312" 
d="M199 269c-98 0 -170 79 -170 197c0 117 72 196 170 196s171 -79 171 -196c0 -118 -73 -197 -171 -197zM208 0c-30 0 -48 19 -28 47l407 556c20 28 40 47 70 47h53c30 0 48 -19 28 -47l-407 -556c-20 -28 -39 -47 -69 -47h-54zM199 371c32 0 60 39 60 95s-24 94 -60 94
c-35 0 -59 -38 -59 -94c0 -57 24 -95 59 -95zM717 -13c-97 0 -170 79 -170 197c0 117 73 196 170 196c98 0 171 -79 171 -196c0 -118 -73 -197 -171 -197zM1115 -13c-98 0 -170 79 -170 197c0 117 72 196 170 196s171 -79 171 -196c0 -118 -73 -197 -171 -197zM717 90
c36 0 60 37 60 94c0 56 -24 94 -60 94c-35 0 -59 -38 -59 -94c0 -57 24 -94 59 -94zM1115 90c35 0 59 37 59 94c0 56 -24 94 -59 94s-59 -38 -59 -94c0 -57 24 -94 59 -94z" />
    <glyph glyph-name="uniF8FF" unicode="&#xf8ff;" horiz-adv-x="2307" 
d="M507 404c0 0 28 17 58 17h51v-79h-42v-48c0 -12 7 -17 18 -17c10 0 18 3 24 7v-75c-12 -7 -31 -10 -55 -10c-62 0 -87 25 -87 83v228h99c0 -40 -29 -85 -67 -102zM657 413c0 0 41 8 70 8h8v-217h-99v306h98c0 -44 -35 -84 -79 -94zM1317 404c0 0 28 17 58 17h50v-79h-42
v-48c0 -12 7 -17 18 -17c10 0 18 3 24 7v-75c-12 -7 -31 -10 -54 -10c-62 0 -88 25 -88 83v228h99c0 -40 -28 -85 -67 -102zM100 204v305h99v-305h-99zM343 428c72 0 114 -35 114 -90v-134h-98v22h-3c-7 -10 -30 -27 -71 -27c-43 0 -70 25 -70 61c0 38 27 66 74 66
c34 0 54 -9 66 -21h2v35c0 15 -8 25 -23 25s-23 -9 -23 -29l-90 14c11 49 50 78 122 78zM927 426c45 0 73 -30 73 -88v-134h-100v129c0 19 -7 27 -19 27c-15 0 -19 -8 -26 -32v-124h-99v217h97v-65h3c6 50 32 70 71 70zM1141 426c81 0 126 -48 126 -114
c0 -65 -44 -113 -126 -113s-126 47 -126 113s46 114 126 114zM1866 426c51 0 83 -34 83 -114s-42 -113 -86 -113c-33 0 -57 13 -69 43h-3v-110h-100v289h99v-65h3c6 40 27 70 73 70zM2207 317v-9h-150c0 -24 12 -46 34 -46c21 0 28 16 30 34l82 -8c-12 -66 -63 -89 -116 -89
c-80 0 -124 47 -124 113s48 114 127 114c71 0 117 -49 117 -109zM1559 248c6 54 19 119 30 173h99l-71 -207c-20 -56 -55 -86 -106 -86h-39v66h65c42 0 60 4 67 12l-1 3h-68c-28 0 -44 13 -52 39l-54 173h100c9 -54 24 -119 28 -173h2zM2063 320c42 0 55 8 55 24
c0 13 -7 22 -24 22c-22 0 -37 -18 -37 -46h6zM1825 247c20 0 30 16 30 57s-6 61 -27 61c-15 0 -25 -12 -30 -33v-72c8 -10 17 -13 27 -13zM1141 261c17 0 29 14 29 51c0 38 -12 52 -29 52c-18 0 -28 -14 -28 -52c0 -37 11 -51 28 -51zM335 229c10 0 18 5 22 11v51
c-3 5 -10 8 -19 8c-16 0 -27 -13 -27 -35s6 -35 24 -35z" />
    </font>
</defs>
</svg>
